SplineFontDB: 3.0
FontName: ChangaOne-Regular
FullName: Changa One Regular
FamilyName: Changa One
Weight: Book
Copyright: Copyright (c) 2011, Eduardo Tunni (http://www.tipo.net.ar), with Reserved Font Name "Changa"
Version: 1.001
ItalicAngle: 0
UnderlinePosition: -50
UnderlineWidth: 50
Ascent: 800
Descent: 200
sfntRevision: 0x00010041
LayerCount: 2
Layer: 0 1 "Back"  1
Layer: 1 1 "Fore"  0
XUID: [1021 288 713564382 13610168]
FSType: 0
OS2Version: 2
OS2_WeightWidthSlopeOnly: 0
OS2_UseTypoMetrics: 1
CreationTime: 1314966773
ModificationTime: 1318903946
PfmFamily: 17
TTFWeight: 400
TTFWidth: 5
LineGap: 0
VLineGap: 0
Panose: 2 0 0 0 0 0 0 0 0 0
OS2TypoAscent: 82
OS2TypoAOffset: 1
OS2TypoDescent: 20
OS2TypoDOffset: 1
OS2TypoLinegap: 0
OS2WinAscent: 0
OS2WinAOffset: 1
OS2WinDescent: 0
OS2WinDOffset: 1
HheadAscent: 0
HheadAOffset: 1
HheadDescent: 0
HheadDOffset: 1
OS2SubXSize: 700
OS2SubYSize: 650
OS2SubXOff: 0
OS2SubYOff: 140
OS2SupXSize: 700
OS2SupYSize: 650
OS2SupXOff: 0
OS2SupYOff: 477
OS2StrikeYSize: 50
OS2StrikeYPos: 250
OS2Vendor: 'pyrs'
OS2CodePages: 20000001.00000000
OS2UnicodeRanges: 800000af.4000204a.00000000.00000000
Lookup: 4 0 0 "'calt' Contextual Alternates in Latin lookup 0"  {"'calt' Contextual Alternates in Latin lookup 0 subtable"  } ['calt' ('latn' <'dflt' > ) ]
Lookup: 4 0 0 "'frac' Diagonal Fractions in Latin lookup 1"  {"'frac' Diagonal Fractions in Latin lookup 1 subtable"  } ['frac' ('latn' <'dflt' > ) ]
Lookup: 4 0 1 "'liga' Standard Ligatures in Latin lookup 2"  {"'liga' Standard Ligatures in Latin lookup 2 subtable"  } ['liga' ('latn' <'dflt' > ) ]
Lookup: 1 0 0 "'smcp' Lowercase to Small Capitals in Latin lookup 3"  {"'smcp' Lowercase to Small Capitals in Latin lookup 3 subtable"  } ['smcp' ('latn' <'dflt' > ) ]
Lookup: 1 0 0 "'onum' Oldstyle Figures in Latin lookup 4"  {"'onum' Oldstyle Figures in Latin lookup 4 subtable" ("oldstyle" ) } ['onum' ('latn' <'dflt' > ) ]

StartChar: exclam
Encoding: 33 33 4
Width: 330
GlyphClass: 2
Flags: W
LayerCount: 2
Fore
SplineSet
250 170 m 1,0,-1
 80 170 l 1,1,-1
 50 598 l 2,2,3
 48 625 48 625 87 625 c 2,4,-1
 243 625 l 2,5,6
 282 625 282 625 280 598 c 2,7,-1
 250 170 l 1,0,-1
53 70 m 128,-1,9
 53 113 53 113 76 131 c 128,-1,10
 99 149 99 149 165 149 c 128,-1,11
 231 149 231 149 253.5 131 c 128,-1,12
 276 113 276 113 276 70 c 128,-1,13
 276 27 276 27 253.5 10 c 128,-1,14
 231 -7 231 -7 164.5 -7 c 128,-1,15
 98 -7 98 -7 75.5 10 c 128,-1,8
 53 27 53 27 53 70 c 128,-1,9
EndSplineSet
Substitution2: "'smcp' Lowercase to Small Capitals in Latin lookup 3 subtable" .notdef
EndChar

StartChar: quotedbl
Encoding: 34 34 5
Width: 500
GlyphClass: 2
Flags: W
LayerCount: 2
Fore
SplineSet
175 300 m 1,0,-1
 75 300 l 1,1,2
 25 561 25 561 25 565 c 2,3,-1
 25 623 l 2,4,5
 25 650 25 650 62 650 c 2,6,-1
 188 650 l 2,7,8
 225 650 225 650 225 623 c 2,9,-1
 225 565 l 2,10,11
 225 561 225 561 175 300 c 1,0,-1
425 300 m 1,12,-1
 325 300 l 1,13,14
 275 561 275 561 275 565 c 2,15,-1
 275 623 l 2,16,17
 275 650 275 650 312 650 c 2,18,-1
 438 650 l 2,19,20
 475 650 475 650 475 623 c 2,21,-1
 475 565 l 2,22,23
 475 561 475 561 425 300 c 1,12,-1
EndSplineSet
EndChar

StartChar: numbersign
Encoding: 35 35 6
Width: 746
GlyphClass: 2
Flags: W
LayerCount: 2
Fore
SplineSet
425 665 m 1,0,-1
 349 474 l 1,1,-1
 529 474 l 1,2,-1
 595 640 l 2,3,4
 600 650 600 650 604 654 c 0,5,6
 615 665 615 665 638 665 c 2,7,-1
 689 665 l 1,8,-1
 613 474 l 1,9,-1
 746 474 l 1,10,-1
 728 426 l 2,11,12
 718 402 718 402 706 398 c 0,13,14
 700 397 700 397 689 395 c 1,15,-1
 582 395 l 1,16,-1
 516 228 l 1,17,-1
 649 228 l 1,18,-1
 631 181 l 1,19,20
 623 163 623 163 615 157.5 c 128,-1,21
 607 152 607 152 592 150 c 1,22,-1
 485 150 l 1,23,-1
 420 -15 l 2,24,25
 415 -25 415 -25 411 -29 c 0,26,27
 400 -40 400 -40 377 -40 c 2,28,-1
 326 -40 l 1,29,-1
 401 150 l 1,30,-1
 221 150 l 1,31,-1
 156 -15 l 2,32,33
 151 -25 151 -25 147 -29 c 0,34,35
 136 -40 136 -40 113 -40 c 2,36,-1
 62 -40 l 1,37,-1
 137 150 l 1,38,-1
 0 150 l 1,39,-1
 19 197 l 2,40,41
 26 215 26 215 34.5 220.5 c 128,-1,42
 43 226 43 226 58 228 c 1,43,-1
 168 228 l 1,44,-1
 234 395 l 1,45,-1
 97 395 l 1,46,-1
 116 443 l 2,47,48
 126 467 126 467 138 470 c 0,49,50
 144 472 144 472 155 474 c 1,51,-1
 265 474 l 1,52,-1
 331 640 l 2,53,54
 336 650 336 650 340 654 c 0,55,56
 351 665 351 665 374 665 c 2,57,-1
 425 665 l 1,0,-1
318 395 m 1,58,-1
 252 228 l 1,59,-1
 432 228 l 1,60,-1
 498 395 l 1,61,-1
 318 395 l 1,58,-1
EndSplineSet
EndChar

StartChar: dollar
Encoding: 36 36 7
Width: 551
GlyphClass: 2
Flags: W
LayerCount: 2
Fore
SplineSet
225 718 m 1,0,-1
 352 718 l 1,1,-1
 349 638 l 1,2,3
 429 633 429 633 489 622 c 1,4,-1
 460 467 l 1,5,-1
 310 467 l 2,6,7
 275 467 275 467 263.5 456 c 128,-1,8
 252 445 252 445 251 414 c 1,9,-1
 314 407 l 2,10,11
 429 394 429 394 472.5 348 c 128,-1,12
 516 302 516 302 516 229 c 128,-1,13
 516 156 516 156 501 112.5 c 128,-1,14
 486 69 486 69 458 46 c 1,15,16
 407 7 407 7 324 1 c 1,17,-1
 321 -100 l 1,18,-1
 192 -100 l 1,19,-1
 196 1 l 1,20,21
 101 8 101 8 35 25 c 1,22,-1
 64 184 l 1,23,24
 147 162 147 162 238 162 c 0,25,26
 276 162 276 162 309 166 c 1,27,-1
 309 208 l 1,28,-1
 247 215 l 1,29,30
 127 227 127 227 87 285 c 0,31,32
 52 336 52 336 52 418 c 0,33,34
 52 526 52 526 96.5 575 c 128,-1,35
 141 624 141 624 222 635 c 1,36,-1
 225 718 l 1,0,-1
EndSplineSet
Substitution2: "'onum' Oldstyle Figures in Latin lookup 4 subtable" .notdef
EndChar

StartChar: percent
Encoding: 37 37 8
Width: 862
GlyphClass: 3
Flags: W
LayerCount: 2
Fore
SplineSet
659 625 m 1,0,-1
 314 25 l 2,1,2
 304 8 304 8 296.5 4 c 128,-1,3
 289 0 289 0 265 0 c 2,4,-1
 200 0 l 1,5,-1
 545 600 l 2,6,7
 555 617 555 617 562.5 621 c 128,-1,8
 570 625 570 625 594 625 c 2,9,-1
 659 625 l 1,0,-1
472 170 m 128,-1,11
 472 264 472 264 515.5 309.5 c 128,-1,12
 559 355 559 355 657 355 c 128,-1,13
 755 355 755 355 798.5 309.5 c 128,-1,14
 842 264 842 264 842 170 c 128,-1,15
 842 76 842 76 798.5 30.5 c 128,-1,16
 755 -15 755 -15 657 -15 c 128,-1,17
 559 -15 559 -15 515.5 30.5 c 128,-1,10
 472 76 472 76 472 170 c 128,-1,11
630 209 m 2,18,-1
 630 102 l 1,19,-1
 652 102 l 2,20,21
 673 102 673 102 678.5 106.5 c 128,-1,22
 684 111 684 111 684 131 c 2,23,-1
 684 238 l 1,24,-1
 662 238 l 2,25,26
 641 238 641 238 635.5 233.5 c 128,-1,27
 630 229 630 229 630 209 c 2,18,-1
20 455 m 128,-1,29
 20 549 20 549 63.5 594.5 c 128,-1,30
 107 640 107 640 205 640 c 128,-1,31
 303 640 303 640 346.5 594.5 c 128,-1,32
 390 549 390 549 390 455 c 128,-1,33
 390 361 390 361 346.5 315.5 c 128,-1,34
 303 270 303 270 205 270 c 128,-1,35
 107 270 107 270 63.5 315.5 c 128,-1,28
 20 361 20 361 20 455 c 128,-1,29
178 494 m 2,36,-1
 178 387 l 1,37,-1
 200 387 l 2,38,39
 221 387 221 387 226.5 391.5 c 128,-1,40
 232 396 232 396 232 416 c 2,41,-1
 232 523 l 1,42,-1
 210 523 l 2,43,44
 189 523 189 523 183.5 518.5 c 128,-1,45
 178 514 178 514 178 494 c 2,36,-1
EndSplineSet
Substitution2: "'onum' Oldstyle Figures in Latin lookup 4 subtable" .notdef
Ligature2: "'frac' Diagonal Fractions in Latin lookup 1 subtable" zero slash zero
Ligature2: "'frac' Diagonal Fractions in Latin lookup 1 subtable" zero fraction zero
EndChar

StartChar: ampersand
Encoding: 38 38 9
Width: 664
GlyphClass: 2
Flags: W
LayerCount: 2
Fore
SplineSet
439 -115 m 1,0,-1
 414 21 l 1,1,2
 293 -15 293 -15 220 -15 c 0,3,4
 45 -15 45 -15 45 180 c 0,5,6
 45 345 45 345 169 363 c 1,7,-1
 169 367 l 1,8,-1
 84 396 l 1,9,10
 84 529 84 529 131.5 577 c 128,-1,11
 179 625 179 625 272.5 625 c 128,-1,12
 366 625 366 625 466 604 c 1,13,-1
 437 457 l 1,14,-1
 348 457 l 2,15,16
 315 457 315 457 301 448.5 c 128,-1,17
 287 440 287 440 287 415 c 2,18,-1
 287 382 l 1,19,-1
 654 382 l 1,20,-1
 632 242 l 1,21,-1
 562 242 l 1,22,-1
 562 -100 l 1,23,-1
 439 -115 l 1,0,-1
335 156 m 0,24,25
 364 156 364 156 389 160 c 1,26,-1
 374 242 l 1,27,-1
 287 242 l 1,28,-1
 287 201 l 2,29,30
 287 156 287 156 335 156 c 0,24,25
EndSplineSet
Substitution2: "'smcp' Lowercase to Small Capitals in Latin lookup 3 subtable" .notdef
EndChar

StartChar: quotesingle
Encoding: 39 39 10
Width: 250
GlyphClass: 2
Flags: W
LayerCount: 2
Fore
SplineSet
175 300 m 1,0,-1
 75 300 l 1,1,2
 25 561 25 561 25 565 c 2,3,-1
 25 623 l 2,4,5
 25 650 25 650 62 650 c 2,6,-1
 188 650 l 2,7,8
 225 650 225 650 225 623 c 2,9,-1
 225 565 l 2,10,11
 225 561 225 561 175 300 c 1,0,-1
EndSplineSet
EndChar

StartChar: parenleft
Encoding: 40 40 11
Width: 314
GlyphClass: 2
Flags: W
LayerCount: 2
Fore
SplineSet
274 620 m 1,0,-1
 284 473 l 1,1,2
 267 466 267 466 255.5 456.5 c 128,-1,3
 244 447 244 447 230 424 c 0,4,5
 200 377 200 377 200 242 c 0,6,7
 200 104 200 104 230 58 c 0,8,9
 245 35 245 35 255.5 27 c 128,-1,10
 266 19 266 19 284 11 c 1,11,-1
 274 -136 l 1,12,13
 20 -103 20 -103 20 242 c 128,-1,14
 20 587 20 587 274 620 c 1,0,-1
EndSplineSet
Substitution2: "'sups' Superscript in Latin lookup 6 subtable" .notdef
Substitution2: "'sinf' Scientific Inferiors in Latin lookup 5 subtable" .notdef
Position2: "'case' Case-Sensitive Forms in Latin lookup 0 per glyph data 1" dx=0 dy=70 dh=0 dv=0
EndChar

StartChar: parenright
Encoding: 41 41 12
Width: 314
GlyphClass: 2
Flags: W
LayerCount: 2
Fore
SplineSet
30 463 m 1,0,-1
 40 610 l 1,1,2
 294 577 294 577 294 232 c 128,-1,3
 294 -113 294 -113 40 -146 c 1,4,-1
 30 1 l 1,5,6
 48 9 48 9 58.5 17 c 128,-1,7
 69 25 69 25 84 48 c 0,8,9
 114 94 114 94 114 232 c 0,10,11
 114 367 114 367 84 414 c 0,12,13
 70 437 70 437 58.5 446.5 c 128,-1,14
 47 456 47 456 30 463 c 1,0,-1
EndSplineSet
Substitution2: "'sups' Superscript in Latin lookup 6 subtable" .notdef
Substitution2: "'sinf' Scientific Inferiors in Latin lookup 5 subtable" .notdef
Position2: "'case' Case-Sensitive Forms in Latin lookup 0 per glyph data 1" dx=0 dy=70 dh=0 dv=0
EndChar

StartChar: asterisk
Encoding: 42 42 13
Width: 536
GlyphClass: 2
Flags: W
LayerCount: 2
Fore
SplineSet
341 580 m 1,0,-1
 312 491 l 1,1,-1
 387 548 l 1,2,-1
 441 564 l 2,3,4
 449 566 449 566 452 566 c 0,5,6
 470 566 470 566 479 538 c 2,7,-1
 502 467 l 2,8,9
 506 455 506 455 506 446 c 0,10,11
 506 427 506 427 489 422 c 2,12,-1
 433 406 l 1,13,-1
 338 406 l 1,14,-1
 416 351 l 1,15,-1
 449 304 l 2,16,17
 455 294 455 294 455 285 c 128,-1,18
 455 276 455 276 435 260 c 1,19,-1
 375 216 l 2,20,21
 360 204 360 204 348 204 c 128,-1,22
 336 204 336 204 328 215 c 1,23,-1
 286 263 l 1,24,-1
 264 345 l 1,25,-1
 238 262 l 1,26,-1
 204 216 l 2,27,28
 196 205 196 205 184.5 205 c 128,-1,29
 173 205 173 205 158 216 c 2,30,-1
 97 260 l 2,31,32
 76 275 76 275 76 285.5 c 128,-1,33
 76 296 76 296 82 304 c 2,34,-1
 117 351 l 1,35,-1
 190 404 l 1,36,-1
 99 404 l 1,37,-1
 44 422 l 2,38,39
 26 427 26 427 26 446 c 0,40,41
 26 455 26 455 30 466 c 2,42,-1
 53 538 l 2,43,44
 63 567 63 567 80 567 c 0,45,46
 84 567 84 567 90 565 c 2,47,-1
 146 547 l 1,48,-1
 220 492 l 1,49,-1
 191 580 l 1,50,-1
 191 638 l 2,51,52
 191 665 191 665 228 665 c 2,53,-1
 304 665 l 2,54,55
 341 665 341 665 341 638 c 2,56,-1
 341 580 l 1,0,-1
EndSplineSet
EndChar

StartChar: plus
Encoding: 43 43 14
Width: 600
GlyphClass: 2
Flags: W
LayerCount: 2
Fore
SplineSet
72 240 m 1,0,-1
 72 384 l 1,1,-1
 227 384 l 1,2,-1
 227 539 l 1,3,-1
 371 539 l 1,4,-1
 371 384 l 1,5,-1
 527 384 l 1,6,-1
 527 240 l 1,7,-1
 371 240 l 1,8,-1
 371 84 l 1,9,-1
 227 84 l 1,10,-1
 227 240 l 1,11,-1
 72 240 l 1,0,-1
EndSplineSet
EndChar

StartChar: comma
Encoding: 44 44 15
Width: 277
GlyphClass: 2
Flags: W
LayerCount: 2
Fore
SplineSet
247 99 m 2,0,-1
 247 87 l 1,1,2
 244 43 244 43 222 0 c 0,3,4
 215 -13 215 -13 214 -15 c 2,5,-1
 146 -151 l 1,6,-1
 57 -122 l 1,7,-1
 90 22 l 1,8,9
 55 28 55 28 42.5 45.5 c 128,-1,10
 30 63 30 63 30 110.5 c 128,-1,11
 30 158 30 158 52 182 c 128,-1,12
 74 206 74 206 138.5 206 c 128,-1,13
 203 206 203 206 225 182 c 128,-1,14
 247 158 247 158 247 99 c 2,0,-1
EndSplineSet
EndChar

StartChar: hyphen
Encoding: 45 45 16
Width: 350
GlyphClass: 2
Flags: W
LayerCount: 2
Fore
SplineSet
25 200 m 1,0,-1
 25 308 l 2,1,2
 25 335 25 335 41.5 342.5 c 128,-1,3
 58 350 58 350 94 350 c 2,4,-1
 325 350 l 1,5,-1
 325 242 l 2,6,7
 325 215 325 215 308.5 207.5 c 128,-1,8
 292 200 292 200 256 200 c 2,9,-1
 25 200 l 1,0,-1
EndSplineSet
Position2: "'case' Case-Sensitive Forms in Latin lookup 0 per glyph data 1" dx=0 dy=70 dh=0 dv=0
EndChar

StartChar: period
Encoding: 46 46 17
Width: 267
GlyphClass: 2
Flags: W
LayerCount: 2
Fore
SplineSet
30 99 m 128,-1,1
 30 158 30 158 52 182 c 128,-1,2
 74 206 74 206 138.5 206 c 128,-1,3
 203 206 203 206 225 182 c 128,-1,4
 247 158 247 158 247 99 c 128,-1,5
 247 40 247 40 225 17 c 128,-1,6
 203 -6 203 -6 138.5 -6 c 128,-1,7
 74 -6 74 -6 52 17 c 128,-1,0
 30 40 30 40 30 99 c 128,-1,1
EndSplineSet
EndChar

StartChar: slash
Encoding: 47 47 18
Width: 503
GlyphClass: 2
Flags: W
LayerCount: 2
Fore
SplineSet
503 665 m 1,0,-1
 114 -15 l 2,1,2
 109 -25 109 -25 105 -29 c 0,3,4
 94 -40 94 -40 71 -40 c 2,5,-1
 0 -40 l 1,6,-1
 389 640 l 2,7,8
 394 650 394 650 398 654 c 0,9,10
 409 665 409 665 432 665 c 2,11,-1
 503 665 l 1,0,-1
EndSplineSet
EndChar

StartChar: zero
Encoding: 48 48 19
Width: 600
GlyphClass: 2
Flags: W
LayerCount: 2
Fore
SplineSet
44 169 m 128,-1,1
 33 226 33 226 33 312.5 c 128,-1,2
 33 399 33 399 44 456 c 128,-1,3
 55 513 55 513 83.5 556.5 c 128,-1,4
 112 600 112 600 165.5 620 c 128,-1,5
 219 640 219 640 301 640 c 128,-1,6
 383 640 383 640 436 620 c 128,-1,7
 489 600 489 600 518 556.5 c 128,-1,8
 547 513 547 513 557.5 456 c 128,-1,9
 568 399 568 399 568 312 c 128,-1,10
 568 225 568 225 557.5 168.5 c 128,-1,11
 547 112 547 112 518 68.5 c 128,-1,12
 489 25 489 25 436 5 c 128,-1,13
 383 -15 383 -15 301 -15 c 128,-1,14
 219 -15 219 -15 165.5 5 c 128,-1,15
 112 25 112 25 83.5 68.5 c 128,-1,0
 55 112 55 112 44 169 c 128,-1,1
239 426 m 2,16,-1
 239 146 l 1,17,-1
 281 146 l 2,18,19
 326 146 326 146 344 155.5 c 128,-1,20
 362 165 362 165 362 199 c 2,21,-1
 362 479 l 1,22,-1
 315 479 l 2,23,24
 271 479 271 479 255 470 c 128,-1,25
 239 461 239 461 239 426 c 2,16,-1
EndSplineSet
Substitution2: "'sups' Superscript in Latin lookup 6 subtable" .notdef
Substitution2: "'sinf' Scientific Inferiors in Latin lookup 5 subtable" .notdef
Substitution2: "'onum' Oldstyle Figures in Latin lookup 4 subtable" .notdef
EndChar

StartChar: one
Encoding: 49 49 20
Width: 600
GlyphClass: 2
Flags: W
LayerCount: 2
Fore
SplineSet
566 0 m 1,0,-1
 66 0 l 1,1,-1
 66 160 l 1,2,-1
 244 160 l 1,3,-1
 244 425 l 1,4,-1
 66 413 l 1,5,-1
 66 573 l 1,6,-1
 296 625 l 1,7,-1
 454 625 l 1,8,-1
 454 160 l 1,9,-1
 566 160 l 1,10,-1
 566 0 l 1,0,-1
EndSplineSet
Substitution2: "'sups' Superscript in Latin lookup 6 subtable" onesuperior
Substitution2: "'sinf' Scientific Inferiors in Latin lookup 5 subtable" .notdef
Substitution2: "'onum' Oldstyle Figures in Latin lookup 4 subtable" .notdef
EndChar

StartChar: two
Encoding: 50 50 21
Width: 600
GlyphClass: 2
Flags: W
LayerCount: 2
Fore
SplineSet
75 453 m 1,0,-1
 49 602 l 1,1,2
 175 640 175 640 300 640 c 0,3,4
 350 640 350 640 383.5 637 c 128,-1,5
 417 634 417 634 453 622 c 128,-1,6
 489 610 489 610 510 589 c 0,7,8
 558 541 558 541 558 442 c 128,-1,9
 558 343 558 343 502 296 c 128,-1,10
 446 249 446 249 266 188 c 1,11,-1
 266 160 l 1,12,-1
 548 160 l 1,13,-1
 548 0 l 1,14,-1
 35 0 l 1,15,-1
 35 125 l 2,16,17
 35 181 35 181 56 232 c 0,18,19
 69 261 69 261 119 302 c 0,20,21
 146 325 146 325 191.5 346 c 128,-1,22
 237 367 237 367 277.5 385.5 c 128,-1,23
 318 404 318 404 343 416 c 1,24,-1
 343 470 l 1,25,26
 298 475 298 475 260 475 c 0,27,28
 168 475 168 475 75 453 c 1,0,-1
EndSplineSet
Substitution2: "'sups' Superscript in Latin lookup 6 subtable" twosuperior
Substitution2: "'sinf' Scientific Inferiors in Latin lookup 5 subtable" .notdef
Substitution2: "'onum' Oldstyle Figures in Latin lookup 4 subtable" .notdef
EndChar

StartChar: three
Encoding: 51 51 22
Width: 600
GlyphClass: 2
Flags: W
LayerCount: 2
Fore
SplineSet
349 405 m 1,0,-1
 349 470 l 1,1,2
 319 475 319 475 252 475 c 128,-1,3
 185 475 185 475 85 454 c 1,4,-1
 59 602 l 1,5,6
 181 640 181 640 295 640 c 0,7,8
 393 640 393 640 437 628 c 128,-1,9
 481 616 481 616 502 599 c 0,10,11
 548 560 548 560 548 481 c 0,12,13
 548 381 548 381 465 337 c 1,14,-1
 465 332 l 1,15,16
 564 291 564 291 564 183 c 0,17,18
 564 130 564 130 547.5 92.5 c 128,-1,19
 531 55 531 55 506 34.5 c 128,-1,20
 481 14 481 14 440 2 c 0,21,22
 379 -15 379 -15 268.5 -15 c 128,-1,23
 158 -15 158 -15 47 11 c 1,24,-1
 75 176 l 1,25,26
 170 153 170 153 236 153 c 128,-1,27
 302 153 302 153 349 159 c 1,28,-1
 349 223 l 1,29,-1
 177 240 l 1,30,-1
 177 385 l 1,31,-1
 349 405 l 1,0,-1
EndSplineSet
Substitution2: "'sups' Superscript in Latin lookup 6 subtable" threesuperior
Substitution2: "'sinf' Scientific Inferiors in Latin lookup 5 subtable" .notdef
Substitution2: "'onum' Oldstyle Figures in Latin lookup 4 subtable" .notdef
EndChar

StartChar: four
Encoding: 52 52 23
Width: 600
GlyphClass: 2
Flags: W
LayerCount: 2
Fore
SplineSet
324 0 m 1,0,-1
 324 100 l 1,1,-1
 16 100 l 1,2,-1
 16 225 l 1,3,-1
 170 625 l 1,4,-1
 524 625 l 1,5,-1
 524 272 l 1,6,-1
 589 272 l 1,7,-1
 589 100 l 1,8,-1
 524 100 l 1,9,-1
 524 0 l 1,10,-1
 324 0 l 1,0,-1
314 475 m 1,11,-1
 225 272 l 1,12,-1
 324 272 l 1,13,-1
 324 475 l 1,14,-1
 314 475 l 1,11,-1
EndSplineSet
Substitution2: "'sups' Superscript in Latin lookup 6 subtable" .notdef
Substitution2: "'sinf' Scientific Inferiors in Latin lookup 5 subtable" .notdef
Substitution2: "'onum' Oldstyle Figures in Latin lookup 4 subtable" .notdef
EndChar

StartChar: five
Encoding: 53 53 24
Width: 600
GlyphClass: 2
Flags: W
LayerCount: 2
Fore
SplineSet
42 11 m 1,0,-1
 70 176 l 1,1,2
 165 153 165 153 236.5 153 c 128,-1,3
 308 153 308 153 354 159 c 1,4,-1
 354 209 l 1,5,-1
 279 217 l 2,6,7
 155 230 155 230 110.5 259.5 c 128,-1,8
 66 289 66 289 66 365 c 0,9,10
 66 376 66 376 76 625 c 1,11,-1
 531 625 l 1,12,-1
 516 453 l 1,13,-1
 279 467 l 1,14,-1
 279 416 l 1,15,-1
 338 409 l 2,16,17
 469 393 469 393 519 344.5 c 128,-1,18
 569 296 569 296 569 209 c 0,19,20
 569 146 569 146 552 102.5 c 128,-1,21
 535 59 535 59 511.5 36.5 c 128,-1,22
 488 14 488 14 445 2 c 128,-1,23
 402 -10 402 -10 369.5 -12.5 c 128,-1,24
 337 -15 337 -15 283 -15 c 0,25,26
 153 -15 153 -15 42 11 c 1,0,-1
EndSplineSet
Substitution2: "'sups' Superscript in Latin lookup 6 subtable" .notdef
Substitution2: "'sinf' Scientific Inferiors in Latin lookup 5 subtable" .notdef
Substitution2: "'onum' Oldstyle Figures in Latin lookup 4 subtable" .notdef
EndChar

StartChar: six
Encoding: 54 54 25
Width: 600
GlyphClass: 2
Flags: W
LayerCount: 2
Fore
SplineSet
350 178 m 2,0,-1
 350 257 l 1,1,-1
 309 257 l 2,2,3
 276 257 276 257 263 249.5 c 128,-1,4
 250 242 250 242 250 215 c 2,5,-1
 250 136 l 1,6,-1
 291 136 l 2,7,8
 324 136 324 136 337 143.5 c 128,-1,9
 350 151 350 151 350 178 c 2,0,-1
565 200 m 128,-1,11
 565 134 565 134 545 89.5 c 128,-1,12
 525 45 525 45 486 23 c 128,-1,13
 447 1 447 1 403.5 -7 c 128,-1,14
 360 -15 360 -15 300 -15 c 0,15,16
 149 -15 149 -15 92 63 c 128,-1,17
 35 141 35 141 35 312 c 0,18,19
 35 399 35 399 48 456 c 128,-1,20
 61 513 61 513 95 556 c 0,21,22
 160 640 160 640 349 640 c 0,23,24
 387 640 387 640 449.5 631.5 c 128,-1,25
 512 623 512 623 542 614 c 1,26,-1
 512 461 l 1,27,28
 431 475 431 475 357.5 475 c 128,-1,29
 284 475 284 475 250 466 c 1,30,-1
 250 415 l 1,31,-1
 300 415 l 2,32,33
 360 415 360 415 403.5 407 c 128,-1,34
 447 399 447 399 486 377 c 128,-1,35
 525 355 525 355 545 310.5 c 128,-1,10
 565 266 565 266 565 200 c 128,-1,11
EndSplineSet
Substitution2: "'sups' Superscript in Latin lookup 6 subtable" .notdef
Substitution2: "'sinf' Scientific Inferiors in Latin lookup 5 subtable" .notdef
Substitution2: "'onum' Oldstyle Figures in Latin lookup 4 subtable" .notdef
EndChar

StartChar: seven
Encoding: 55 55 26
Width: 600
GlyphClass: 2
Flags: W
LayerCount: 2
Fore
SplineSet
554 500 m 1,0,-1
 361 0 l 1,1,-1
 135 0 l 1,2,-1
 314 451 l 1,3,-1
 74 448 l 1,4,-1
 59 625 l 1,5,-1
 554 625 l 1,6,-1
 554 500 l 1,0,-1
EndSplineSet
Substitution2: "'sups' Superscript in Latin lookup 6 subtable" .notdef
Substitution2: "'sinf' Scientific Inferiors in Latin lookup 5 subtable" .notdef
Substitution2: "'onum' Oldstyle Figures in Latin lookup 4 subtable" .notdef
EndChar

StartChar: eight
Encoding: 56 56 27
Width: 600
GlyphClass: 2
Flags: W
LayerCount: 2
Fore
SplineSet
300 640 m 128,-1,1
 368 640 368 640 420 624.5 c 128,-1,2
 472 609 472 609 508 567 c 128,-1,3
 544 525 544 525 544 459 c 0,4,5
 544 364 544 364 477 315 c 1,6,-1
 477 308 l 1,7,8
 515 290 515 290 540 252 c 128,-1,9
 565 214 565 214 565 171 c 0,10,11
 565 -15 565 -15 300 -15 c 128,-1,12
 35 -15 35 -15 35 171 c 0,13,14
 35 214 35 214 60 252 c 128,-1,15
 85 290 85 290 123 308 c 1,16,-1
 123 315 l 1,17,18
 56 362 56 362 56 459 c 0,19,20
 56 525 56 525 92 567 c 128,-1,21
 128 609 128 609 180 624.5 c 128,-1,0
 232 640 232 640 300 640 c 128,-1,1
350 201 m 1,22,-1
 281 234 l 2,23,24
 267 240 267 240 261 240 c 0,25,26
 250 240 250 240 250 223 c 2,27,-1
 250 136 l 1,28,-1
 291 136 l 2,29,30
 324 136 324 136 337 143.5 c 128,-1,31
 350 151 350 151 350 178 c 2,32,-1
 350 201 l 1,22,-1
250 423 m 1,33,-1
 315 389 l 2,34,35
 323 385 323 385 330 385 c 0,36,37
 350 385 350 385 350 403 c 2,38,-1
 350 484 l 1,39,-1
 309 484 l 2,40,41
 276 484 276 484 263 476.5 c 128,-1,42
 250 469 250 469 250 442 c 2,43,-1
 250 423 l 1,33,-1
EndSplineSet
Substitution2: "'sups' Superscript in Latin lookup 6 subtable" .notdef
Substitution2: "'sinf' Scientific Inferiors in Latin lookup 5 subtable" .notdef
Substitution2: "'onum' Oldstyle Figures in Latin lookup 4 subtable" .notdef
EndChar

StartChar: nine
Encoding: 57 57 28
Width: 600
GlyphClass: 2
Flags: W
LayerCount: 2
Fore
SplineSet
249 447 m 2,0,-1
 249 376 l 1,1,-1
 290 376 l 2,2,3
 323 376 323 376 336 383.5 c 128,-1,4
 349 391 349 391 349 418 c 2,5,-1
 349 489 l 1,6,-1
 308 489 l 2,7,8
 275 489 275 489 262 481.5 c 128,-1,9
 249 474 249 474 249 447 c 2,0,-1
349 217 m 1,10,-1
 299 218 l 2,11,12
 139 221 139 221 85 274 c 0,13,14
 34 323 34 323 34 425 c 0,15,16
 34 557 34 557 113 602 c 0,17,18
 152 624 152 624 195.5 632 c 128,-1,19
 239 640 239 640 299 640 c 0,20,21
 450 640 450 640 507 562 c 128,-1,22
 564 484 564 484 564 312.5 c 128,-1,23
 564 141 564 141 507 63 c 128,-1,24
 450 -15 450 -15 307 -15 c 128,-1,25
 164 -15 164 -15 53 11 c 1,26,-1
 81 176 l 1,27,28
 176 153 176 153 239 153 c 128,-1,29
 302 153 302 153 349 159 c 1,30,-1
 349 217 l 1,10,-1
EndSplineSet
Substitution2: "'sups' Superscript in Latin lookup 6 subtable" .notdef
Substitution2: "'sinf' Scientific Inferiors in Latin lookup 5 subtable" .notdef
Substitution2: "'onum' Oldstyle Figures in Latin lookup 4 subtable" .notdef
EndChar

StartChar: colon
Encoding: 58 58 29
Width: 277
GlyphClass: 2
Flags: W
LayerCount: 2
Fore
SplineSet
30 99 m 128,-1,1
 30 158 30 158 52 182 c 128,-1,2
 74 206 74 206 138.5 206 c 128,-1,3
 203 206 203 206 225 182 c 128,-1,4
 247 158 247 158 247 99 c 128,-1,5
 247 40 247 40 225 17 c 128,-1,6
 203 -6 203 -6 138.5 -6 c 128,-1,7
 74 -6 74 -6 52 17 c 128,-1,0
 30 40 30 40 30 99 c 128,-1,1
30 399 m 128,-1,9
 30 458 30 458 52 482 c 128,-1,10
 74 506 74 506 138.5 506 c 128,-1,11
 203 506 203 506 225 482 c 128,-1,12
 247 458 247 458 247 399 c 128,-1,13
 247 340 247 340 225 317 c 128,-1,14
 203 294 203 294 138.5 294 c 128,-1,15
 74 294 74 294 52 317 c 128,-1,8
 30 340 30 340 30 399 c 128,-1,9
EndSplineSet
EndChar

StartChar: semicolon
Encoding: 59 59 30
Width: 277
GlyphClass: 2
Flags: W
LayerCount: 2
Fore
SplineSet
247 99 m 2,0,-1
 247 87 l 1,1,2
 244 43 244 43 222 0 c 0,3,4
 215 -13 215 -13 214 -15 c 2,5,-1
 146 -151 l 1,6,-1
 57 -122 l 1,7,-1
 90 22 l 1,8,9
 55 28 55 28 42.5 45.5 c 128,-1,10
 30 63 30 63 30 110.5 c 128,-1,11
 30 158 30 158 52 182 c 128,-1,12
 74 206 74 206 138.5 206 c 128,-1,13
 203 206 203 206 225 182 c 128,-1,14
 247 158 247 158 247 99 c 2,0,-1
30 399 m 128,-1,16
 30 458 30 458 52 482 c 128,-1,17
 74 506 74 506 138.5 506 c 128,-1,18
 203 506 203 506 225 482 c 128,-1,19
 247 458 247 458 247 399 c 128,-1,20
 247 340 247 340 225 317 c 128,-1,21
 203 294 203 294 138.5 294 c 128,-1,22
 74 294 74 294 52 317 c 128,-1,15
 30 340 30 340 30 399 c 128,-1,16
EndSplineSet
EndChar

StartChar: less
Encoding: 60 60 31
Width: 600
GlyphClass: 2
Flags: W
LayerCount: 2
Fore
SplineSet
432 587 m 1,0,-1
 499 453 l 1,1,-1
 252 315 l 1,2,-1
 252 308 l 1,3,-1
 499 171 l 1,4,-1
 432 37 l 1,5,-1
 107 221 l 1,6,-1
 107 403 l 1,7,-1
 432 587 l 1,0,-1
EndSplineSet
EndChar

StartChar: equal
Encoding: 61 61 32
Width: 600
GlyphClass: 2
Flags: W
LayerCount: 2
Fore
SplineSet
72 121 m 1,0,-1
 72 265 l 1,1,-1
 527 265 l 1,2,-1
 527 121 l 1,3,-1
 72 121 l 1,0,-1
72 359 m 1,4,-1
 72 503 l 1,5,-1
 527 503 l 1,6,-1
 527 359 l 1,7,-1
 72 359 l 1,4,-1
EndSplineSet
EndChar

StartChar: greater
Encoding: 62 62 33
Width: 600
GlyphClass: 2
Flags: W
LayerCount: 2
Fore
SplineSet
174 37 m 1,0,-1
 107 171 l 1,1,-1
 354 308 l 1,2,-1
 354 315 l 1,3,-1
 107 453 l 1,4,-1
 174 587 l 1,5,-1
 499 403 l 1,6,-1
 499 221 l 1,7,-1
 174 37 l 1,0,-1
EndSplineSet
EndChar

StartChar: question
Encoding: 63 63 34
Width: 528
GlyphClass: 2
Flags: W
LayerCount: 2
Fore
SplineSet
318 302 m 1,0,-1
 301 175 l 1,1,-1
 131 175 l 1,2,-1
 116 363 l 1,3,4
 116 381 116 381 128 391.5 c 128,-1,5
 140 402 140 402 181 416 c 2,6,-1
 288 453 l 1,7,-1
 288 487 l 1,8,9
 262 489 262 489 228.5 489 c 128,-1,10
 195 489 195 489 140 482.5 c 128,-1,11
 85 476 85 476 64 469 c 1,12,-1
 40 612 l 1,13,14
 149 640 149 640 248 640 c 0,15,16
 394 640 394 640 442 600 c 1,17,18
 488 563 488 563 488 485 c 128,-1,19
 488 407 488 407 449.5 370.5 c 128,-1,20
 411 334 411 334 318 302 c 1,0,-1
105 70 m 128,-1,22
 105 113 105 113 128 131 c 128,-1,23
 151 149 151 149 217 149 c 128,-1,24
 283 149 283 149 305.5 131 c 128,-1,25
 328 113 328 113 328 70 c 128,-1,26
 328 27 328 27 305.5 10 c 128,-1,27
 283 -7 283 -7 216.5 -7 c 128,-1,28
 150 -7 150 -7 127.5 10 c 128,-1,21
 105 27 105 27 105 70 c 128,-1,22
EndSplineSet
Substitution2: "'smcp' Lowercase to Small Capitals in Latin lookup 3 subtable" .notdef
EndChar

StartChar: at
Encoding: 64 64 35
Width: 867
GlyphClass: 2
Flags: W
LayerCount: 2
Fore
SplineSet
537 187 m 2,0,-1
 537 131 l 1,1,-1
 548 131 l 2,2,3
 582 131 582 131 598.5 137.5 c 128,-1,4
 615 144 615 144 617 167 c 1,5,-1
 617 229 l 1,6,-1
 606 229 l 2,7,8
 570 229 570 229 553.5 221.5 c 128,-1,9
 537 214 537 214 537 187 c 2,0,-1
40 176 m 2,10,-1
 40 259 l 2,11,12
 40 481 40 481 210 557 c 0,13,14
 307 600 307 600 476 600 c 128,-1,15
 645 600 645 600 731 553 c 128,-1,16
 817 506 817 506 817 407 c 2,17,-1
 817 0 l 1,18,-1
 717 0 l 1,19,-1
 660 63 l 1,20,21
 600 -9 600 -9 484 -9 c 0,22,23
 331 -9 331 -9 331 159 c 0,24,25
 331 350 331 350 577 350 c 2,26,-1
 617 350 l 1,27,-1
 617 423 l 1,28,29
 565 433 565 433 498.5 433 c 128,-1,30
 432 433 432 433 406.5 431.5 c 128,-1,31
 381 430 381 430 349 422 c 128,-1,32
 317 414 317 414 299 399.5 c 128,-1,33
 281 385 281 385 268 357 c 128,-1,34
 255 329 255 329 255 290 c 2,35,-1
 255 93 l 2,36,37
 255 54 255 54 268 26 c 128,-1,38
 281 -2 281 -2 299 -16.5 c 128,-1,39
 317 -31 317 -31 349 -39 c 0,40,41
 393 -50 393 -50 472 -50 c 2,42,-1
 660 -50 l 1,43,-1
 660 -144 l 1,44,45
 555 -165 555 -165 469.5 -165 c 128,-1,46
 384 -165 384 -165 324 -155.5 c 128,-1,47
 264 -146 264 -146 210 -122 c 128,-1,48
 156 -98 156 -98 120 -60 c 0,49,50
 40 23 40 23 40 176 c 2,10,-1
EndSplineSet
EndChar

StartChar: A
Encoding: 65 65 36
Width: 609
GlyphClass: 2
Flags: W
LayerCount: 2
Fore
SplineSet
199 0 m 1,0,-1
 -12 0 l 1,1,-1
 150 625 l 1,2,-1
 459 625 l 1,3,-1
 621 0 l 1,4,-1
 410 0 l 1,5,-1
 387 99 l 1,6,-1
 222 99 l 1,7,-1
 199 0 l 1,0,-1
299 433 m 1,8,-1
 258 258 l 1,9,-1
 350 258 l 1,10,-1
 310 433 l 1,11,-1
 299 433 l 1,8,-1
EndSplineSet
EndChar

StartChar: B
Encoding: 66 66 37
Width: 592
GlyphClass: 2
Flags: W
LayerCount: 2
Fore
SplineSet
50 0 m 1,0,-1
 50 625 l 1,1,-1
 374 625 l 2,2,3
 464 625 464 625 502.5 590 c 128,-1,4
 541 555 541 555 541 488 c 128,-1,5
 541 421 541 421 516.5 384.5 c 128,-1,6
 492 348 492 348 451 337 c 1,7,-1
 451 331 l 1,8,9
 572 310 572 310 572 166 c 0,10,11
 572 91 572 91 532 45.5 c 128,-1,12
 492 0 492 0 409 0 c 2,13,-1
 50 0 l 1,0,-1
328 249 m 2,14,-1
 250 249 l 1,15,-1
 250 147 l 1,16,-1
 327 147 l 2,17,18
 369 147 369 147 369 198 c 128,-1,19
 369 249 369 249 328 249 c 2,14,-1
313 488 m 2,20,-1
 250 488 l 1,21,-1
 250 395 l 1,22,-1
 312 395 l 2,23,24
 350 395 350 395 350 441.5 c 128,-1,25
 350 488 350 488 313 488 c 2,20,-1
EndSplineSet
EndChar

StartChar: C
Encoding: 67 67 38
Width: 500
GlyphClass: 2
Flags: W
LayerCount: 2
Fore
SplineSet
465 179 m 1,0,-1
 480 11 l 1,1,2
 417 -15 417 -15 322 -15 c 128,-1,3
 227 -15 227 -15 169.5 5 c 128,-1,4
 112 25 112 25 79 68 c 128,-1,5
 46 111 46 111 33 169 c 128,-1,6
 20 227 20 227 20 312 c 128,-1,7
 20 397 20 397 33 455.5 c 128,-1,8
 46 514 46 514 79 557 c 0,9,10
 143 640 143 640 314 640 c 0,11,12
 352 640 352 640 403.5 632.5 c 128,-1,13
 455 625 455 625 480 614 c 1,14,-1
 450 461 l 1,15,16
 385 475 385 475 331 475 c 128,-1,17
 277 475 277 475 256 465 c 128,-1,18
 235 455 235 455 235 425 c 2,19,-1
 235 163 l 1,20,21
 274 155 274 155 314 155 c 0,22,23
 399 155 399 155 465 179 c 1,0,-1
EndSplineSet
EndChar

StartChar: D
Encoding: 68 68 39
Width: 645
GlyphClass: 2
Flags: W
LayerCount: 2
Fore
SplineSet
50 0 m 1,0,-1
 50 625 l 1,1,-1
 330 625 l 2,2,3
 499 625 499 625 562 553 c 128,-1,4
 625 481 625 481 625 312.5 c 128,-1,5
 625 144 625 144 562 72 c 128,-1,6
 499 0 499 0 330 0 c 2,7,-1
 50 0 l 1,0,-1
333 465 m 2,8,-1
 250 465 l 1,9,-1
 250 160 l 1,10,-1
 333 160 l 2,11,12
 374 160 374 160 392.5 169.5 c 128,-1,13
 411 179 411 179 411 213 c 2,14,-1
 411 412 l 2,15,16
 411 446 411 446 392.5 455.5 c 128,-1,17
 374 465 374 465 333 465 c 2,8,-1
EndSplineSet
Substitution2: "Single Substitution lookup 9 subtable" .notdef
EndChar

StartChar: E
Encoding: 69 69 40
Width: 530
GlyphClass: 2
Flags: W
LayerCount: 2
Fore
SplineSet
450 236 m 1,0,-1
 250 236 l 1,1,-1
 250 160 l 1,2,-1
 495 160 l 1,3,-1
 495 0 l 1,4,-1
 50 0 l 1,5,-1
 50 625 l 1,6,-1
 490 625 l 1,7,-1
 465 465 l 1,8,-1
 250 465 l 1,9,-1
 250 381 l 1,10,-1
 450 381 l 1,11,-1
 450 236 l 1,0,-1
EndSplineSet
EndChar

StartChar: F
Encoding: 70 70 41
Width: 470
GlyphClass: 2
Flags: W
LayerCount: 2
Fore
SplineSet
420 232 m 1,0,-1
 250 232 l 1,1,-1
 250 0 l 1,2,-1
 50 0 l 1,3,-1
 50 625 l 1,4,-1
 460 625 l 1,5,-1
 435 465 l 1,6,-1
 250 465 l 1,7,-1
 250 381 l 1,8,-1
 420 381 l 1,9,-1
 420 232 l 1,0,-1
EndSplineSet
EndChar

StartChar: G
Encoding: 71 71 42
Width: 600
GlyphClass: 2
Flags: W
LayerCount: 2
Fore
SplineSet
370 184 m 2,0,-1
 370 211 l 1,1,-1
 319 211 l 1,2,-1
 319 364 l 1,3,-1
 560 364 l 1,4,-1
 560 30 l 1,5,6
 441 -15 441 -15 314 -15 c 0,7,8
 143 -15 143 -15 79 68 c 0,9,10
 46 111 46 111 33 169 c 128,-1,11
 20 227 20 227 20 312.5 c 128,-1,12
 20 398 20 398 33.5 455.5 c 128,-1,13
 47 513 47 513 82 556 c 0,14,15
 148 640 148 640 337 640 c 0,16,17
 376 640 376 640 438.5 632 c 128,-1,18
 501 624 501 624 530 614 c 1,19,-1
 500 461 l 1,20,21
 419 475 419 475 353.5 475 c 128,-1,22
 288 475 288 475 261.5 465 c 128,-1,23
 235 455 235 455 235 425 c 2,24,-1
 235 142 l 1,25,-1
 301 142 l 2,26,27
 337 142 337 142 353.5 149.5 c 128,-1,28
 370 157 370 157 370 184 c 2,0,-1
EndSplineSet
EndChar

StartChar: H
Encoding: 72 72 43
Width: 650
GlyphClass: 2
Flags: W
LayerCount: 2
Fore
SplineSet
400 0 m 1,0,-1
 400 221 l 1,1,-1
 250 221 l 1,2,-1
 250 0 l 1,3,-1
 50 0 l 1,4,-1
 50 625 l 1,5,-1
 250 625 l 1,6,-1
 250 404 l 1,7,-1
 400 404 l 1,8,-1
 400 625 l 1,9,-1
 600 625 l 1,10,-1
 600 0 l 1,11,-1
 400 0 l 1,0,-1
EndSplineSet
EndChar

StartChar: I
Encoding: 73 73 44
Width: 300
GlyphClass: 2
Flags: W
LayerCount: 2
Fore
SplineSet
50 0 m 1,0,-1
 50 625 l 1,1,-1
 250 625 l 1,2,-1
 250 0 l 1,3,-1
 50 0 l 1,0,-1
EndSplineSet
EndChar

StartChar: J
Encoding: 74 74 45
Width: 366
GlyphClass: 2
Flags: W
LayerCount: 2
Fore
SplineSet
20 0 m 1,0,-1
 0 160 l 1,1,-1
 83 160 l 2,2,3
 114 160 114 160 122.5 168.5 c 128,-1,4
 131 177 131 177 131 190 c 2,5,-1
 131 465 l 1,6,-1
 48 465 l 1,7,-1
 48 625 l 1,8,-1
 331 625 l 1,9,-1
 331 165 l 2,10,11
 331 84 331 84 291 42 c 128,-1,12
 251 0 251 0 176 0 c 2,13,-1
 20 0 l 1,0,-1
EndSplineSet
EndChar

StartChar: K
Encoding: 75 75 46
Width: 593
GlyphClass: 2
Flags: W
LayerCount: 2
Fore
SplineSet
250 272 m 1,0,-1
 250 0 l 1,1,-1
 50 0 l 1,2,-1
 50 625 l 1,3,-1
 250 625 l 1,4,-1
 250 370 l 1,5,-1
 254 370 l 1,6,7
 256 400 256 400 264 418 c 2,8,-1
 362 625 l 1,9,-1
 578 625 l 1,10,-1
 428 318 l 1,11,-1
 583 0 l 1,12,-1
 367 0 l 1,13,-1
 264 224 l 2,14,15
 256 242 256 242 254 272 c 1,16,-1
 250 272 l 1,0,-1
EndSplineSet
EndChar

StartChar: L
Encoding: 76 76 47
Width: 455
GlyphClass: 2
Flags: W
LayerCount: 2
Fore
SplineSet
450 0 m 1,0,-1
 50 0 l 1,1,-1
 50 625 l 1,2,-1
 250 625 l 1,3,-1
 250 160 l 1,4,-1
 450 160 l 1,5,-1
 450 0 l 1,0,-1
EndSplineSet
EndChar

StartChar: M
Encoding: 77 77 48
Width: 811
GlyphClass: 2
Flags: W
LayerCount: 2
Fore
SplineSet
234 0 m 1,0,-1
 25 0 l 1,1,-1
 63 625 l 1,2,-1
 324 625 l 1,3,-1
 402 307 l 1,4,-1
 409 307 l 1,5,-1
 487 625 l 1,6,-1
 748 625 l 1,7,-1
 786 0 l 1,8,-1
 577 0 l 1,9,-1
 565 303 l 1,10,-1
 558 303 l 1,11,-1
 482 0 l 1,12,-1
 329 0 l 1,13,-1
 252 303 l 1,14,-1
 246 303 l 1,15,-1
 234 0 l 1,0,-1
EndSplineSet
EndChar

StartChar: N
Encoding: 78 78 49
Width: 655
GlyphClass: 2
Flags: W
LayerCount: 2
Fore
SplineSet
417 0 m 1,0,-1
 264 222 l 2,1,2
 256 233 256 233 254 270 c 1,3,-1
 250 270 l 1,4,-1
 250 0 l 1,5,-1
 50 0 l 1,6,-1
 50 625 l 1,7,-1
 238 625 l 1,8,-1
 391 403 l 2,9,10
 399 392 399 392 401 355 c 1,11,-1
 405 355 l 1,12,-1
 405 625 l 1,13,-1
 605 625 l 1,14,-1
 605 0 l 1,15,-1
 417 0 l 1,0,-1
EndSplineSet
Substitution2: "Single Substitution lookup 9 subtable" .notdef
EndChar

StartChar: O
Encoding: 79 79 50
Width: 630
GlyphClass: 2
Flags: W
LayerCount: 2
Fore
SplineSet
20 312 m 0,0,1
 20 483 20 483 84 561.5 c 128,-1,2
 148 640 148 640 315 640 c 128,-1,3
 482 640 482 640 546 561.5 c 128,-1,4
 610 483 610 483 610 312 c 0,5,6
 610 227 610 227 596.5 169 c 128,-1,7
 583 111 583 111 550 68 c 128,-1,8
 517 25 517 25 459 5 c 128,-1,9
 401 -15 401 -15 315 -15 c 128,-1,10
 229 -15 229 -15 171 5 c 128,-1,11
 113 25 113 25 80 68 c 128,-1,12
 47 111 47 111 33.5 169 c 128,-1,13
 20 227 20 227 20 312 c 0,0,1
235 416 m 2,14,-1
 235 156 l 1,15,-1
 318 156 l 2,16,17
 359 156 359 156 377.5 165.5 c 128,-1,18
 396 175 396 175 396 209 c 2,19,-1
 396 469 l 1,20,-1
 312 469 l 2,21,22
 272 469 272 469 253.5 459.5 c 128,-1,23
 235 450 235 450 235 416 c 2,14,-1
EndSplineSet
EndChar

StartChar: P
Encoding: 80 80 51
Width: 590
GlyphClass: 2
Flags: W
LayerCount: 2
Fore
SplineSet
380 151 m 2,0,-1
 250 151 l 1,1,-1
 250 0 l 1,2,-1
 50 0 l 1,3,-1
 50 625 l 1,4,-1
 365 625 l 2,5,6
 580 625 580 625 580 394 c 0,7,8
 580 267 580 267 524 206 c 0,9,10
 503 183 503 183 466 167 c 128,-1,11
 429 151 429 151 380 151 c 2,0,-1
250 465 m 1,12,-1
 250 311 l 1,13,-1
 296 311 l 2,14,15
 332 311 332 311 348.5 318.5 c 128,-1,16
 365 326 365 326 365 353 c 2,17,-1
 365 423 l 2,18,19
 365 450 365 450 348.5 457.5 c 128,-1,20
 332 465 332 465 296 465 c 2,21,-1
 250 465 l 1,12,-1
EndSplineSet
EndChar

StartChar: Q
Encoding: 81 81 52
Width: 630
GlyphClass: 2
Flags: W
LayerCount: 2
Fore
SplineSet
385 23 m 1,0,-1
 300 0 l 1,1,2
 132 0 132 0 74 86 c 0,3,4
 44 129 44 129 32 182.5 c 128,-1,5
 20 236 20 236 20 312 c 0,6,7
 20 483 20 483 84 561.5 c 128,-1,8
 148 640 148 640 314 640 c 128,-1,9
 480 640 480 640 545 561 c 128,-1,10
 610 482 610 482 610 312 c 0,11,12
 610 185 610 185 557 107 c 1,13,-1
 629 65 l 1,14,-1
 577 -50 l 1,15,-1
 385 -15 l 1,16,-1
 385 23 l 1,0,-1
235 156 m 1,17,-1
 318 156 l 2,18,19
 359 156 359 156 377.5 165.5 c 128,-1,20
 396 175 396 175 396 209 c 2,21,-1
 396 469 l 1,22,-1
 312 469 l 2,23,24
 272 469 272 469 253.5 459.5 c 128,-1,25
 235 450 235 450 235 416 c 2,26,-1
 235 156 l 1,17,-1
EndSplineSet
EndChar

StartChar: R
Encoding: 82 82 53
Width: 615
GlyphClass: 2
Flags: W
LayerCount: 2
Fore
SplineSet
595 0 m 1,0,-1
 375 0 l 1,1,-1
 293 186 l 1,2,-1
 250 186 l 1,3,-1
 250 0 l 1,4,-1
 50 0 l 1,5,-1
 50 625 l 1,6,-1
 365 625 l 2,7,8
 580 625 580 625 580 406 c 0,9,10
 580 256 580 256 487 208 c 1,11,-1
 595 0 l 1,0,-1
250 465 m 1,12,-1
 250 340 l 1,13,-1
 296 340 l 2,14,15
 332 340 332 340 348.5 347.5 c 128,-1,16
 365 355 365 355 365 382 c 2,17,-1
 365 423 l 2,18,19
 365 450 365 450 348.5 457.5 c 128,-1,20
 332 465 332 465 296 465 c 2,21,-1
 250 465 l 1,12,-1
EndSplineSet
Substitution2: "Single Substitution lookup 9 subtable" .notdef
EndChar

StartChar: S
Encoding: 83 83 54
Width: 577
GlyphClass: 2
Flags: W
LayerCount: 2
Fore
SplineSet
25 11 m 1,0,-1
 53 176 l 1,1,2
 145 153 145 153 218.5 153 c 128,-1,3
 292 153 292 153 337 159 c 1,4,-1
 337 209 l 1,5,-1
 247 217 l 2,6,7
 125 228 125 228 79.5 275.5 c 128,-1,8
 34 323 34 323 34 416 c 0,9,10
 34 544 34 544 89.5 592 c 128,-1,11
 145 640 145 640 278 640 c 128,-1,12
 411 640 411 640 518 615 c 1,13,-1
 493 455 l 1,14,15
 400 470 400 470 344 470 c 128,-1,16
 288 470 288 470 249 465 c 1,17,-1
 249 416 l 1,18,-1
 321 409 l 2,19,20
 452 396 452 396 502 346.5 c 128,-1,21
 552 297 552 297 552 209 c 0,22,23
 552 146 552 146 535 102.5 c 128,-1,24
 518 59 518 59 494.5 36.5 c 128,-1,25
 471 14 471 14 428 2 c 128,-1,26
 385 -10 385 -10 352.5 -12.5 c 128,-1,27
 320 -15 320 -15 266 -15 c 0,28,29
 136 -15 136 -15 25 11 c 1,0,-1
EndSplineSet
Substitution2: "Single Substitution lookup 9 subtable" .notdef
EndChar

StartChar: T
Encoding: 84 84 55
Width: 500
GlyphClass: 2
Flags: W
LayerCount: 2
Fore
SplineSet
495 465 m 1,0,-1
 350 465 l 1,1,-1
 350 0 l 1,2,-1
 150 0 l 1,3,-1
 150 465 l 1,4,-1
 5 465 l 1,5,-1
 5 625 l 1,6,-1
 495 625 l 1,7,-1
 495 465 l 1,0,-1
EndSplineSet
Substitution2: "Single Substitution lookup 9 subtable" .notdef
EndChar

StartChar: U
Encoding: 85 85 56
Width: 607
GlyphClass: 2
Flags: W
LayerCount: 2
Fore
SplineSet
235 625 m 1,0,-1
 235 156 l 1,1,-1
 306 156 l 2,2,3
 344 156 344 156 358 165.5 c 128,-1,4
 372 175 372 175 372 209 c 2,5,-1
 372 625 l 1,6,-1
 572 625 l 1,7,-1
 572 274 l 2,8,9
 572 189 572 189 561 137 c 128,-1,10
 550 85 550 85 520 49 c 128,-1,11
 490 13 490 13 438 -1 c 128,-1,12
 386 -15 386 -15 303 -15 c 128,-1,13
 220 -15 220 -15 168.5 -1 c 128,-1,14
 117 13 117 13 87 49 c 128,-1,15
 57 85 57 85 46 137 c 128,-1,16
 35 189 35 189 35 274 c 2,17,-1
 35 625 l 1,18,-1
 235 625 l 1,0,-1
EndSplineSet
EndChar

StartChar: V
Encoding: 86 86 57
Width: 602
GlyphClass: 2
Flags: W
LayerCount: 2
Fore
SplineSet
391 625 m 1,0,-1
 602 625 l 1,1,-1
 447 0 l 1,2,-1
 155 0 l 1,3,-1
 0 625 l 1,4,-1
 211 625 l 1,5,-1
 296 228 l 1,6,-1
 305 228 l 1,7,-1
 391 625 l 1,0,-1
EndSplineSet
EndChar

StartChar: W
Encoding: 87 87 58
Width: 821
GlyphClass: 2
Flags: W
LayerCount: 2
Fore
SplineSet
612 625 m 1,0,-1
 821 625 l 1,1,-1
 723 0 l 1,2,-1
 462 0 l 1,3,-1
 416 230 l 1,4,-1
 404 230 l 1,5,-1
 359 0 l 1,6,-1
 98 0 l 1,7,-1
 0 625 l 1,8,-1
 209 625 l 1,9,-1
 256 276 l 1,10,-1
 262 276 l 1,11,-1
 334 625 l 1,12,-1
 487 625 l 1,13,-1
 558 276 l 1,14,-1
 564 276 l 1,15,-1
 612 625 l 1,0,-1
EndSplineSet
EndChar

StartChar: X
Encoding: 88 88 59
Width: 592
GlyphClass: 2
Flags: W
LayerCount: 2
Fore
SplineSet
227 625 m 1,0,-1
 296 458 l 1,1,-1
 306 458 l 1,2,-1
 375 625 l 1,3,-1
 592 625 l 1,4,-1
 453 323 l 1,5,-1
 592 0 l 1,6,-1
 370 0 l 1,7,-1
 295 180 l 1,8,-1
 286 180 l 1,9,-1
 212 0 l 1,10,-1
 0 0 l 1,11,-1
 136 317 l 1,12,-1
 0 625 l 1,13,-1
 227 625 l 1,0,-1
EndSplineSet
EndChar

StartChar: Y
Encoding: 89 89 60
Width: 560
GlyphClass: 2
Flags: W
LayerCount: 2
Fore
SplineSet
221 625 m 1,0,-1
 276 405 l 1,1,-1
 283 405 l 1,2,-1
 339 625 l 1,3,-1
 560 625 l 1,4,-1
 380 170 l 1,5,-1
 380 0 l 1,6,-1
 180 0 l 1,7,-1
 180 170 l 1,8,-1
 0 625 l 1,9,-1
 221 625 l 1,0,-1
EndSplineSet
EndChar

StartChar: Z
Encoding: 90 90 61
Width: 589
GlyphClass: 2
Flags: W
LayerCount: 2
Fore
SplineSet
564 0 m 1,0,-1
 25 0 l 1,1,-1
 25 125 l 1,2,-1
 281 459 l 1,3,-1
 278 465 l 1,4,-1
 68 465 l 1,5,-1
 50 625 l 1,6,-1
 560 625 l 1,7,-1
 560 500 l 1,8,-1
 307 166 l 1,9,-1
 310 160 l 1,10,-1
 564 160 l 1,11,-1
 564 0 l 1,0,-1
EndSplineSet
EndChar

StartChar: bracketleft
Encoding: 91 91 62
Width: 339
GlyphClass: 2
Flags: W
LayerCount: 2
Fore
SplineSet
50 -41 m 2,0,-1
 50 505 l 2,1,2
 50 555 50 555 86 577 c 0,3,4
 125 600 125 600 168 604 c 0,5,6
 231 610 231 610 300 610 c 1,7,-1
 309 463 l 1,8,9
 306 463 306 463 226 456 c 1,10,-1
 226 8 l 1,11,-1
 309 1 l 1,12,-1
 300 -146 l 1,13,14
 169 -146 169 -146 126 -131 c 0,15,16
 73 -113 73 -113 59 -84 c 0,17,18
 50 -65 50 -65 50 -41 c 2,0,-1
EndSplineSet
Position2: "'case' Case-Sensitive Forms in Latin lookup 0 per glyph data 1" dx=0 dy=70 dh=0 dv=0
EndChar

StartChar: backslash
Encoding: 92 92 63
Width: 503
GlyphClass: 2
Flags: W
LayerCount: 2
Fore
SplineSet
389 -15 m 2,0,-1
 0 665 l 1,1,-1
 71 665 l 2,2,3
 90 665 90 665 98 659.5 c 128,-1,4
 106 654 106 654 114 640 c 2,5,-1
 503 -40 l 1,6,-1
 432 -40 l 2,7,8
 413 -40 413 -40 405 -34.5 c 128,-1,9
 397 -29 397 -29 389 -15 c 2,0,-1
EndSplineSet
EndChar

StartChar: bracketright
Encoding: 93 93 64
Width: 339
GlyphClass: 2
Flags: W
LayerCount: 2
Fore
SplineSet
289 505 m 2,0,-1
 289 -41 l 2,1,2
 289 -91 289 -91 252 -113 c 0,3,4
 214 -136 214 -136 171 -140 c 0,5,6
 108 -146 108 -146 39 -146 c 1,7,-1
 30 1 l 1,8,-1
 113 8 l 1,9,-1
 113 456 l 1,10,11
 33 463 33 463 30 463 c 1,12,-1
 39 610 l 1,13,14
 170 610 170 610 214 595 c 0,15,16
 266 577 266 577 280 548 c 0,17,18
 289 529 289 529 289 505 c 2,0,-1
EndSplineSet
Position2: "'case' Case-Sensitive Forms in Latin lookup 0 per glyph data 1" dx=0 dy=70 dh=0 dv=0
EndChar

StartChar: asciicircum
Encoding: 94 94 65
Width: 600
GlyphClass: 2
Flags: W
LayerCount: 2
Fore
SplineSet
548 262 m 1,0,-1
 414 218 l 1,1,-1
 306 442 l 1,2,-1
 300 442 l 1,3,-1
 192 218 l 1,4,-1
 58 262 l 1,5,-1
 212 587 l 1,6,-1
 394 587 l 1,7,-1
 548 262 l 1,0,-1
EndSplineSet
EndChar

StartChar: underscore
Encoding: 95 95 66
Width: 595
GlyphClass: 2
Flags: W
LayerCount: 2
Fore
SplineSet
25 -135 m 1,0,-1
 25 -27 l 2,1,2
 25 0 25 0 41.5 7.5 c 128,-1,3
 58 15 58 15 94 15 c 2,4,-1
 570 15 l 1,5,-1
 570 -93 l 2,6,7
 570 -120 570 -120 553.5 -127.5 c 128,-1,8
 537 -135 537 -135 501 -135 c 2,9,-1
 25 -135 l 1,0,-1
EndSplineSet
EndChar

StartChar: grave
Encoding: 96 96 67
Width: 429
GlyphClass: 2
Flags: W
LayerCount: 2
Fore
SplineSet
288 539 m 1,0,-1
 114 574 l 2,1,2
 98 577 98 577 88 586 c 2,3,-1
 43 625 l 1,4,5
 39 631 39 631 39 637.5 c 128,-1,6
 39 644 39 644 48 654 c 2,7,-1
 111 728 l 2,8,9
 120 739 120 739 127 739 c 128,-1,10
 134 739 134 739 140 735 c 2,11,-1
 329 596 l 1,12,-1
 288 539 l 1,0,-1
EndSplineSet
Substitution2: "'smcp' Lowercase to Small Capitals in Latin lookup 3 subtable" .notdef
EndChar

StartChar: a
Encoding: 97 97 68
Width: 567
GlyphClass: 2
Flags: W
LayerCount: 2
Fore
SplineSet
287 515 m 0,0,1
 527 515 527 515 527 350 c 2,2,-1
 527 0 l 1,3,-1
 427 0 l 1,4,-1
 370 57 l 1,5,6
 341 23 341 23 291 4 c 128,-1,7
 241 -15 241 -15 196.5 -15 c 128,-1,8
 152 -15 152 -15 125 -8 c 128,-1,9
 98 -1 98 -1 72 16 c 0,10,11
 15 52 15 52 15 150 c 0,12,13
 15 330 15 330 287 330 c 2,14,-1
 327 330 l 1,15,-1
 327 366 l 1,16,17
 295 368 295 368 274 368 c 0,18,19
 161 368 161 368 80 341 c 1,20,-1
 56 484 l 1,21,22
 156 515 156 515 287 515 c 0,0,1
217 172 m 2,23,-1
 217 131 l 1,24,-1
 258 131 l 2,25,26
 302 131 302 131 314.5 141 c 128,-1,27
 327 151 327 151 327 167 c 2,28,-1
 327 214 l 1,29,-1
 286 214 l 2,30,31
 250 214 250 214 233.5 206.5 c 128,-1,32
 217 199 217 199 217 172 c 2,23,-1
EndSplineSet
Substitution2: "Single Substitution lookup 9 subtable" ordfeminine
Substitution2: "'smcp' Lowercase to Small Capitals in Latin lookup 3 subtable" .notdef
EndChar

StartChar: b
Encoding: 98 98 69
Width: 595
GlyphClass: 2
Flags: W
LayerCount: 2
Fore
SplineSet
50 25 m 1,0,-1
 50 650 l 1,1,-1
 250 665 l 1,2,-1
 250 499 l 1,3,4
 288 515 288 515 349.5 515 c 128,-1,5
 411 515 411 515 455 492 c 128,-1,6
 499 469 499 469 522 429 c 0,7,8
 565 354 565 354 565 250 c 0,9,10
 565 109 565 109 500 47 c 128,-1,11
 435 -15 435 -15 303 -15 c 128,-1,12
 171 -15 171 -15 50 25 c 1,0,-1
250 332 m 1,13,-1
 250 131 l 1,14,-1
 281 131 l 2,15,16
 317 131 317 131 333.5 138.5 c 128,-1,17
 350 146 350 146 350 173 c 2,18,-1
 350 369 l 1,19,-1
 319 369 l 2,20,21
 297 369 297 369 284 367 c 128,-1,22
 271 365 271 365 261 356.5 c 128,-1,23
 251 348 251 348 250 332 c 1,13,-1
EndSplineSet
Substitution2: "'smcp' Lowercase to Small Capitals in Latin lookup 3 subtable" .notdef
EndChar

StartChar: c
Encoding: 99 99 70
Width: 459
GlyphClass: 2
Flags: W
LayerCount: 2
Fore
SplineSet
417 150 m 1,0,-1
 429 6 l 1,1,2
 377 -15 377 -15 295 -15 c 0,3,4
 155 -15 155 -15 92.5 50.5 c 128,-1,5
 30 116 30 116 30 250 c 128,-1,6
 30 384 30 384 92.5 449.5 c 128,-1,7
 155 515 155 515 295 515 c 0,8,9
 382 515 382 515 429 494 c 1,10,-1
 405 358 l 1,11,12
 352 369 352 369 321 369 c 0,13,14
 245 369 245 369 245 316 c 2,15,-1
 245 137 l 1,16,17
 274 131 274 131 319.5 131 c 128,-1,18
 365 131 365 131 417 150 c 1,0,-1
EndSplineSet
Substitution2: "'smcp' Lowercase to Small Capitals in Latin lookup 3 subtable" .notdef
EndChar

StartChar: d
Encoding: 100 100 71
Width: 595
GlyphClass: 2
Flags: W
LayerCount: 2
Fore
SplineSet
545 0 m 1,0,-1
 445 0 l 1,1,-1
 402 42 l 1,2,3
 358 -15 358 -15 245 -15 c 0,4,5
 184 -15 184 -15 140 8 c 128,-1,6
 96 31 96 31 73 71 c 0,7,8
 30 146 30 146 30 250 c 0,9,10
 30 377 30 377 86 442 c 0,11,12
 107 467 107 467 144 483.5 c 128,-1,13
 181 500 181 500 230 500 c 2,14,-1
 345 500 l 1,15,-1
 345 650 l 1,16,-1
 545 665 l 1,17,-1
 545 0 l 1,0,-1
245 327 m 2,18,-1
 245 131 l 1,19,-1
 276 131 l 2,20,21
 310 131 310 131 326.5 137.5 c 128,-1,22
 343 144 343 144 345 167 c 1,23,-1
 345 369 l 1,24,-1
 314 369 l 2,25,26
 278 369 278 369 261.5 361.5 c 128,-1,27
 245 354 245 354 245 327 c 2,18,-1
EndSplineSet
Substitution2: "Single Substitution lookup 9 subtable" .notdef
Substitution2: "'smcp' Lowercase to Small Capitals in Latin lookup 3 subtable" .notdef
EndChar

StartChar: e
Encoding: 101 101 72
Width: 565
GlyphClass: 2
Flags: W
LayerCount: 2
Fore
SplineSet
245 170 m 1,0,-1
 245 135 l 1,1,2
 275 132 275 132 304 132 c 0,3,4
 400 132 400 132 493 162 c 1,5,-1
 517 15 l 1,6,7
 405 -15 405 -15 295 -15 c 0,8,9
 155 -15 155 -15 92.5 50.5 c 128,-1,10
 30 116 30 116 30 250 c 128,-1,11
 30 384 30 384 92.5 449.5 c 128,-1,12
 155 515 155 515 294.5 515 c 128,-1,13
 434 515 434 515 487 477 c 128,-1,14
 540 439 540 439 540 335 c 0,15,16
 540 247 540 247 476.5 208.5 c 128,-1,17
 413 170 413 170 245 170 c 1,0,-1
245 327 m 2,18,-1
 245 286 l 1,19,-1
 286 286 l 2,20,21
 322 286 322 286 338.5 293.5 c 128,-1,22
 355 301 355 301 355 328 c 2,23,-1
 355 369 l 1,24,-1
 314 369 l 2,25,26
 278 369 278 369 261.5 361.5 c 128,-1,27
 245 354 245 354 245 327 c 2,18,-1
EndSplineSet
Substitution2: "'smcp' Lowercase to Small Capitals in Latin lookup 3 subtable" .notdef
EndChar

StartChar: f
Encoding: 102 102 73
Width: 358
GlyphClass: 2
Flags: W
LayerCount: 2
Fore
SplineSet
280 542 m 1,0,-1
 280 500 l 1,1,-1
 340 500 l 1,2,-1
 340 370 l 1,3,-1
 280 370 l 1,4,-1
 280 0 l 1,5,-1
 80 0 l 1,6,-1
 80 370 l 1,7,-1
 30 370 l 1,8,-1
 30 500 l 1,9,-1
 80 500 l 1,10,-1
 87 560 l 2,11,12
 101 675 101 675 263 675 c 0,13,14
 305 675 305 675 373 665 c 1,15,-1
 362 534 l 1,16,-1
 280 542 l 1,0,-1
EndSplineSet
Substitution2: "'smcp' Lowercase to Small Capitals in Latin lookup 3 subtable" .notdef
EndChar

StartChar: g
Encoding: 103 103 74
Width: 536
GlyphClass: 2
Flags: W
LayerCount: 2
Fore
SplineSet
23 -135 m 1,0,-1
 49 14 l 1,1,2
 134 -15 134 -15 248 -15 c 0,3,4
 282 -15 282 -15 296 -13 c 1,5,-1
 296 22 l 1,6,7
 207 22 207 22 179.5 29.5 c 128,-1,8
 152 37 152 37 143.5 44.5 c 128,-1,9
 135 52 135 52 133.5 57 c 128,-1,10
 132 62 132 62 132 71 c 1,11,-1
 162 157 l 1,12,13
 90 170 90 170 52.5 211 c 128,-1,14
 15 252 15 252 15 339.5 c 128,-1,15
 15 427 15 427 74 471 c 128,-1,16
 133 515 133 515 266 515 c 0,17,18
 314 515 314 515 351 509 c 1,19,-1
 438 576 l 1,20,-1
 543 475 l 1,21,-1
 486 408 l 1,22,23
 499 373 499 373 499 318 c 0,24,25
 499 239 499 239 459.5 200.5 c 128,-1,26
 420 162 420 162 319 154 c 1,27,-1
 315 130 l 1,28,29
 423 124 423 124 467.5 97.5 c 128,-1,30
 512 71 512 71 512 0 c 0,31,32
 512 -121 512 -121 395 -150 c 0,33,34
 337 -165 337 -165 238.5 -165 c 128,-1,35
 140 -165 140 -165 23 -135 c 1,0,-1
203 340 m 2,36,-1
 203 275 l 1,37,-1
 234 275 l 2,38,39
 270 275 270 275 286.5 282.5 c 128,-1,40
 303 290 303 290 303 317 c 2,41,-1
 303 382 l 1,42,-1
 272 382 l 2,43,44
 236 382 236 382 219.5 374.5 c 128,-1,45
 203 367 203 367 203 340 c 2,36,-1
EndSplineSet
Substitution2: "'smcp' Lowercase to Small Capitals in Latin lookup 3 subtable" .notdef
EndChar

StartChar: h
Encoding: 104 104 75
Width: 595
GlyphClass: 2
Flags: W
LayerCount: 2
Fore
SplineSet
250 308 m 2,0,-1
 250 0 l 1,1,-1
 50 0 l 1,2,-1
 50 650 l 1,3,-1
 250 665 l 1,4,-1
 250 482 l 1,5,6
 314 515 314 515 392 515 c 128,-1,7
 470 515 470 515 510 484.5 c 128,-1,8
 550 454 550 454 550 400 c 2,9,-1
 550 0 l 1,10,-1
 350 0 l 1,11,-1
 350 350 l 1,12,-1
 319 350 l 2,13,14
 283 350 283 350 266.5 342.5 c 128,-1,15
 250 335 250 335 250 308 c 2,0,-1
EndSplineSet
Substitution2: "'smcp' Lowercase to Small Capitals in Latin lookup 3 subtable" .notdef
EndChar

StartChar: i
Encoding: 105 105 76
Width: 300
GlyphClass: 2
Flags: W
LayerCount: 2
Fore
SplineSet
50 0 m 1,0,-1
 50 475 l 1,1,-1
 250 500 l 1,2,-1
 250 0 l 1,3,-1
 50 0 l 1,0,-1
39 594 m 128,-1,5
 39 639 39 639 61.5 657 c 128,-1,6
 84 675 84 675 150.5 675 c 128,-1,7
 217 675 217 675 239.5 657 c 128,-1,8
 262 639 262 639 262 594 c 128,-1,9
 262 549 262 549 239.5 532 c 128,-1,10
 217 515 217 515 150.5 515 c 128,-1,11
 84 515 84 515 61.5 532 c 128,-1,4
 39 549 39 549 39 594 c 128,-1,5
EndSplineSet
Substitution2: "'smcp' Lowercase to Small Capitals in Latin lookup 3 subtable" .notdef
EndChar

StartChar: j
Encoding: 106 106 77
Width: 300
GlyphClass: 2
Flags: W
LayerCount: 2
Fore
SplineSet
-50 -165 m 1,0,-1
 -50 -35 l 1,1,-1
 2 -25 l 2,2,3
 33 -19 33 -19 41.5 -8.5 c 128,-1,4
 50 2 50 2 50 15 c 2,5,-1
 50 475 l 1,6,-1
 250 500 l 1,7,-1
 250 0 l 2,8,9
 250 -81 250 -81 210 -123 c 128,-1,10
 170 -165 170 -165 95 -165 c 2,11,-1
 -50 -165 l 1,0,-1
39 594 m 128,-1,13
 39 639 39 639 61.5 657 c 128,-1,14
 84 675 84 675 150.5 675 c 128,-1,15
 217 675 217 675 239.5 657 c 128,-1,16
 262 639 262 639 262 594 c 128,-1,17
 262 549 262 549 239.5 532 c 128,-1,18
 217 515 217 515 150.5 515 c 128,-1,19
 84 515 84 515 61.5 532 c 128,-1,12
 39 549 39 549 39 594 c 128,-1,13
EndSplineSet
Substitution2: "'smcp' Lowercase to Small Capitals in Latin lookup 3 subtable" .notdef
EndChar

StartChar: k
Encoding: 107 107 78
Width: 560
GlyphClass: 2
Flags: W
LayerCount: 2
Fore
SplineSet
334 0 m 1,0,-1
 257 198 l 1,1,-1
 250 198 l 1,2,-1
 250 0 l 1,3,-1
 50 0 l 1,4,-1
 50 650 l 1,5,-1
 250 665 l 1,6,-1
 250 335 l 1,7,-1
 257 335 l 1,8,-1
 329 500 l 1,9,-1
 545 500 l 1,10,-1
 429 262 l 1,11,-1
 550 0 l 1,12,-1
 334 0 l 1,0,-1
EndSplineSet
Substitution2: "'smcp' Lowercase to Small Capitals in Latin lookup 3 subtable" .notdef
EndChar

StartChar: l
Encoding: 108 108 79
Width: 309
GlyphClass: 2
Flags: W
LayerCount: 2
Fore
SplineSet
250 665 m 1,0,-1
 250 143 l 1,1,2
 282 137 282 137 299 136 c 1,3,-1
 290 -11 l 1,4,5
 162 -11 162 -11 121 4 c 0,6,7
 70 23 70 23 58 52 c 0,8,9
 50 70 50 70 50 94 c 2,10,-1
 50 650 l 1,11,-1
 250 665 l 1,0,-1
EndSplineSet
Substitution2: "'smcp' Lowercase to Small Capitals in Latin lookup 3 subtable" .notdef
EndChar

StartChar: m
Encoding: 109 109 80
Width: 854
GlyphClass: 2
Flags: W
LayerCount: 2
Fore
SplineSet
330 350 m 1,0,-1
 316 350 l 2,1,2
 293 350 293 350 281.5 348 c 128,-1,3
 270 346 270 346 260 335.5 c 128,-1,4
 250 325 250 325 250 304 c 2,5,-1
 250 0 l 1,6,-1
 50 0 l 1,7,-1
 50 500 l 1,8,-1
 150 500 l 1,9,-1
 195 454 l 1,10,11
 256 515 256 515 355 515 c 128,-1,12
 454 515 454 515 498 474 c 1,13,14
 559 515 559 515 639.5 515 c 128,-1,15
 720 515 720 515 765 484.5 c 128,-1,16
 810 454 810 454 810 400 c 2,17,-1
 810 0 l 1,18,-1
 610 0 l 1,19,-1
 610 350 l 1,20,-1
 596 350 l 2,21,22
 575 350 575 350 563 348 c 128,-1,23
 551 346 551 346 541 337 c 128,-1,24
 531 328 531 328 530 310 c 1,25,-1
 530 0 l 1,26,-1
 330 0 l 1,27,-1
 330 350 l 1,0,-1
EndSplineSet
Substitution2: "'smcp' Lowercase to Small Capitals in Latin lookup 3 subtable" .notdef
EndChar

StartChar: n
Encoding: 110 110 81
Width: 595
GlyphClass: 2
Flags: W
LayerCount: 2
Fore
SplineSet
150 500 m 1,0,-1
 200 450 l 1,1,2
 293 515 293 515 400 515 c 0,3,4
 470 515 470 515 510 484.5 c 128,-1,5
 550 454 550 454 550 400 c 2,6,-1
 550 0 l 1,7,-1
 350 0 l 1,8,-1
 350 350 l 1,9,-1
 319 350 l 2,10,11
 285 350 285 350 267.5 342.5 c 128,-1,12
 250 335 250 335 250 312 c 2,13,-1
 250 0 l 1,14,-1
 50 0 l 1,15,-1
 50 500 l 1,16,-1
 150 500 l 1,0,-1
EndSplineSet
Substitution2: "Single Substitution lookup 9 subtable" .notdef
Substitution2: "'smcp' Lowercase to Small Capitals in Latin lookup 3 subtable" .notdef
EndChar

StartChar: o
Encoding: 111 111 82
Width: 590
GlyphClass: 2
Flags: W
LayerCount: 2
Fore
SplineSet
30 250 m 128,-1,1
 30 384 30 384 92.5 449.5 c 128,-1,2
 155 515 155 515 295 515 c 128,-1,3
 435 515 435 515 497.5 449.5 c 128,-1,4
 560 384 560 384 560 250 c 128,-1,5
 560 116 560 116 497.5 50.5 c 128,-1,6
 435 -15 435 -15 295 -15 c 128,-1,7
 155 -15 155 -15 92.5 50.5 c 128,-1,0
 30 116 30 116 30 250 c 128,-1,1
245 327 m 2,8,-1
 245 131 l 1,9,-1
 276 131 l 2,10,11
 312 131 312 131 328.5 138.5 c 128,-1,12
 345 146 345 146 345 173 c 2,13,-1
 345 369 l 1,14,-1
 314 369 l 2,15,16
 278 369 278 369 261.5 361.5 c 128,-1,17
 245 354 245 354 245 327 c 2,8,-1
EndSplineSet
Substitution2: "Single Substitution lookup 9 subtable" ordmasculine
Substitution2: "'smcp' Lowercase to Small Capitals in Latin lookup 3 subtable" .notdef
EndChar

StartChar: p
Encoding: 112 112 83
Width: 595
GlyphClass: 2
Flags: W
LayerCount: 2
Fore
SplineSet
50 500 m 1,0,-1
 150 500 l 1,1,-1
 187 450 l 1,2,3
 231 515 231 515 350 515 c 0,4,5
 411 515 411 515 455 492 c 128,-1,6
 499 469 499 469 522 429 c 0,7,8
 565 354 565 354 565 250 c 0,9,10
 565 123 565 123 510 58 c 0,11,12
 488 33 488 33 451 16.5 c 128,-1,13
 414 0 414 0 365 0 c 2,14,-1
 250 0 l 1,15,-1
 250 -150 l 1,16,-1
 50 -165 l 1,17,-1
 50 500 l 1,0,-1
250 332 m 1,18,-1
 250 131 l 1,19,-1
 281 131 l 2,20,21
 317 131 317 131 333.5 138.5 c 128,-1,22
 350 146 350 146 350 173 c 2,23,-1
 350 369 l 1,24,-1
 319 369 l 2,25,26
 297 369 297 369 284 367 c 128,-1,27
 271 365 271 365 261 356.5 c 128,-1,28
 251 348 251 348 250 332 c 1,18,-1
EndSplineSet
Substitution2: "'smcp' Lowercase to Small Capitals in Latin lookup 3 subtable" .notdef
EndChar

StartChar: q
Encoding: 113 113 84
Width: 595
GlyphClass: 2
Flags: W
LayerCount: 2
Fore
SplineSet
445 500 m 1,0,-1
 545 500 l 1,1,-1
 545 -151 l 1,2,-1
 345 -165 l 1,3,-1
 345 0 l 1,4,5
 306 -15 306 -15 245 -15 c 128,-1,6
 184 -15 184 -15 140 8.5 c 128,-1,7
 96 32 96 32 73 72 c 0,8,9
 30 148 30 148 30 259.5 c 128,-1,10
 30 371 30 371 86.5 443 c 128,-1,11
 143 515 143 515 265 515 c 0,12,13
 352 515 352 515 417 472 c 1,14,-1
 445 500 l 1,0,-1
245 327 m 2,15,-1
 245 131 l 1,16,-1
 276 131 l 2,17,18
 312 131 312 131 328.5 138.5 c 128,-1,19
 345 146 345 146 345 173 c 2,20,-1
 345 369 l 1,21,-1
 314 369 l 2,22,23
 278 369 278 369 261.5 361.5 c 128,-1,24
 245 354 245 354 245 327 c 2,15,-1
EndSplineSet
Substitution2: "'smcp' Lowercase to Small Capitals in Latin lookup 3 subtable" .notdef
EndChar

StartChar: r
Encoding: 114 114 85
Width: 375
GlyphClass: 2
Flags: W
LayerCount: 2
Fore
SplineSet
50 500 m 1,0,-1
 150 500 l 1,1,-1
 205 444 l 1,2,3
 264 498 264 498 353 515 c 1,4,-1
 365 326 l 1,5,6
 341 325 341 325 302.5 314 c 128,-1,7
 264 303 264 303 250 286 c 1,8,-1
 250 0 l 1,9,-1
 50 0 l 1,10,-1
 50 500 l 1,0,-1
EndSplineSet
Substitution2: "Single Substitution lookup 9 subtable" .notdef
Substitution2: "'smcp' Lowercase to Small Capitals in Latin lookup 3 subtable" .notdef
EndChar

StartChar: s
Encoding: 115 115 86
Width: 526
GlyphClass: 2
Flags: W
LayerCount: 2
Fore
SplineSet
274 515 m 128,-1,1
 386 515 386 515 480 484 c 1,2,-1
 457 348 l 1,3,4
 379 370 379 370 301 370 c 0,5,6
 277 370 277 370 233 366 c 1,7,-1
 233 334 l 1,8,9
 395 334 395 334 453 286 c 0,10,11
 482 262 482 262 494 233.5 c 128,-1,12
 506 205 506 205 506 164.5 c 128,-1,13
 506 124 506 124 496.5 92 c 128,-1,14
 487 60 487 60 467.5 41 c 128,-1,15
 448 22 448 22 427 10 c 128,-1,16
 406 -2 406 -2 372 -7 c 0,17,18
 319 -15 319 -15 249 -15 c 0,19,20
 125 -15 125 -15 25 14 c 1,21,-1
 50 156 l 1,22,23
 134 130 134 130 232 130 c 0,24,25
 277 130 277 130 314 134 c 1,26,-1
 314 166 l 1,27,28
 154 166 154 166 93.5 208 c 128,-1,29
 33 250 33 250 33 347.5 c 128,-1,30
 33 445 33 445 97.5 480 c 128,-1,0
 162 515 162 515 274 515 c 128,-1,1
EndSplineSet
Substitution2: "Single Substitution lookup 9 subtable" .notdef
Substitution2: "'smcp' Lowercase to Small Capitals in Latin lookup 3 subtable" .notdef
EndChar

StartChar: t
Encoding: 116 116 87
Width: 364
GlyphClass: 2
Flags: W
LayerCount: 2
Fore
SplineSet
20 371 m 1,0,-1
 20 500 l 1,1,-1
 70 500 l 1,2,-1
 70 580 l 1,3,-1
 270 630 l 1,4,-1
 270 500 l 1,5,-1
 339 500 l 1,6,-1
 339 371 l 1,7,-1
 270 371 l 1,8,-1
 270 143 l 1,9,10
 296 138 296 138 329 136 c 1,11,-1
 320 -11 l 1,12,13
 183 -11 183 -11 142 4 c 0,14,15
 91 22 91 22 78 52 c 0,16,17
 70 70 70 70 70 94 c 2,18,-1
 70 371 l 1,19,-1
 20 371 l 1,0,-1
EndSplineSet
Substitution2: "Single Substitution lookup 9 subtable" .notdef
Substitution2: "'smcp' Lowercase to Small Capitals in Latin lookup 3 subtable" .notdef
EndChar

StartChar: u
Encoding: 117 117 88
Width: 590
GlyphClass: 2
Flags: W
LayerCount: 2
Fore
SplineSet
240 500 m 1,0,-1
 240 131 l 1,1,-1
 271 131 l 2,2,3
 307 131 307 131 323.5 138.5 c 128,-1,4
 340 146 340 146 340 173 c 2,5,-1
 340 500 l 1,6,-1
 540 500 l 1,7,-1
 540 0 l 1,8,-1
 440 0 l 1,9,-1
 382 57 l 1,10,11
 322 -15 322 -15 211 -15 c 0,12,13
 122 -15 122 -15 81 23 c 128,-1,14
 40 61 40 61 40 150 c 2,15,-1
 40 500 l 1,16,-1
 240 500 l 1,0,-1
EndSplineSet
Substitution2: "'smcp' Lowercase to Small Capitals in Latin lookup 3 subtable" .notdef
EndChar

StartChar: v
Encoding: 118 118 89
Width: 520
GlyphClass: 2
Flags: W
LayerCount: 2
Fore
SplineSet
125 0 m 1,0,-1
 0 500 l 1,1,-1
 200 500 l 1,2,-1
 255 175 l 1,3,-1
 265 175 l 1,4,-1
 320 500 l 1,5,-1
 520 500 l 1,6,-1
 395 0 l 1,7,-1
 125 0 l 1,0,-1
EndSplineSet
Substitution2: "'smcp' Lowercase to Small Capitals in Latin lookup 3 subtable" .notdef
EndChar

StartChar: w
Encoding: 119 119 90
Width: 800
GlyphClass: 2
Flags: W
LayerCount: 2
Fore
SplineSet
114 0 m 1,0,-1
 14 500 l 1,1,-1
 210 500 l 1,2,-1
 251 203 l 1,3,-1
 262 203 l 1,4,-1
 325 500 l 1,5,-1
 475 500 l 1,6,-1
 531 203 l 1,7,-1
 542 203 l 1,8,-1
 590 500 l 1,9,-1
 786 500 l 1,10,-1
 686 0 l 1,11,-1
 440 0 l 1,12,-1
 401 215 l 1,13,-1
 393 215 l 1,14,-1
 350 0 l 1,15,-1
 114 0 l 1,0,-1
EndSplineSet
Substitution2: "'smcp' Lowercase to Small Capitals in Latin lookup 3 subtable" .notdef
EndChar

StartChar: x
Encoding: 120 120 91
Width: 540
GlyphClass: 2
Flags: W
LayerCount: 2
Fore
SplineSet
213 500 m 1,0,-1
 269 376 l 1,1,-1
 275 376 l 1,2,-1
 327 500 l 1,3,-1
 535 500 l 1,4,-1
 410 244 l 1,5,-1
 540 0 l 1,6,-1
 332 0 l 1,7,-1
 270 135 l 1,8,-1
 265 135 l 1,9,-1
 208 0 l 1,10,-1
 0 0 l 1,11,-1
 130 258 l 1,12,-1
 5 500 l 1,13,-1
 213 500 l 1,0,-1
EndSplineSet
Substitution2: "'smcp' Lowercase to Small Capitals in Latin lookup 3 subtable" .notdef
EndChar

StartChar: y
Encoding: 121 121 92
Width: 520
GlyphClass: 2
Flags: W
LayerCount: 2
Fore
SplineSet
112 52 m 1,0,-1
 0 500 l 1,1,-1
 200 500 l 1,2,-1
 255 175 l 1,3,-1
 265 175 l 1,4,-1
 320 500 l 1,5,-1
 520 500 l 1,6,-1
 395 0 l 1,7,8
 367 -98 367 -98 325 -131.5 c 128,-1,9
 283 -165 283 -165 204 -165 c 2,10,-1
 10 -165 l 1,11,-1
 10 -35 l 1,12,-1
 104 -17 l 1,13,14
 176 -1 176 -1 198 19 c 0,15,16
 210 30 210 30 218 46 c 1,17,-1
 217 52 l 1,18,-1
 112 52 l 1,0,-1
EndSplineSet
Substitution2: "'smcp' Lowercase to Small Capitals in Latin lookup 3 subtable" .notdef
EndChar

StartChar: z
Encoding: 122 122 93
Width: 530
GlyphClass: 2
Flags: W
LayerCount: 2
Fore
SplineSet
25 100 m 1,0,-1
 221 344 l 1,1,-1
 218 350 l 1,2,-1
 60 350 l 1,3,-1
 45 500 l 1,4,-1
 499 500 l 1,5,-1
 499 400 l 1,6,-1
 306 156 l 1,7,-1
 309 150 l 1,8,-1
 505 150 l 1,9,-1
 505 0 l 1,10,-1
 25 0 l 1,11,-1
 25 100 l 1,0,-1
EndSplineSet
Substitution2: "'smcp' Lowercase to Small Capitals in Latin lookup 3 subtable" .notdef
EndChar

StartChar: braceleft
Encoding: 123 123 94
Width: 339
GlyphClass: 2
Flags: W
LayerCount: 2
Fore
SplineSet
241 102 m 1,0,-1
 226 8 l 1,1,-1
 309 1 l 1,2,-1
 300 -146 l 1,3,4
 169 -146 169 -146 126 -131 c 0,5,6
 73 -113 73 -113 59 -84 c 0,7,8
 50 -65 50 -65 50 -41 c 1,9,-1
 65 159 l 1,10,-1
 0 175 l 1,11,-1
 0 287 l 1,12,-1
 65 303 l 1,13,-1
 50 505 l 1,14,15
 50 555 50 555 86 577 c 0,16,17
 125 600 125 600 168 604 c 0,18,19
 231 610 231 610 300 610 c 1,20,-1
 309 463 l 1,21,22
 306 463 306 463 226 456 c 1,23,-1
 241 360 l 1,24,25
 241 270 241 270 185 237 c 1,26,-1
 185 225 l 1,27,28
 241 192 241 192 241 102 c 1,0,-1
EndSplineSet
Position2: "'case' Case-Sensitive Forms in Latin lookup 0 per glyph data 1" dx=0 dy=70 dh=0 dv=0
EndChar

StartChar: bar
Encoding: 124 124 95
Width: 420
GlyphClass: 2
Flags: W
LayerCount: 2
Fore
SplineSet
150 -180 m 1,0,-1
 150 704 l 1,1,-1
 270 704 l 1,2,-1
 270 -180 l 1,3,-1
 150 -180 l 1,0,-1
EndSplineSet
Position2: "'case' Case-Sensitive Forms in Latin lookup 0 per glyph data 1" dx=0 dy=70 dh=0 dv=0
EndChar

StartChar: braceright
Encoding: 125 125 96
Width: 339
GlyphClass: 2
Flags: W
LayerCount: 2
Fore
SplineSet
113 8 m 1,0,-1
 98 102 l 1,1,2
 98 192 98 192 154 225 c 1,3,-1
 154 237 l 1,4,5
 98 270 98 270 98 360 c 1,6,-1
 113 456 l 1,7,8
 33 463 33 463 30 463 c 1,9,-1
 39 610 l 1,10,11
 170 610 170 610 214 595 c 0,12,13
 266 577 266 577 280 548 c 0,14,15
 289 529 289 529 289 505 c 1,16,-1
 274 303 l 1,17,-1
 339 287 l 1,18,-1
 339 175 l 1,19,-1
 274 159 l 1,20,-1
 289 -41 l 1,21,22
 289 -91 289 -91 252 -113 c 0,23,24
 214 -136 214 -136 171 -140 c 0,25,26
 108 -146 108 -146 39 -146 c 1,27,-1
 30 1 l 1,28,-1
 113 8 l 1,0,-1
EndSplineSet
Position2: "'case' Case-Sensitive Forms in Latin lookup 0 per glyph data 1" dx=0 dy=70 dh=0 dv=0
EndChar

StartChar: asciitilde
Encoding: 126 126 97
Width: 600
GlyphClass: 2
Flags: W
LayerCount: 2
Fore
SplineSet
509 237.5 m 128,-1,1
 462 203 462 203 410.5 203 c 128,-1,2
 359 203 359 203 297 235.5 c 128,-1,3
 235 268 235 268 213 268 c 128,-1,4
 191 268 191 268 169 251.5 c 128,-1,5
 147 235 147 235 118 202 c 1,6,-1
 12 293 l 1,7,8
 55 350 55 350 83 376 c 0,9,10
 133 423 133 423 190 423 c 0,11,12
 228 423 228 423 291.5 388.5 c 128,-1,13
 355 354 355 354 385 354 c 0,14,15
 433 354 433 354 481 420 c 1,16,-1
 588 330 l 1,17,0
 556 272 556 272 509 237.5 c 128,-1,1
EndSplineSet
EndChar

StartChar: exclamdown
Encoding: 161 161 98
Width: 330
GlyphClass: 2
Flags: W
LayerCount: 2
Fore
SplineSet
80 455 m 1,0,-1
 250 455 l 1,1,-1
 280 27 l 2,2,3
 282 0 282 0 243 0 c 2,4,-1
 87 0 l 2,5,6
 48 0 48 0 50 27 c 2,7,-1
 80 455 l 1,0,-1
53 555 m 128,-1,9
 53 598 53 598 75.5 615 c 128,-1,10
 98 632 98 632 164.5 632 c 128,-1,11
 231 632 231 632 253.5 615 c 128,-1,12
 276 598 276 598 276 555 c 128,-1,13
 276 512 276 512 253.5 494 c 128,-1,14
 231 476 231 476 165 476 c 128,-1,15
 99 476 99 476 76 494 c 128,-1,8
 53 512 53 512 53 555 c 128,-1,9
EndSplineSet
Substitution2: "'smcp' Lowercase to Small Capitals in Latin lookup 3 subtable" .notdef
EndChar

StartChar: cent
Encoding: 162 162 99
Width: 459
GlyphClass: 2
Flags: W
LayerCount: 2
Fore
SplineSet
39 245 m 0,0,1
 39 464 39 464 187 504 c 1,2,-1
 191 600 l 1,3,-1
 319 600 l 1,4,-1
 315 513 l 1,5,6
 372 508 372 508 419 496 c 1,7,-1
 391 351 l 1,8,-1
 321 351 l 2,9,10
 301 351 301 351 289 348.5 c 128,-1,11
 277 346 277 346 266 334.5 c 128,-1,12
 255 323 255 323 254 302 c 2,13,-1
 248 189 l 1,14,15
 274 186 274 186 313.5 186 c 128,-1,16
 353 186 353 186 401 201 c 1,17,-1
 407 56 l 1,18,19
 357 36 357 36 297 35 c 1,20,-1
 293 -64 l 1,21,-1
 164 -64 l 1,22,-1
 168 44 l 1,23,24
 99 60 99 60 69 107 c 128,-1,25
 39 154 39 154 39 245 c 0,0,1
EndSplineSet
Substitution2: "'onum' Oldstyle Figures in Latin lookup 4 subtable" .notdef
EndChar

StartChar: sterling
Encoding: 163 163 100
Width: 586
GlyphClass: 2
Flags: W
LayerCount: 2
Fore
SplineSet
460 262 m 1,0,-1
 308 262 l 1,1,-1
 299 160 l 1,2,-1
 521 160 l 1,3,-1
 546 0 l 1,4,-1
 40 0 l 1,5,-1
 40 100 l 1,6,-1
 90 135 l 1,7,-1
 104 262 l 1,8,-1
 40 262 l 1,9,-1
 40 369 l 1,10,-1
 116 369 l 1,11,-1
 124 443 l 2,12,13
 134 540 134 540 189.5 590.5 c 128,-1,14
 245 641 245 641 342.5 641 c 128,-1,15
 440 641 440 641 525 622 c 1,16,-1
 495 477 l 1,17,-1
 397 477 l 2,18,19
 363 477 363 477 345 468 c 128,-1,20
 327 459 327 459 324 428 c 2,21,-1
 318 369 l 1,22,-1
 470 369 l 1,23,-1
 460 262 l 1,0,-1
EndSplineSet
Substitution2: "'onum' Oldstyle Figures in Latin lookup 4 subtable" .notdef
EndChar

StartChar: yen
Encoding: 165 165 101
Width: 560
GlyphClass: 2
Flags: W
LayerCount: 2
Fore
SplineSet
221 625 m 1,0,-1
 277 391 l 1,1,-1
 283 391 l 1,2,-1
 339 625 l 1,3,-1
 550 625 l 1,4,-1
 454 369 l 1,5,-1
 520 369 l 1,6,-1
 520 262 l 1,7,-1
 414 262 l 1,8,-1
 395 212 l 1,9,-1
 520 212 l 1,10,-1
 520 105 l 1,11,-1
 380 105 l 1,12,-1
 380 0 l 1,13,-1
 180 0 l 1,14,-1
 180 105 l 1,15,-1
 40 105 l 1,16,-1
 40 212 l 1,17,-1
 164 212 l 1,18,-1
 146 262 l 1,19,-1
 40 262 l 1,20,-1
 40 369 l 1,21,-1
 106 369 l 1,22,-1
 10 625 l 1,23,-1
 221 625 l 1,0,-1
EndSplineSet
Substitution2: "'onum' Oldstyle Figures in Latin lookup 4 subtable" .notdef
EndChar

StartChar: brokenbar
Encoding: 166 166 102
Width: 420
GlyphClass: 2
Flags: W
LayerCount: 2
Fore
SplineSet
150 368 m 1,0,-1
 150 704 l 1,1,-1
 270 704 l 1,2,-1
 270 368 l 1,3,-1
 150 368 l 1,0,-1
150 -180 m 1,4,-1
 150 156 l 1,5,-1
 270 156 l 1,6,-1
 270 -180 l 1,7,-1
 150 -180 l 1,4,-1
EndSplineSet
Position2: "'case' Case-Sensitive Forms in Latin lookup 0 per glyph data 1" dx=0 dy=70 dh=0 dv=0
EndChar

StartChar: section
Encoding: 167 167 103
Width: 588
GlyphClass: 2
Flags: W
LayerCount: 2
Fore
SplineSet
280 216 m 2,0,-1
 360 216 l 1,1,-1
 360 242 l 2,2,3
 360 265 360 265 354.5 271 c 128,-1,4
 349 277 349 277 326 277 c 2,5,-1
 246 277 l 1,6,-1
 246 252 l 2,7,8
 246 229 246 229 251.5 222.5 c 128,-1,9
 257 216 257 216 280 216 c 2,0,-1
50 -91 m 1,10,-1
 72 31 l 1,11,-1
 340 31 l 1,12,-1
 340 65 l 1,13,14
 132 65 132 65 82 138 c 0,15,16
 59 173 59 173 59 236 c 128,-1,17
 59 299 59 299 82 342 c 1,18,19
 59 375 59 375 59 430 c 128,-1,20
 59 485 59 485 72.5 520.5 c 128,-1,21
 86 556 86 556 105.5 575 c 128,-1,22
 125 594 125 594 160.5 604 c 128,-1,23
 196 614 196 614 225 616 c 128,-1,24
 254 618 254 618 302 618 c 0,25,26
 418 618 418 618 514 593 c 1,27,-1
 492 466 l 1,28,-1
 265 466 l 1,29,-1
 265 432 l 1,30,31
 427 432 427 432 485 386 c 0,32,33
 514 363 514 363 526 334.5 c 128,-1,34
 538 306 538 306 538 252 c 128,-1,35
 538 198 538 198 513 155 c 1,36,37
 538 119 538 119 538 72.5 c 128,-1,38
 538 26 538 26 530 -3 c 128,-1,39
 522 -32 522 -32 510 -51.5 c 128,-1,40
 498 -71 498 -71 476.5 -84.5 c 128,-1,41
 455 -98 455 -98 436 -105 c 128,-1,42
 417 -112 417 -112 386 -116 c 0,43,44
 339 -121 339 -121 278 -121 c 0,45,46
 153 -121 153 -121 50 -91 c 1,10,-1
EndSplineSet
EndChar

StartChar: dieresis
Encoding: 168 168 104
Width: 430
GlyphClass: 2
Flags: W
LayerCount: 2
Fore
SplineSet
42.5 569 m 128,-1,1
 26 586 26 586 26 629.5 c 128,-1,2
 26 673 26 673 42.5 690.5 c 128,-1,3
 59 708 59 708 105.5 708 c 128,-1,4
 152 708 152 708 168.5 690.5 c 128,-1,5
 185 673 185 673 185 629.5 c 128,-1,6
 185 586 185 586 169 569 c 128,-1,7
 153 552 153 552 106 552 c 128,-1,0
 59 552 59 552 42.5 569 c 128,-1,1
261.5 569 m 128,-1,9
 245 586 245 586 245 629.5 c 128,-1,10
 245 673 245 673 261.5 690.5 c 128,-1,11
 278 708 278 708 324.5 708 c 128,-1,12
 371 708 371 708 387.5 690.5 c 128,-1,13
 404 673 404 673 404 629.5 c 128,-1,14
 404 586 404 586 388 569 c 128,-1,15
 372 552 372 552 325 552 c 128,-1,8
 278 552 278 552 261.5 569 c 128,-1,9
EndSplineSet
Substitution2: "'smcp' Lowercase to Small Capitals in Latin lookup 3 subtable" .notdef
EndChar

StartChar: copyright
Encoding: 169 169 105
Width: 563
GlyphClass: 2
Flags: W
LayerCount: 2
Fore
SplineSet
261 364 m 1,0,-1
 294 361 l 1,1,2
 334 361 334 361 368 375 c 1,3,-1
 376 288 l 1,4,5
 341 274 341 274 294 274 c 0,6,7
 213 274 213 274 183 311 c 128,-1,8
 153 348 153 348 153 431 c 128,-1,9
 153 514 153 514 183 551 c 128,-1,10
 213 588 213 588 294 588 c 0,11,12
 346 588 346 588 376 574 c 1,13,-1
 361 496 l 1,14,15
 332 503 332 503 305.5 503 c 128,-1,16
 279 503 279 503 270 499 c 128,-1,17
 261 495 261 495 261 484 c 2,18,-1
 261 364 l 1,0,-1
30 431 m 128,-1,20
 30 558 30 558 89.5 620 c 128,-1,21
 149 682 149 682 281.5 682 c 128,-1,22
 414 682 414 682 473.5 620 c 128,-1,23
 533 558 533 558 533 431 c 128,-1,24
 533 304 533 304 473.5 241.5 c 128,-1,25
 414 179 414 179 281.5 179 c 128,-1,26
 149 179 149 179 89.5 241.5 c 128,-1,19
 30 304 30 304 30 431 c 128,-1,20
80 431 m 128,-1,28
 80 316 80 316 126 270.5 c 128,-1,29
 172 225 172 225 282 225 c 128,-1,30
 392 225 392 225 437.5 270.5 c 128,-1,31
 483 316 483 316 483 431 c 128,-1,32
 483 546 483 546 437.5 591 c 128,-1,33
 392 636 392 636 282 636 c 128,-1,34
 172 636 172 636 126 591 c 128,-1,27
 80 546 80 546 80 431 c 128,-1,28
EndSplineSet
EndChar

StartChar: ordfeminine
Encoding: 170 170 106
Width: 458
GlyphClass: 2
Flags: W
LayerCount: 2
Fore
SplineSet
43 744 m 1,0,1
 124 770 124 770 222 770 c 128,-1,2
 320 770 320 770 372 740.5 c 128,-1,3
 424 711 424 711 424 635 c 2,4,-1
 424 356 l 1,5,-1
 337 356 l 1,6,-1
 295 398 l 1,7,8
 271 373 271 373 231 358.5 c 128,-1,9
 191 344 191 344 149 344 c 0,10,11
 12 344 12 344 12 475 c 0,12,13
 12 551 12 551 68 578.5 c 128,-1,14
 124 606 124 606 231 606 c 2,15,-1
 255 606 l 1,16,-1
 255 642 l 1,17,18
 228 646 228 646 179 646 c 128,-1,19
 130 646 130 646 62 628 c 1,20,-1
 43 744 l 1,0,1
191 493 m 2,21,-1
 191 462 l 1,22,-1
 207 462 l 2,23,24
 252 462 252 462 255 484 c 1,25,-1
 255 518 l 1,26,-1
 237 518 l 2,27,28
 206 518 206 518 198.5 511 c 128,-1,29
 191 504 191 504 191 493 c 2,21,-1
35 191 m 1,30,-1
 35 271 l 2,31,32
 35 291 35 291 45.5 295.5 c 128,-1,33
 56 300 56 300 83 300 c 2,34,-1
 423 300 l 1,35,-1
 423 222 l 2,36,37
 423 202 423 202 411.5 196.5 c 128,-1,38
 400 191 400 191 375 191 c 2,39,-1
 35 191 l 1,30,-1
EndSplineSet
EndChar

StartChar: guillemotleft
Encoding: 171 171 107
Width: 575
GlyphClass: 2
Flags: W
LayerCount: 2
Fore
SplineSet
25 300 m 1,0,-1
 219 475 l 1,1,-1
 300 424 l 1,2,-1
 200 250 l 1,3,-1
 300 76 l 1,4,-1
 219 25 l 1,5,-1
 25 200 l 1,6,-1
 25 300 l 1,0,-1
275 300 m 1,7,-1
 469 475 l 1,8,-1
 550 424 l 1,9,-1
 450 250 l 1,10,-1
 550 76 l 1,11,-1
 469 25 l 1,12,-1
 275 200 l 1,13,-1
 275 300 l 1,7,-1
EndSplineSet
Position2: "'case' Case-Sensitive Forms in Latin lookup 0 per glyph data 1" dx=0 dy=70 dh=0 dv=0
EndChar

StartChar: logicalnot
Encoding: 172 172 108
Width: 600
GlyphClass: 2
Flags: W
LayerCount: 2
Fore
SplineSet
72 240 m 1,0,-1
 72 384 l 1,1,-1
 527 384 l 1,2,-1
 527 100 l 1,3,-1
 393 100 l 1,4,-1
 393 240 l 1,5,-1
 72 240 l 1,0,-1
EndSplineSet
EndChar

StartChar: registered
Encoding: 174 174 109
Width: 563
GlyphClass: 2
Flags: W
LayerCount: 2
Fore
SplineSet
30 431 m 128,-1,1
 30 558 30 558 89.5 620 c 128,-1,2
 149 682 149 682 281.5 682 c 128,-1,3
 414 682 414 682 473.5 620 c 128,-1,4
 533 558 533 558 533 431 c 128,-1,5
 533 304 533 304 473.5 241.5 c 128,-1,6
 414 179 414 179 281.5 179 c 128,-1,7
 149 179 149 179 89.5 241.5 c 128,-1,0
 30 304 30 304 30 431 c 128,-1,1
80 431 m 128,-1,9
 80 316 80 316 126 270.5 c 128,-1,10
 172 225 172 225 282 225 c 128,-1,11
 392 225 392 225 437.5 270.5 c 128,-1,12
 483 316 483 316 483 431 c 128,-1,13
 483 546 483 546 437.5 591 c 128,-1,14
 392 636 392 636 282 636 c 128,-1,15
 172 636 172 636 126 591 c 128,-1,8
 80 546 80 546 80 431 c 128,-1,9
425 281 m 1,16,-1
 313 281 l 1,17,-1
 274 368 l 1,18,-1
 262 368 l 1,19,-1
 262 281 l 1,20,-1
 160 281 l 1,21,-1
 160 581 l 1,22,-1
 311 581 l 2,23,24
 416 581 416 581 416 475 c 0,25,26
 416 405 416 405 373 380 c 1,27,-1
 425 281 l 1,16,-1
262 498 m 1,28,-1
 262 448 l 1,29,-1
 279 448 l 2,30,31
 307 448 307 448 307 463 c 2,32,-1
 307 483 l 2,33,34
 307 498 307 498 279 498 c 2,35,-1
 262 498 l 1,28,-1
EndSplineSet
EndChar

StartChar: macron
Encoding: 175 175 110
Width: 399
GlyphClass: 2
Flags: W
LayerCount: 2
Fore
SplineSet
349 568 m 1,0,-1
 103 568 l 2,1,2
 69 568 69 568 59.5 580.5 c 128,-1,3
 50 593 50 593 50 632 c 2,4,-1
 50 695 l 1,5,-1
 297 695 l 2,6,7
 332 695 332 695 340.5 683 c 128,-1,8
 349 671 349 671 349 632 c 2,9,-1
 349 568 l 1,0,-1
EndSplineSet
Substitution2: "'smcp' Lowercase to Small Capitals in Latin lookup 3 subtable" .notdef
EndChar

StartChar: degree
Encoding: 176 176 111
Width: 407
GlyphClass: 2
Flags: W
LayerCount: 2
Fore
SplineSet
30 531 m 128,-1,1
 30 619 30 619 71 661.5 c 128,-1,2
 112 704 112 704 203.5 704 c 128,-1,3
 295 704 295 704 336 661 c 128,-1,4
 377 618 377 618 377 530.5 c 128,-1,5
 377 443 377 443 336 400 c 128,-1,6
 295 357 295 357 203.5 357 c 128,-1,7
 112 357 112 357 71 400 c 128,-1,0
 30 443 30 443 30 531 c 128,-1,1
140 562 m 2,8,-1
 140 461 l 1,9,-1
 203 461 l 2,10,11
 226 461 226 461 236.5 462.5 c 128,-1,12
 247 464 247 464 256 473 c 128,-1,13
 265 482 265 482 265 500 c 2,14,-1
 265 600 l 1,15,-1
 208 600 l 2,16,17
 183 600 183 600 171 598.5 c 128,-1,18
 159 597 159 597 149.5 588.5 c 128,-1,19
 140 580 140 580 140 562 c 2,8,-1
EndSplineSet
EndChar

StartChar: plusminus
Encoding: 177 177 112
Width: 600
GlyphClass: 2
Flags: W
LayerCount: 2
Fore
SplineSet
72 341 m 1,0,-1
 72 485 l 1,1,-1
 227 485 l 1,2,-1
 227 640 l 1,3,-1
 371 640 l 1,4,-1
 371 485 l 1,5,-1
 527 485 l 1,6,-1
 527 341 l 1,7,-1
 371 341 l 1,8,-1
 371 185 l 1,9,-1
 227 185 l 1,10,-1
 227 341 l 1,11,-1
 72 341 l 1,0,-1
72 0 m 1,12,-1
 72 144 l 1,13,-1
 527 144 l 1,14,-1
 527 0 l 1,15,-1
 72 0 l 1,12,-1
EndSplineSet
EndChar

StartChar: twosuperior
Encoding: 178 178 113
Width: 400
GlyphClass: 2
Flags: W
LayerCount: 2
Fore
SplineSet
61 613 m 1,0,-1
 42 724 l 1,1,2
 111 741 111 741 176.5 741 c 128,-1,3
 242 741 242 741 267 737 c 128,-1,4
 292 733 292 733 316 721 c 0,5,6
 364 698 364 698 364 613 c 0,7,8
 364 554 364 554 333 530 c 128,-1,9
 302 506 302 506 189 468 c 1,10,-1
 189 453 l 1,11,-1
 358 453 l 1,12,-1
 358 343 l 1,13,-1
 36 343 l 1,14,-1
 36 425 l 2,15,16
 36 481 36 481 60 504 c 1,17,18
 70 515 70 515 75.5 521 c 128,-1,19
 81 527 81 527 97.5 536 c 128,-1,20
 114 545 114 545 121 548.5 c 128,-1,21
 128 552 128 552 150 562 c 2,22,-1
 221 594 l 1,23,-1
 221 626 l 1,24,25
 199 628 199 628 164 628 c 128,-1,26
 129 628 129 628 61 613 c 1,0,-1
EndSplineSet
EndChar

StartChar: threesuperior
Encoding: 179 179 114
Width: 400
GlyphClass: 2
Flags: W
LayerCount: 2
Fore
SplineSet
219 594 m 1,0,-1
 219 626 l 1,1,2
 191 628 191 628 182 628 c 0,3,4
 123 628 123 628 62 614 c 1,5,-1
 43 724 l 1,6,7
 112 741 112 741 172.5 741 c 128,-1,8
 233 741 233 741 258 737.5 c 128,-1,9
 283 734 283 734 306 724 c 0,10,11
 353 704 353 704 353 642 c 128,-1,12
 353 580 353 580 311 550 c 1,13,14
 362 524 362 524 362 460 c 0,15,16
 362 366 362 366 286 345 c 0,17,18
 245 334 245 334 175.5 334 c 128,-1,19
 106 334 106 334 37 351 c 1,20,-1
 56 465 l 1,21,22
 123 449 123 449 162.5 449 c 128,-1,23
 202 449 202 449 219 451 c 1,24,-1
 219 482 l 1,25,-1
 116 493 l 1,26,-1
 116 582 l 1,27,-1
 219 594 l 1,0,-1
EndSplineSet
EndChar

StartChar: acute
Encoding: 180 180 115
Width: 429
GlyphClass: 2
Flags: W
LayerCount: 2
Fore
SplineSet
285 574 m 2,0,-1
 111 539 l 1,1,-1
 70 596 l 1,2,-1
 259 735 l 2,3,4
 265 739 265 739 272 739 c 128,-1,5
 279 739 279 739 288 728 c 2,6,-1
 351 654 l 2,7,8
 360 644 360 644 360 637.5 c 128,-1,9
 360 631 360 631 357.5 627.5 c 128,-1,10
 355 624 355 624 311 586 c 0,11,12
 301 577 301 577 285 574 c 2,0,-1
EndSplineSet
Substitution2: "'smcp' Lowercase to Small Capitals in Latin lookup 3 subtable" .notdef
EndChar

StartChar: mu
Encoding: 181 181 116
Width: 590
GlyphClass: 2
Flags: W
LayerCount: 2
Fore
SplineSet
240 500 m 1,0,-1
 240 131 l 1,1,-1
 271 131 l 2,2,3
 307 131 307 131 323.5 138.5 c 128,-1,4
 340 146 340 146 340 173 c 2,5,-1
 340 500 l 1,6,-1
 540 515 l 1,7,-1
 540 0 l 1,8,-1
 440 0 l 1,9,-1
 397 43 l 1,10,11
 360 0 360 0 274 0 c 2,12,-1
 202 0 l 1,13,-1
 170 -165 l 1,14,-1
 40 -165 l 1,15,-1
 40 500 l 1,16,-1
 240 500 l 1,0,-1
EndSplineSet
EndChar

StartChar: paragraph
Encoding: 182 182 117
Width: 604
GlyphClass: 2
Flags: W
LayerCount: 2
Fore
SplineSet
70 0 m 1,0,-1
 70 50 l 1,1,-1
 185 86 l 1,2,-1
 185 218 l 1,3,4
 30 239 30 239 30 418 c 0,5,6
 30 513 30 513 78 569 c 128,-1,7
 126 625 126 625 245 625 c 2,8,-1
 564 625 l 1,9,-1
 564 465 l 1,10,-1
 514 465 l 1,11,-1
 514 0 l 1,12,-1
 319 0 l 1,13,-1
 319 465 l 1,14,-1
 289 465 l 1,15,-1
 289 0 l 1,16,-1
 70 0 l 1,0,-1
EndSplineSet
EndChar

StartChar: periodcentered
Encoding: 183 183 118
Width: 277
GlyphClass: 2
Flags: W
LayerCount: 2
Fore
SplineSet
30 249 m 128,-1,1
 30 308 30 308 52 332 c 128,-1,2
 74 356 74 356 138.5 356 c 128,-1,3
 203 356 203 356 225 332 c 128,-1,4
 247 308 247 308 247 249 c 128,-1,5
 247 190 247 190 225 167 c 128,-1,6
 203 144 203 144 138.5 144 c 128,-1,7
 74 144 74 144 52 167 c 128,-1,0
 30 190 30 190 30 249 c 128,-1,1
EndSplineSet
EndChar

StartChar: cedilla
Encoding: 184 184 119
Width: 469
GlyphClass: 2
Flags: W
LayerCount: 2
Fore
SplineSet
194 -26 m 2,0,-1
 194 21 l 1,1,-1
 255 21 l 1,2,3
 291 8 291 8 312 -20.5 c 128,-1,4
 333 -49 333 -49 333 -83 c 128,-1,5
 333 -117 333 -117 304.5 -141 c 128,-1,6
 276 -165 276 -165 226.5 -165 c 128,-1,7
 177 -165 177 -165 117 -146 c 1,8,-1
 128 -58 l 1,9,-1
 161 -58 l 2,10,11
 182 -58 182 -58 188 -52.5 c 128,-1,12
 194 -47 194 -47 194 -26 c 2,0,-1
EndSplineSet
Substitution2: "'smcp' Lowercase to Small Capitals in Latin lookup 3 subtable" .notdef
EndChar

StartChar: onesuperior
Encoding: 185 185 120
Width: 400
GlyphClass: 2
Flags: W
LayerCount: 2
Fore
SplineSet
367 343 m 1,0,-1
 53 343 l 1,1,-1
 53 453 l 1,2,-1
 148 453 l 1,3,-1
 148 596 l 1,4,-1
 53 591 l 1,5,-1
 53 700 l 1,6,-1
 184 732 l 1,7,-1
 288 732 l 1,8,-1
 288 453 l 1,9,-1
 367 453 l 1,10,-1
 367 343 l 1,0,-1
EndSplineSet
EndChar

StartChar: ordmasculine
Encoding: 186 186 121
Width: 472
GlyphClass: 2
Flags: W
LayerCount: 2
Fore
SplineSet
20 557 m 128,-1,1
 20 665 20 665 70 717.5 c 128,-1,2
 120 770 120 770 233 770 c 128,-1,3
 346 770 346 770 396 717.5 c 128,-1,4
 446 665 446 665 446 557 c 128,-1,5
 446 449 446 449 396 396.5 c 128,-1,6
 346 344 346 344 233 344 c 128,-1,7
 120 344 120 344 70 396.5 c 128,-1,0
 20 449 20 449 20 557 c 128,-1,1
201 618 m 2,8,-1
 201 472 l 1,9,-1
 218 472 l 2,10,11
 242 472 242 472 253.5 476.5 c 128,-1,12
 265 481 265 481 265 497 c 2,13,-1
 265 643 l 1,14,-1
 247 643 l 2,15,16
 223 643 223 643 212 638.5 c 128,-1,17
 201 634 201 634 201 618 c 2,8,-1
35 191 m 1,18,-1
 35 271 l 2,19,20
 35 291 35 291 45.5 295.5 c 128,-1,21
 56 300 56 300 83 300 c 2,22,-1
 423 300 l 1,23,-1
 423 222 l 2,24,25
 423 202 423 202 411.5 196.5 c 128,-1,26
 400 191 400 191 375 191 c 2,27,-1
 35 191 l 1,18,-1
EndSplineSet
EndChar

StartChar: guillemotright
Encoding: 187 187 122
Width: 575
GlyphClass: 2
Flags: W
LayerCount: 2
Fore
SplineSet
356 475 m 1,0,-1
 550 300 l 1,1,-1
 550 200 l 1,2,-1
 356 25 l 1,3,-1
 275 76 l 1,4,-1
 375 250 l 1,5,-1
 275 424 l 1,6,-1
 356 475 l 1,0,-1
106 475 m 1,7,-1
 300 300 l 1,8,-1
 300 200 l 1,9,-1
 106 25 l 1,10,-1
 25 76 l 1,11,-1
 125 250 l 1,12,-1
 25 424 l 1,13,-1
 106 475 l 1,7,-1
EndSplineSet
Position2: "'case' Case-Sensitive Forms in Latin lookup 0 per glyph data 1" dx=0 dy=70 dh=0 dv=0
EndChar

StartChar: onequarter
Encoding: 188 188 123
Width: 971
GlyphClass: 3
Flags: W
LayerCount: 2
Fore
SplineSet
762 0 m 1,0,-1
 762 60 l 1,1,-1
 578 60 l 1,2,-1
 578 144 l 1,3,-1
 672 389 l 1,4,-1
 896 389 l 1,5,-1
 896 172 l 1,6,-1
 935 172 l 1,7,-1
 935 60 l 1,8,-1
 896 60 l 1,9,-1
 896 0 l 1,10,-1
 762 0 l 1,0,-1
762 172 m 1,11,-1
 762 295 l 1,12,-1
 754 295 l 1,13,-1
 709 172 l 1,14,-1
 762 172 l 1,11,-1
373 227 m 1,15,-1
 59 227 l 1,16,-1
 59 337 l 1,17,-1
 154 337 l 1,18,-1
 154 480 l 1,19,-1
 59 475 l 1,20,-1
 59 584 l 1,21,-1
 190 616 l 1,22,-1
 294 616 l 1,23,-1
 294 337 l 1,24,-1
 373 337 l 1,25,-1
 373 227 l 1,15,-1
689 665 m 1,26,-1
 420 -15 l 2,27,28
 415 -25 415 -25 411 -29 c 0,29,30
 400 -40 400 -40 377 -40 c 2,31,-1
 326 -40 l 1,32,-1
 595 640 l 2,33,34
 600 650 600 650 604 654 c 0,35,36
 615 665 615 665 638 665 c 2,37,-1
 689 665 l 1,26,-1
EndSplineSet
Ligature2: "'frac' Diagonal Fractions in Latin lookup 1 subtable" one slash four
Ligature2: "'frac' Diagonal Fractions in Latin lookup 1 subtable" one fraction four
EndChar

StartChar: onehalf
Encoding: 189 189 124
Width: 971
GlyphClass: 3
Flags: W
LayerCount: 2
Fore
SplineSet
618 270 m 1,0,-1
 599 381 l 1,1,2
 668 398 668 398 733.5 398 c 128,-1,3
 799 398 799 398 824 394 c 128,-1,4
 849 390 849 390 874 378 c 0,5,6
 921 355 921 355 921 270 c 0,7,8
 921 211 921 211 890 187 c 128,-1,9
 859 163 859 163 746 125 c 1,10,-1
 746 110 l 1,11,-1
 915 110 l 1,12,-1
 915 0 l 1,13,-1
 593 0 l 1,14,-1
 593 82 l 2,15,16
 593 138 593 138 616 162 c 1,17,18
 627 172 627 172 632.5 178 c 128,-1,19
 638 184 638 184 654.5 193 c 128,-1,20
 671 202 671 202 678 205.5 c 128,-1,21
 685 209 685 209 708 219 c 2,22,-1
 778 251 l 1,23,-1
 778 283 l 1,24,25
 756 285 756 285 721 285 c 128,-1,26
 686 285 686 285 618 270 c 1,0,-1
373 227 m 1,27,-1
 59 227 l 1,28,-1
 59 337 l 1,29,-1
 154 337 l 1,30,-1
 154 480 l 1,31,-1
 59 475 l 1,32,-1
 59 584 l 1,33,-1
 190 616 l 1,34,-1
 294 616 l 1,35,-1
 294 337 l 1,36,-1
 373 337 l 1,37,-1
 373 227 l 1,27,-1
659 665 m 1,38,-1
 390 -15 l 2,39,40
 385 -25 385 -25 381 -29 c 0,41,42
 370 -40 370 -40 347 -40 c 2,43,-1
 296 -40 l 1,44,-1
 565 640 l 2,45,46
 570 650 570 650 574 654 c 0,47,48
 585 665 585 665 608 665 c 2,49,-1
 659 665 l 1,38,-1
EndSplineSet
Ligature2: "'frac' Diagonal Fractions in Latin lookup 1 subtable" one slash two
Ligature2: "'frac' Diagonal Fractions in Latin lookup 1 subtable" one fraction two
EndChar

StartChar: threequarters
Encoding: 190 190 125
Width: 971
GlyphClass: 3
Flags: W
LayerCount: 2
Fore
SplineSet
762 0 m 1,0,-1
 762 60 l 1,1,-1
 578 60 l 1,2,-1
 578 144 l 1,3,-1
 672 389 l 1,4,-1
 896 389 l 1,5,-1
 896 172 l 1,6,-1
 935 172 l 1,7,-1
 935 60 l 1,8,-1
 896 60 l 1,9,-1
 896 0 l 1,10,-1
 762 0 l 1,0,-1
762 172 m 1,11,-1
 762 295 l 1,12,-1
 754 295 l 1,13,-1
 709 172 l 1,14,-1
 762 172 l 1,11,-1
235 478 m 1,15,-1
 235 510 l 1,16,17
 207 512 207 512 198 512 c 0,18,19
 139 512 139 512 78 498 c 1,20,-1
 59 608 l 1,21,22
 128 625 128 625 188.5 625 c 128,-1,23
 249 625 249 625 274 621.5 c 128,-1,24
 299 618 299 618 322 608 c 0,25,26
 369 588 369 588 369 526 c 128,-1,27
 369 464 369 464 327 434 c 1,28,29
 378 408 378 408 378 344 c 0,30,31
 378 250 378 250 302 229 c 0,32,33
 261 218 261 218 191.5 218 c 128,-1,34
 122 218 122 218 53 235 c 1,35,-1
 72 349 l 1,36,37
 139 333 139 333 178.5 333 c 128,-1,38
 218 333 218 333 235 335 c 1,39,-1
 235 366 l 1,40,-1
 132 377 l 1,41,-1
 132 466 l 1,42,-1
 235 478 l 1,15,-1
670 665 m 1,43,-1
 401 -15 l 2,44,45
 396 -25 396 -25 392 -29 c 0,46,47
 381 -40 381 -40 358 -40 c 2,48,-1
 307 -40 l 1,49,-1
 576 640 l 2,50,51
 581 650 581 650 585 654 c 0,52,53
 596 665 596 665 619 665 c 2,54,-1
 670 665 l 1,43,-1
EndSplineSet
Ligature2: "'frac' Diagonal Fractions in Latin lookup 1 subtable" three slash four
Ligature2: "'frac' Diagonal Fractions in Latin lookup 1 subtable" three fraction four
EndChar

StartChar: questiondown
Encoding: 191 191 126
Width: 528
GlyphClass: 2
Flags: W
LayerCount: 2
Fore
SplineSet
210 323 m 1,0,-1
 227 450 l 1,1,-1
 397 450 l 1,2,-1
 412 262 l 1,3,4
 412 244 412 244 400 233.5 c 128,-1,5
 388 223 388 223 347 209 c 2,6,-1
 240 172 l 1,7,-1
 240 138 l 1,8,9
 266 136 266 136 299.5 136 c 128,-1,10
 333 136 333 136 388 142.5 c 128,-1,11
 443 149 443 149 464 156 c 1,12,-1
 488 13 l 1,13,14
 379 -15 379 -15 280 -15 c 0,15,16
 134 -15 134 -15 86 24 c 0,17,18
 40 62 40 62 40 140 c 128,-1,19
 40 218 40 218 78.5 254.5 c 128,-1,20
 117 291 117 291 210 323 c 1,0,-1
423 555 m 128,-1,22
 423 512 423 512 400 494 c 128,-1,23
 377 476 377 476 311 476 c 128,-1,24
 245 476 245 476 222.5 494 c 128,-1,25
 200 512 200 512 200 555 c 128,-1,26
 200 598 200 598 222.5 615 c 128,-1,27
 245 632 245 632 311.5 632 c 128,-1,28
 378 632 378 632 400.5 615 c 128,-1,21
 423 598 423 598 423 555 c 128,-1,22
EndSplineSet
Substitution2: "'smcp' Lowercase to Small Capitals in Latin lookup 3 subtable" .notdef
EndChar

StartChar: Agrave
Encoding: 192 192 127
Width: 609
GlyphClass: 2
Flags: W
LayerCount: 2
Fore
SplineSet
199 0 m 1,0,-1
 -12 0 l 1,1,-1
 150 625 l 1,2,-1
 459 625 l 1,3,-1
 621 0 l 1,4,-1
 410 0 l 1,5,-1
 387 99 l 1,6,-1
 222 99 l 1,7,-1
 199 0 l 1,0,-1
299 433 m 1,8,-1
 258 258 l 1,9,-1
 350 258 l 1,10,-1
 310 433 l 1,11,-1
 299 433 l 1,8,-1
378 664 m 1,12,-1
 204 699 l 2,13,14
 188 702 188 702 178 711 c 2,15,-1
 133 750 l 1,16,17
 129 756 129 756 129 762 c 128,-1,18
 129 768 129 768 138 779 c 2,19,-1
 201 853 l 2,20,21
 210 864 210 864 217 864 c 128,-1,22
 224 864 224 864 230 860 c 2,23,-1
 419 721 l 1,24,-1
 378 664 l 1,12,-1
EndSplineSet
EndChar

StartChar: Acircumflex
Encoding: 194 194 129
Width: 609
GlyphClass: 2
Flags: W
LayerCount: 2
Fore
SplineSet
199 0 m 1,0,-1
 -12 0 l 1,1,-1
 150 625 l 1,2,-1
 459 625 l 1,3,-1
 621 0 l 1,4,-1
 410 0 l 1,5,-1
 387 99 l 1,6,-1
 222 99 l 1,7,-1
 199 0 l 1,0,-1
299 433 m 1,8,-1
 258 258 l 1,9,-1
 350 258 l 1,10,-1
 310 433 l 1,11,-1
 299 433 l 1,8,-1
280 864 m 2,12,-1
 328 864 l 2,13,14
 335 864 335 864 344 855 c 1,15,-1
 457 710 l 1,16,-1
 397 661 l 1,17,-1
 304 724 l 1,18,-1
 211 661 l 1,19,-1
 151 710 l 1,20,-1
 264 855 l 1,21,22
 273 864 273 864 280 864 c 2,12,-1
EndSplineSet
EndChar

StartChar: Atilde
Encoding: 195 195 130
Width: 609
GlyphClass: 2
Flags: W
LayerCount: 2
Fore
SplineSet
199 0 m 1,0,-1
 -12 0 l 1,1,-1
 150 625 l 1,2,-1
 459 625 l 1,3,-1
 621 0 l 1,4,-1
 410 0 l 1,5,-1
 387 99 l 1,6,-1
 222 99 l 1,7,-1
 199 0 l 1,0,-1
299 433 m 1,8,-1
 258 258 l 1,9,-1
 350 258 l 1,10,-1
 310 433 l 1,11,-1
 299 433 l 1,8,-1
447 840 m 1,12,-1
 497 759 l 1,13,14
 378 679 378 679 363.5 673 c 128,-1,15
 349 667 349 667 335 667 c 128,-1,16
 321 667 321 667 312.5 669 c 128,-1,17
 304 671 304 671 294 676.5 c 128,-1,18
 284 682 284 682 278.5 686 c 128,-1,19
 273 690 273 690 260.5 699 c 128,-1,20
 248 708 248 708 243 712 c 1,21,-1
 161 672 l 1,22,-1
 111 753 l 1,23,24
 230 833 230 833 244.5 839 c 128,-1,25
 259 845 259 845 273 845 c 128,-1,26
 287 845 287 845 295.5 843 c 128,-1,27
 304 841 304 841 314 835.5 c 128,-1,28
 324 830 324 830 329.5 826 c 128,-1,29
 335 822 335 822 347.5 813 c 128,-1,30
 360 804 360 804 365 800 c 1,31,-1
 447 840 l 1,12,-1
EndSplineSet
EndChar

StartChar: AE
Encoding: 198 198 133
Width: 811
GlyphClass: 2
Flags: W
LayerCount: 2
Fore
SplineSet
199 0 m 1,0,-1
 -12 0 l 1,1,-1
 150 625 l 1,2,-1
 740 625 l 1,3,-1
 715 465 l 1,4,-1
 500 465 l 1,5,-1
 522 381 l 1,6,-1
 700 381 l 1,7,-1
 700 236 l 1,8,-1
 560 236 l 1,9,-1
 579 160 l 1,10,-1
 791 160 l 1,11,-1
 791 0 l 1,12,-1
 410 0 l 1,13,-1
 387 99 l 1,14,-1
 222 99 l 1,15,-1
 199 0 l 1,0,-1
299 433 m 1,16,-1
 258 258 l 1,17,-1
 350 258 l 1,18,-1
 310 433 l 1,19,-1
 299 433 l 1,16,-1
EndSplineSet
EndChar

StartChar: Egrave
Encoding: 200 200 135
Width: 530
GlyphClass: 2
Flags: W
LayerCount: 2
Fore
SplineSet
450 236 m 1,0,-1
 250 236 l 1,1,-1
 250 160 l 1,2,-1
 495 160 l 1,3,-1
 495 0 l 1,4,-1
 50 0 l 1,5,-1
 50 625 l 1,6,-1
 490 625 l 1,7,-1
 465 465 l 1,8,-1
 250 465 l 1,9,-1
 250 381 l 1,10,-1
 450 381 l 1,11,-1
 450 236 l 1,0,-1
328 664 m 1,12,-1
 154 699 l 2,13,14
 138 702 138 702 128 711 c 2,15,-1
 83 750 l 1,16,17
 79 756 79 756 79 762 c 128,-1,18
 79 768 79 768 88 779 c 2,19,-1
 151 853 l 2,20,21
 160 864 160 864 167 864 c 128,-1,22
 174 864 174 864 180 860 c 2,23,-1
 369 721 l 1,24,-1
 328 664 l 1,12,-1
EndSplineSet
EndChar

StartChar: Ecircumflex
Encoding: 202 202 137
Width: 530
GlyphClass: 2
Flags: W
LayerCount: 2
Fore
SplineSet
450 236 m 1,0,-1
 250 236 l 1,1,-1
 250 160 l 1,2,-1
 495 160 l 1,3,-1
 495 0 l 1,4,-1
 50 0 l 1,5,-1
 50 625 l 1,6,-1
 490 625 l 1,7,-1
 465 465 l 1,8,-1
 250 465 l 1,9,-1
 250 381 l 1,10,-1
 450 381 l 1,11,-1
 450 236 l 1,0,-1
231 864 m 2,12,-1
 279 864 l 2,13,14
 286 864 286 864 295 855 c 1,15,-1
 408 710 l 1,16,-1
 348 661 l 1,17,-1
 255 724 l 1,18,-1
 162 661 l 1,19,-1
 102 710 l 1,20,-1
 215 855 l 1,21,22
 224 864 224 864 231 864 c 2,12,-1
EndSplineSet
EndChar

StartChar: Igrave
Encoding: 204 204 139
Width: 300
GlyphClass: 2
Flags: W
LayerCount: 2
Fore
SplineSet
50 0 m 1,0,-1
 50 625 l 1,1,-1
 250 625 l 1,2,-1
 250 0 l 1,3,-1
 50 0 l 1,0,-1
224 664 m 1,4,-1
 50 699 l 2,5,6
 34 702 34 702 24 711 c 2,7,-1
 -21 750 l 1,8,9
 -25 756 -25 756 -25 762 c 128,-1,10
 -25 768 -25 768 -16 779 c 2,11,-1
 47 853 l 2,12,13
 56 864 56 864 63 864 c 128,-1,14
 70 864 70 864 76 860 c 2,15,-1
 265 721 l 1,16,-1
 224 664 l 1,4,-1
EndSplineSet
EndChar

StartChar: Icircumflex
Encoding: 206 206 141
Width: 300
GlyphClass: 2
Flags: W
LayerCount: 2
Fore
SplineSet
50 0 m 1,0,-1
 50 625 l 1,1,-1
 250 625 l 1,2,-1
 250 0 l 1,3,-1
 50 0 l 1,0,-1
126 864 m 2,4,-1
 174 864 l 2,5,6
 181 864 181 864 190 855 c 1,7,-1
 303 710 l 1,8,-1
 243 661 l 1,9,-1
 150 724 l 1,10,-1
 57 661 l 1,11,-1
 -3 710 l 1,12,-1
 110 855 l 1,13,14
 119 864 119 864 126 864 c 2,4,-1
EndSplineSet
EndChar

StartChar: Eth
Encoding: 208 208 143
Width: 645
GlyphClass: 2
Flags: W
LayerCount: 2
Fore
SplineSet
0 243 m 1,0,-1
 0 341 l 2,1,2
 0 363 0 363 12 370 c 128,-1,3
 24 377 24 377 50 378 c 1,4,-1
 50 625 l 1,5,-1
 330 625 l 2,6,7
 499 625 499 625 562 553 c 128,-1,8
 625 481 625 481 625 312.5 c 128,-1,9
 625 144 625 144 562 72 c 128,-1,10
 499 0 499 0 330 0 c 2,11,-1
 50 0 l 1,12,-1
 50 243 l 1,13,-1
 0 243 l 1,0,-1
333 465 m 2,14,-1
 250 465 l 1,15,-1
 250 378 l 1,16,-1
 330 378 l 1,17,-1
 330 281 l 2,18,19
 330 257 330 257 315 250 c 128,-1,20
 300 243 300 243 268 243 c 2,21,-1
 250 243 l 1,22,-1
 250 160 l 1,23,-1
 333 160 l 2,24,25
 374 160 374 160 392.5 169.5 c 128,-1,26
 411 179 411 179 411 213 c 2,27,-1
 411 412 l 2,28,29
 411 446 411 446 392.5 455.5 c 128,-1,30
 374 465 374 465 333 465 c 2,14,-1
EndSplineSet
EndChar

StartChar: Ograve
Encoding: 210 210 145
Width: 630
GlyphClass: 2
Flags: W
LayerCount: 2
Fore
SplineSet
20 312 m 0,0,1
 20 483 20 483 84 561.5 c 128,-1,2
 148 640 148 640 315 640 c 128,-1,3
 482 640 482 640 546 561.5 c 128,-1,4
 610 483 610 483 610 312 c 0,5,6
 610 227 610 227 596.5 169 c 128,-1,7
 583 111 583 111 550 68 c 128,-1,8
 517 25 517 25 459 5 c 128,-1,9
 401 -15 401 -15 315 -15 c 128,-1,10
 229 -15 229 -15 171 5 c 128,-1,11
 113 25 113 25 80 68 c 128,-1,12
 47 111 47 111 33.5 169 c 128,-1,13
 20 227 20 227 20 312 c 0,0,1
235 416 m 2,14,-1
 235 156 l 1,15,-1
 318 156 l 2,16,17
 359 156 359 156 377.5 165.5 c 128,-1,18
 396 175 396 175 396 209 c 2,19,-1
 396 469 l 1,20,-1
 312 469 l 2,21,22
 272 469 272 469 253.5 459.5 c 128,-1,23
 235 450 235 450 235 416 c 2,14,-1
388 664 m 1,24,-1
 214 699 l 2,25,26
 198 702 198 702 188 711 c 2,27,-1
 143 750 l 1,28,29
 139 756 139 756 139 762 c 128,-1,30
 139 768 139 768 148 779 c 2,31,-1
 211 853 l 2,32,33
 220 864 220 864 227 864 c 128,-1,34
 234 864 234 864 240 860 c 2,35,-1
 429 721 l 1,36,-1
 388 664 l 1,24,-1
EndSplineSet
EndChar

StartChar: Ocircumflex
Encoding: 212 212 147
Width: 630
GlyphClass: 2
Flags: W
LayerCount: 2
Fore
SplineSet
20 312 m 0,0,1
 20 483 20 483 84 561.5 c 128,-1,2
 148 640 148 640 315 640 c 128,-1,3
 482 640 482 640 546 561.5 c 128,-1,4
 610 483 610 483 610 312 c 0,5,6
 610 227 610 227 596.5 169 c 128,-1,7
 583 111 583 111 550 68 c 128,-1,8
 517 25 517 25 459 5 c 128,-1,9
 401 -15 401 -15 315 -15 c 128,-1,10
 229 -15 229 -15 171 5 c 128,-1,11
 113 25 113 25 80 68 c 128,-1,12
 47 111 47 111 33.5 169 c 128,-1,13
 20 227 20 227 20 312 c 0,0,1
235 416 m 2,14,-1
 235 156 l 1,15,-1
 318 156 l 2,16,17
 359 156 359 156 377.5 165.5 c 128,-1,18
 396 175 396 175 396 209 c 2,19,-1
 396 469 l 1,20,-1
 312 469 l 2,21,22
 272 469 272 469 253.5 459.5 c 128,-1,23
 235 450 235 450 235 416 c 2,14,-1
291 864 m 2,24,-1
 339 864 l 2,25,26
 346 864 346 864 355 855 c 1,27,-1
 468 710 l 1,28,-1
 408 661 l 1,29,-1
 315 724 l 1,30,-1
 222 661 l 1,31,-1
 162 710 l 1,32,-1
 275 855 l 1,33,34
 284 864 284 864 291 864 c 2,24,-1
EndSplineSet
EndChar

StartChar: multiply
Encoding: 215 215 150
Width: 600
GlyphClass: 2
Flags: W
LayerCount: 2
Fore
SplineSet
164 75 m 1,0,-1
 62 177 l 1,1,-1
 197 312 l 1,2,-1
 62 447 l 1,3,-1
 164 549 l 1,4,-1
 299 414 l 1,5,-1
 434 549 l 1,6,-1
 536 447 l 1,7,-1
 401 312 l 1,8,-1
 536 177 l 1,9,-1
 434 75 l 1,10,-1
 299 210 l 1,11,-1
 164 75 l 1,0,-1
EndSplineSet
EndChar

StartChar: Oslash
Encoding: 216 216 151
Width: 630
GlyphClass: 2
Flags: W
LayerCount: 2
Fore
SplineSet
464 486 m 1,0,-1
 449 486 l 1,1,-1
 256 149 l 1,2,-1
 271 149 l 1,3,-1
 177 -15 l 2,4,5
 172 -25 172 -25 168 -29 c 0,6,7
 157 -40 157 -40 134 -40 c 2,8,-1
 63 -40 l 1,9,-1
 171 149 l 1,10,-1
 185 149 l 1,11,-1
 378 486 l 1,12,-1
 364 486 l 1,13,-1
 452 640 l 2,14,15
 457 650 457 650 461 654 c 0,16,17
 472 665 472 665 495 665 c 2,18,-1
 566 665 l 1,19,-1
 464 486 l 1,0,-1
20 312 m 0,20,21
 20 483 20 483 84 561.5 c 128,-1,22
 148 640 148 640 315 640 c 128,-1,23
 482 640 482 640 546 561.5 c 128,-1,24
 610 483 610 483 610 312 c 0,25,26
 610 227 610 227 596.5 169 c 128,-1,27
 583 111 583 111 550 68 c 128,-1,28
 517 25 517 25 459 5 c 128,-1,29
 401 -15 401 -15 315 -15 c 128,-1,30
 229 -15 229 -15 171 5 c 128,-1,31
 113 25 113 25 80 68 c 128,-1,32
 47 111 47 111 33.5 169 c 128,-1,33
 20 227 20 227 20 312 c 0,20,21
235 416 m 2,34,-1
 235 156 l 1,35,-1
 318 156 l 2,36,37
 359 156 359 156 377.5 165.5 c 128,-1,38
 396 175 396 175 396 209 c 2,39,-1
 396 469 l 1,40,-1
 312 469 l 2,41,42
 272 469 272 469 253.5 459.5 c 128,-1,43
 235 450 235 450 235 416 c 2,34,-1
EndSplineSet
EndChar

StartChar: Ugrave
Encoding: 217 217 152
Width: 617
GlyphClass: 2
Flags: W
LayerCount: 2
Fore
SplineSet
240 625 m 1,0,-1
 240 156 l 1,1,-1
 311 156 l 2,2,3
 349 156 349 156 363 165.5 c 128,-1,4
 377 175 377 175 377 209 c 2,5,-1
 377 625 l 1,6,-1
 577 625 l 1,7,-1
 577 274 l 2,8,9
 577 189 577 189 566 137 c 128,-1,10
 555 85 555 85 525 49 c 128,-1,11
 495 13 495 13 443 -1 c 128,-1,12
 391 -15 391 -15 308 -15 c 128,-1,13
 225 -15 225 -15 173.5 -1 c 128,-1,14
 122 13 122 13 92 49 c 128,-1,15
 62 85 62 85 51 137 c 128,-1,16
 40 189 40 189 40 274 c 2,17,-1
 40 625 l 1,18,-1
 240 625 l 1,0,-1
382 664 m 1,19,-1
 208 699 l 2,20,21
 192 702 192 702 182 711 c 2,22,-1
 137 750 l 1,23,24
 133 756 133 756 133 762 c 128,-1,25
 133 768 133 768 142 779 c 2,26,-1
 205 853 l 2,27,28
 214 864 214 864 221 864 c 128,-1,29
 228 864 228 864 234 860 c 2,30,-1
 423 721 l 1,31,-1
 382 664 l 1,19,-1
EndSplineSet
EndChar

StartChar: Uacute
Encoding: 218 218 153
Width: 617
GlyphClass: 2
Flags: W
LayerCount: 2
Fore
SplineSet
240 625 m 1,0,-1
 240 156 l 1,1,-1
 311 156 l 2,2,3
 349 156 349 156 363 165.5 c 128,-1,4
 377 175 377 175 377 209 c 2,5,-1
 377 625 l 1,6,-1
 577 625 l 1,7,-1
 577 274 l 2,8,9
 577 189 577 189 566 137 c 128,-1,10
 555 85 555 85 525 49 c 128,-1,11
 495 13 495 13 443 -1 c 128,-1,12
 391 -15 391 -15 308 -15 c 128,-1,13
 225 -15 225 -15 173.5 -1 c 128,-1,14
 122 13 122 13 92 49 c 128,-1,15
 62 85 62 85 51 137 c 128,-1,16
 40 189 40 189 40 274 c 2,17,-1
 40 625 l 1,18,-1
 240 625 l 1,0,-1
379 684 m 2,19,-1
 205 649 l 1,20,-1
 164 706 l 1,21,-1
 353 845 l 2,22,23
 359 849 359 849 366 849 c 128,-1,24
 373 849 373 849 382 838 c 2,25,-1
 445 764 l 2,26,27
 454 754 454 754 454 747.5 c 128,-1,28
 454 741 454 741 451.5 737.5 c 128,-1,29
 449 734 449 734 405 696 c 0,30,31
 395 687 395 687 379 684 c 2,19,-1
EndSplineSet
EndChar

StartChar: Ucircumflex
Encoding: 219 219 154
Width: 617
GlyphClass: 2
Flags: W
LayerCount: 2
Fore
SplineSet
240 625 m 1,0,-1
 240 156 l 1,1,-1
 311 156 l 2,2,3
 349 156 349 156 363 165.5 c 128,-1,4
 377 175 377 175 377 209 c 2,5,-1
 377 625 l 1,6,-1
 577 625 l 1,7,-1
 577 274 l 2,8,9
 577 189 577 189 566 137 c 128,-1,10
 555 85 555 85 525 49 c 128,-1,11
 495 13 495 13 443 -1 c 128,-1,12
 391 -15 391 -15 308 -15 c 128,-1,13
 225 -15 225 -15 173.5 -1 c 128,-1,14
 122 13 122 13 92 49 c 128,-1,15
 62 85 62 85 51 137 c 128,-1,16
 40 189 40 189 40 274 c 2,17,-1
 40 625 l 1,18,-1
 240 625 l 1,0,-1
284 864 m 2,19,-1
 332 864 l 2,20,21
 339 864 339 864 348 855 c 1,22,-1
 461 710 l 1,23,-1
 401 661 l 1,24,-1
 308 724 l 1,25,-1
 215 661 l 1,26,-1
 155 710 l 1,27,-1
 268 855 l 1,28,29
 277 864 277 864 284 864 c 2,19,-1
EndSplineSet
EndChar

StartChar: Udieresis
Encoding: 220 220 155
Width: 617
GlyphClass: 2
Flags: W
LayerCount: 2
Fore
SplineSet
240 625 m 1,0,-1
 240 156 l 1,1,-1
 311 156 l 2,2,3
 349 156 349 156 363 165.5 c 128,-1,4
 377 175 377 175 377 209 c 2,5,-1
 377 625 l 1,6,-1
 577 625 l 1,7,-1
 577 274 l 2,8,9
 577 189 577 189 566 137 c 128,-1,10
 555 85 555 85 525 49 c 128,-1,11
 495 13 495 13 443 -1 c 128,-1,12
 391 -15 391 -15 308 -15 c 128,-1,13
 225 -15 225 -15 173.5 -1 c 128,-1,14
 122 13 122 13 92 49 c 128,-1,15
 62 85 62 85 51 137 c 128,-1,16
 40 189 40 189 40 274 c 2,17,-1
 40 625 l 1,18,-1
 240 625 l 1,0,-1
135.5 693 m 128,-1,20
 119 710 119 710 119 753.5 c 128,-1,21
 119 797 119 797 135.5 814.5 c 128,-1,22
 152 832 152 832 198.5 832 c 128,-1,23
 245 832 245 832 261.5 814.5 c 128,-1,24
 278 797 278 797 278 753.5 c 128,-1,25
 278 710 278 710 262 693 c 128,-1,26
 246 676 246 676 199 676 c 128,-1,19
 152 676 152 676 135.5 693 c 128,-1,20
354.5 693 m 128,-1,28
 338 710 338 710 338 753.5 c 128,-1,29
 338 797 338 797 354.5 814.5 c 128,-1,30
 371 832 371 832 417.5 832 c 128,-1,31
 464 832 464 832 480.5 814.5 c 128,-1,32
 497 797 497 797 497 753.5 c 128,-1,33
 497 710 497 710 481 693 c 128,-1,34
 465 676 465 676 418 676 c 128,-1,27
 371 676 371 676 354.5 693 c 128,-1,28
EndSplineSet
EndChar

StartChar: Thorn
Encoding: 222 222 157
Width: 590
GlyphClass: 2
Flags: W
LayerCount: 2
Fore
SplineSet
380 76 m 2,0,-1
 250 76 l 1,1,-1
 250 0 l 1,2,-1
 50 0 l 1,3,-1
 50 625 l 1,4,-1
 250 625 l 1,5,-1
 250 550 l 1,6,-1
 365 550 l 2,7,8
 580 550 580 550 580 319 c 0,9,10
 580 192 580 192 524 132 c 1,11,12
 503 108 503 108 466 92 c 128,-1,13
 429 76 429 76 380 76 c 2,0,-1
250 390 m 1,14,-1
 250 236 l 1,15,-1
 296 236 l 2,16,17
 332 236 332 236 348.5 243.5 c 128,-1,18
 365 251 365 251 365 278 c 2,19,-1
 365 348 l 2,20,21
 365 375 365 375 348.5 382.5 c 128,-1,22
 332 390 332 390 296 390 c 2,23,-1
 250 390 l 1,14,-1
EndSplineSet
EndChar

StartChar: germandbls
Encoding: 223 223 158
Width: 672
GlyphClass: 2
Flags: W
LayerCount: 2
Fore
SplineSet
20 370 m 1,0,-1
 20 500 l 1,1,-1
 70 500 l 1,2,-1
 77 560 l 2,3,4
 85 635 85 635 158 657 c 0,5,6
 220 675 220 675 330 675 c 0,7,8
 552 675 552 675 552 515 c 0,9,10
 552 483 552 483 532 427.5 c 128,-1,11
 512 372 512 372 470 314 c 1,12,13
 563 314 563 314 602.5 271.5 c 128,-1,14
 642 229 642 229 642 151 c 0,15,16
 642 -15 642 -15 444 -15 c 0,17,18
 340 -15 340 -15 306 -1 c 1,19,-1
 326 141 l 1,20,21
 370 130 370 130 409.5 130 c 128,-1,22
 449 130 449 130 450 134 c 1,23,-1
 450 166 l 1,24,25
 380 166 380 166 346 190 c 128,-1,26
 312 214 312 214 312 270 c 0,27,28
 312 309 312 309 333.5 381 c 128,-1,29
 355 453 355 453 355 474 c 0,30,31
 355 519 355 519 305 519 c 0,32,33
 289 519 289 519 270 515 c 1,34,-1
 270 0 l 1,35,-1
 70 0 l 1,36,-1
 70 370 l 1,37,-1
 20 370 l 1,0,-1
EndSplineSet
Substitution2: "'smcp' Lowercase to Small Capitals in Latin lookup 3 subtable" .notdef
EndChar

StartChar: agrave
Encoding: 224 224 159
Width: 567
GlyphClass: 2
Flags: W
LayerCount: 2
Fore
SplineSet
287 515 m 0,0,1
 527 515 527 515 527 350 c 2,2,-1
 527 0 l 1,3,-1
 427 0 l 1,4,-1
 370 57 l 1,5,6
 341 23 341 23 291 4 c 128,-1,7
 241 -15 241 -15 196.5 -15 c 128,-1,8
 152 -15 152 -15 125 -8 c 128,-1,9
 98 -1 98 -1 72 16 c 0,10,11
 15 52 15 52 15 150 c 0,12,13
 15 330 15 330 287 330 c 2,14,-1
 327 330 l 1,15,-1
 327 366 l 1,16,17
 295 368 295 368 274 368 c 0,18,19
 161 368 161 368 80 341 c 1,20,-1
 56 484 l 1,21,22
 156 515 156 515 287 515 c 0,0,1
217 172 m 2,23,-1
 217 131 l 1,24,-1
 258 131 l 2,25,26
 302 131 302 131 314.5 141 c 128,-1,27
 327 151 327 151 327 167 c 2,28,-1
 327 214 l 1,29,-1
 286 214 l 2,30,31
 250 214 250 214 233.5 206.5 c 128,-1,32
 217 199 217 199 217 172 c 2,23,-1
354 539 m 1,33,-1
 180 574 l 2,34,35
 164 577 164 577 154 586 c 2,36,-1
 109 625 l 1,37,38
 105 631 105 631 105 637.5 c 128,-1,39
 105 644 105 644 114 654 c 2,40,-1
 177 728 l 2,41,42
 186 739 186 739 193 739 c 128,-1,43
 200 739 200 739 206 735 c 2,44,-1
 395 596 l 1,45,-1
 354 539 l 1,33,-1
EndSplineSet
Substitution2: "'smcp' Lowercase to Small Capitals in Latin lookup 3 subtable" .notdef
EndChar

StartChar: acircumflex
Encoding: 226 226 161
Width: 567
GlyphClass: 2
Flags: W
LayerCount: 2
Fore
SplineSet
287 515 m 0,0,1
 527 515 527 515 527 350 c 2,2,-1
 527 0 l 1,3,-1
 427 0 l 1,4,-1
 370 57 l 1,5,6
 341 23 341 23 291 4 c 128,-1,7
 241 -15 241 -15 196.5 -15 c 128,-1,8
 152 -15 152 -15 125 -8 c 128,-1,9
 98 -1 98 -1 72 16 c 0,10,11
 15 52 15 52 15 150 c 0,12,13
 15 330 15 330 287 330 c 2,14,-1
 327 330 l 1,15,-1
 327 366 l 1,16,17
 295 368 295 368 274 368 c 0,18,19
 161 368 161 368 80 341 c 1,20,-1
 56 484 l 1,21,22
 156 515 156 515 287 515 c 0,0,1
217 172 m 2,23,-1
 217 131 l 1,24,-1
 258 131 l 2,25,26
 302 131 302 131 314.5 141 c 128,-1,27
 327 151 327 151 327 167 c 2,28,-1
 327 214 l 1,29,-1
 286 214 l 2,30,31
 250 214 250 214 233.5 206.5 c 128,-1,32
 217 199 217 199 217 172 c 2,23,-1
256 740 m 2,33,-1
 304 740 l 2,34,35
 311 740 311 740 320 731 c 1,36,-1
 433 586 l 1,37,-1
 373 537 l 1,38,-1
 280 600 l 1,39,-1
 187 537 l 1,40,-1
 127 586 l 1,41,-1
 240 731 l 1,42,43
 249 740 249 740 256 740 c 2,33,-1
EndSplineSet
Substitution2: "'smcp' Lowercase to Small Capitals in Latin lookup 3 subtable" .notdef
EndChar

StartChar: atilde
Encoding: 227 227 162
Width: 567
GlyphClass: 2
Flags: W
LayerCount: 2
Fore
SplineSet
287 515 m 0,0,1
 527 515 527 515 527 350 c 2,2,-1
 527 0 l 1,3,-1
 427 0 l 1,4,-1
 370 57 l 1,5,6
 341 23 341 23 291 4 c 128,-1,7
 241 -15 241 -15 196.5 -15 c 128,-1,8
 152 -15 152 -15 125 -8 c 128,-1,9
 98 -1 98 -1 72 16 c 0,10,11
 15 52 15 52 15 150 c 0,12,13
 15 330 15 330 287 330 c 2,14,-1
 327 330 l 1,15,-1
 327 366 l 1,16,17
 295 368 295 368 274 368 c 0,18,19
 161 368 161 368 80 341 c 1,20,-1
 56 484 l 1,21,22
 156 515 156 515 287 515 c 0,0,1
217 172 m 2,23,-1
 217 131 l 1,24,-1
 258 131 l 2,25,26
 302 131 302 131 314.5 141 c 128,-1,27
 327 151 327 151 327 167 c 2,28,-1
 327 214 l 1,29,-1
 286 214 l 2,30,31
 250 214 250 214 233.5 206.5 c 128,-1,32
 217 199 217 199 217 172 c 2,23,-1
424 716 m 1,33,-1
 474 635 l 1,34,35
 355 555 355 555 340.5 549 c 128,-1,36
 326 543 326 543 312 543 c 128,-1,37
 298 543 298 543 289.5 545 c 128,-1,38
 281 547 281 547 271 552.5 c 128,-1,39
 261 558 261 558 255.5 562 c 128,-1,40
 250 566 250 566 237.5 575 c 128,-1,41
 225 584 225 584 220 588 c 1,42,-1
 138 548 l 1,43,-1
 88 629 l 1,44,45
 207 709 207 709 221.5 715 c 128,-1,46
 236 721 236 721 250 721 c 128,-1,47
 264 721 264 721 272.5 719 c 128,-1,48
 281 717 281 717 291 711.5 c 128,-1,49
 301 706 301 706 306.5 702 c 128,-1,50
 312 698 312 698 324.5 689 c 128,-1,51
 337 680 337 680 342 676 c 1,52,-1
 424 716 l 1,33,-1
EndSplineSet
Substitution2: "'smcp' Lowercase to Small Capitals in Latin lookup 3 subtable" .notdef
EndChar

StartChar: ae
Encoding: 230 230 165
Width: 852
GlyphClass: 2
Flags: W
LayerCount: 2
Fore
SplineSet
56 484 m 1,0,1
 156 515 156 515 268.5 515 c 128,-1,2
 381 515 381 515 438 490 c 1,3,4
 491 515 491 515 577 515 c 0,5,6
 716 515 716 515 769 477 c 128,-1,7
 822 439 822 439 822 335 c 0,8,9
 822 247 822 247 758.5 208.5 c 128,-1,10
 695 170 695 170 527 170 c 1,11,-1
 527 135 l 1,12,13
 557 132 557 132 587 132 c 0,14,15
 685 132 685 132 775 162 c 1,16,-1
 799 15 l 1,17,18
 687 -15 687 -15 577 -15 c 0,19,20
 430 -15 430 -15 373 60 c 1,21,22
 313 -15 313 -15 198 -15 c 0,23,24
 107 -15 107 -15 61 23.5 c 128,-1,25
 15 62 15 62 15 150 c 0,26,27
 15 330 15 330 287 330 c 2,28,-1
 327 330 l 1,29,-1
 327 366 l 1,30,31
 295 368 295 368 274 368 c 0,32,33
 161 368 161 368 80 341 c 1,34,-1
 56 484 l 1,0,1
527 327 m 2,35,-1
 527 286 l 1,36,-1
 568 286 l 2,37,38
 604 286 604 286 620.5 293.5 c 128,-1,39
 637 301 637 301 637 328 c 2,40,-1
 637 369 l 1,41,-1
 596 369 l 2,42,43
 560 369 560 369 543.5 361.5 c 128,-1,44
 527 354 527 354 527 327 c 2,35,-1
217 172 m 2,45,-1
 217 131 l 1,46,-1
 258 131 l 2,47,48
 292 131 292 131 308.5 137.5 c 128,-1,49
 325 144 325 144 327 167 c 1,50,-1
 327 214 l 1,51,-1
 286 214 l 2,52,53
 250 214 250 214 233.5 206.5 c 128,-1,54
 217 199 217 199 217 172 c 2,45,-1
EndSplineSet
Substitution2: "'smcp' Lowercase to Small Capitals in Latin lookup 3 subtable" .notdef
EndChar

StartChar: egrave
Encoding: 232 232 167
Width: 565
GlyphClass: 2
Flags: W
LayerCount: 2
Fore
SplineSet
245 170 m 1,0,-1
 245 135 l 1,1,2
 275 132 275 132 304 132 c 0,3,4
 400 132 400 132 493 162 c 1,5,-1
 517 15 l 1,6,7
 405 -15 405 -15 295 -15 c 0,8,9
 155 -15 155 -15 92.5 50.5 c 128,-1,10
 30 116 30 116 30 250 c 128,-1,11
 30 384 30 384 92.5 449.5 c 128,-1,12
 155 515 155 515 294.5 515 c 128,-1,13
 434 515 434 515 487 477 c 128,-1,14
 540 439 540 439 540 335 c 0,15,16
 540 247 540 247 476.5 208.5 c 128,-1,17
 413 170 413 170 245 170 c 1,0,-1
245 327 m 2,18,-1
 245 286 l 1,19,-1
 286 286 l 2,20,21
 322 286 322 286 338.5 293.5 c 128,-1,22
 355 301 355 301 355 328 c 2,23,-1
 355 369 l 1,24,-1
 314 369 l 2,25,26
 278 369 278 369 261.5 361.5 c 128,-1,27
 245 354 245 354 245 327 c 2,18,-1
353 539 m 1,28,-1
 179 574 l 2,29,30
 163 577 163 577 153 586 c 2,31,-1
 108 625 l 1,32,33
 104 631 104 631 104 637.5 c 128,-1,34
 104 644 104 644 113 654 c 2,35,-1
 176 728 l 2,36,37
 185 739 185 739 192 739 c 128,-1,38
 199 739 199 739 205 735 c 2,39,-1
 394 596 l 1,40,-1
 353 539 l 1,28,-1
EndSplineSet
Substitution2: "'smcp' Lowercase to Small Capitals in Latin lookup 3 subtable" .notdef
EndChar

StartChar: ecircumflex
Encoding: 234 234 169
Width: 565
GlyphClass: 2
Flags: W
LayerCount: 2
Fore
SplineSet
245 170 m 1,0,-1
 245 135 l 1,1,2
 275 132 275 132 304 132 c 0,3,4
 400 132 400 132 493 162 c 1,5,-1
 517 15 l 1,6,7
 405 -15 405 -15 295 -15 c 0,8,9
 155 -15 155 -15 92.5 50.5 c 128,-1,10
 30 116 30 116 30 250 c 128,-1,11
 30 384 30 384 92.5 449.5 c 128,-1,12
 155 515 155 515 294.5 515 c 128,-1,13
 434 515 434 515 487 477 c 128,-1,14
 540 439 540 439 540 335 c 0,15,16
 540 247 540 247 476.5 208.5 c 128,-1,17
 413 170 413 170 245 170 c 1,0,-1
245 327 m 2,18,-1
 245 286 l 1,19,-1
 286 286 l 2,20,21
 322 286 322 286 338.5 293.5 c 128,-1,22
 355 301 355 301 355 328 c 2,23,-1
 355 369 l 1,24,-1
 314 369 l 2,25,26
 278 369 278 369 261.5 361.5 c 128,-1,27
 245 354 245 354 245 327 c 2,18,-1
260 740 m 2,28,-1
 308 740 l 2,29,30
 315 740 315 740 324 731 c 1,31,-1
 437 586 l 1,32,-1
 377 537 l 1,33,-1
 284 600 l 1,34,-1
 191 537 l 1,35,-1
 131 586 l 1,36,-1
 244 731 l 1,37,38
 253 740 253 740 260 740 c 2,28,-1
EndSplineSet
Substitution2: "'smcp' Lowercase to Small Capitals in Latin lookup 3 subtable" .notdef
EndChar

StartChar: igrave
Encoding: 236 236 171
Width: 300
GlyphClass: 2
Flags: W
LayerCount: 2
Fore
SplineSet
50 0 m 1,0,-1
 50 475 l 1,1,-1
 250 500 l 1,2,-1
 250 0 l 1,3,-1
 50 0 l 1,0,-1
221 539 m 1,4,-1
 47 574 l 2,5,6
 31 577 31 577 21 586 c 2,7,-1
 -24 625 l 1,8,9
 -28 631 -28 631 -28 637.5 c 128,-1,10
 -28 644 -28 644 -19 654 c 2,11,-1
 44 728 l 2,12,13
 53 739 53 739 60 739 c 128,-1,14
 67 739 67 739 73 735 c 2,15,-1
 262 596 l 1,16,-1
 221 539 l 1,4,-1
EndSplineSet
Substitution2: "'smcp' Lowercase to Small Capitals in Latin lookup 3 subtable" .notdef
EndChar

StartChar: icircumflex
Encoding: 238 238 173
Width: 300
GlyphClass: 2
Flags: W
LayerCount: 2
Fore
SplineSet
50 0 m 1,0,-1
 50 475 l 1,1,-1
 250 500 l 1,2,-1
 250 0 l 1,3,-1
 50 0 l 1,0,-1
123 740 m 2,4,-1
 171 740 l 2,5,6
 178 740 178 740 187 731 c 1,7,-1
 300 586 l 1,8,-1
 240 537 l 1,9,-1
 147 600 l 1,10,-1
 54 537 l 1,11,-1
 -6 586 l 1,12,-1
 107 731 l 1,13,14
 116 740 116 740 123 740 c 2,4,-1
EndSplineSet
Substitution2: "'smcp' Lowercase to Small Capitals in Latin lookup 3 subtable" .notdef
EndChar

StartChar: eth
Encoding: 240 240 175
Width: 590
GlyphClass: 2
Flags: W
LayerCount: 2
Fore
SplineSet
334 665 m 1,0,-1
 388 599 l 1,1,-1
 495 634 l 1,2,-1
 510 581 l 1,3,4
 510 566 510 566 502.5 559.5 c 128,-1,5
 495 553 495 553 473 546 c 2,6,-1
 436 534 l 1,7,8
 560 352 560 352 560 215 c 0,9,10
 560 107 560 107 496 46 c 128,-1,11
 432 -15 432 -15 298 -15 c 128,-1,12
 164 -15 164 -15 97 39.5 c 128,-1,13
 30 94 30 94 30 171 c 128,-1,14
 30 248 30 248 89.5 306 c 128,-1,15
 149 364 149 364 245 364 c 2,16,-1
 322 364 l 1,17,-1
 260 476 l 1,18,-1
 158 443 l 1,19,-1
 143 496 l 1,20,21
 143 511 143 511 150.5 517.5 c 128,-1,22
 158 524 158 524 180 531 c 2,23,-1
 222 545 l 1,24,-1
 163 652 l 1,25,-1
 334 665 l 1,0,-1
245 184 m 2,26,-1
 245 131 l 1,27,-1
 276 131 l 2,28,29
 312 131 312 131 328.5 138.5 c 128,-1,30
 345 146 345 146 345 173 c 2,31,-1
 345 226 l 1,32,-1
 314 226 l 2,33,34
 278 226 278 226 261.5 218.5 c 128,-1,35
 245 211 245 211 245 184 c 2,26,-1
EndSplineSet
Substitution2: "'smcp' Lowercase to Small Capitals in Latin lookup 3 subtable" .notdef
EndChar

StartChar: ocircumflex
Encoding: 244 244 179
Width: 590
GlyphClass: 2
Flags: W
LayerCount: 2
Fore
SplineSet
30 250 m 128,-1,1
 30 384 30 384 92.5 449.5 c 128,-1,2
 155 515 155 515 295 515 c 128,-1,3
 435 515 435 515 497.5 449.5 c 128,-1,4
 560 384 560 384 560 250 c 128,-1,5
 560 116 560 116 497.5 50.5 c 128,-1,6
 435 -15 435 -15 295 -15 c 128,-1,7
 155 -15 155 -15 92.5 50.5 c 128,-1,0
 30 116 30 116 30 250 c 128,-1,1
245 327 m 2,8,-1
 245 131 l 1,9,-1
 276 131 l 2,10,11
 312 131 312 131 328.5 138.5 c 128,-1,12
 345 146 345 146 345 173 c 2,13,-1
 345 369 l 1,14,-1
 314 369 l 2,15,16
 278 369 278 369 261.5 361.5 c 128,-1,17
 245 354 245 354 245 327 c 2,8,-1
270 740 m 2,18,-1
 318 740 l 2,19,20
 325 740 325 740 334 731 c 1,21,-1
 447 586 l 1,22,-1
 387 537 l 1,23,-1
 294 600 l 1,24,-1
 201 537 l 1,25,-1
 141 586 l 1,26,-1
 254 731 l 1,27,28
 263 740 263 740 270 740 c 2,18,-1
EndSplineSet
Substitution2: "'smcp' Lowercase to Small Capitals in Latin lookup 3 subtable" .notdef
EndChar

StartChar: otilde
Encoding: 245 245 180
Width: 590
GlyphClass: 2
Flags: W
LayerCount: 2
Fore
SplineSet
30 250 m 128,-1,1
 30 384 30 384 92.5 449.5 c 128,-1,2
 155 515 155 515 295 515 c 128,-1,3
 435 515 435 515 497.5 449.5 c 128,-1,4
 560 384 560 384 560 250 c 128,-1,5
 560 116 560 116 497.5 50.5 c 128,-1,6
 435 -15 435 -15 295 -15 c 128,-1,7
 155 -15 155 -15 92.5 50.5 c 128,-1,0
 30 116 30 116 30 250 c 128,-1,1
245 327 m 2,8,-1
 245 131 l 1,9,-1
 276 131 l 2,10,11
 312 131 312 131 328.5 138.5 c 128,-1,12
 345 146 345 146 345 173 c 2,13,-1
 345 369 l 1,14,-1
 314 369 l 2,15,16
 278 369 278 369 261.5 361.5 c 128,-1,17
 245 354 245 354 245 327 c 2,8,-1
438 716 m 1,18,-1
 488 635 l 1,19,20
 369 555 369 555 354.5 549 c 128,-1,21
 340 543 340 543 326 543 c 128,-1,22
 312 543 312 543 303.5 545 c 128,-1,23
 295 547 295 547 285 552.5 c 128,-1,24
 275 558 275 558 269.5 562 c 128,-1,25
 264 566 264 566 251.5 575 c 128,-1,26
 239 584 239 584 234 588 c 1,27,-1
 152 548 l 1,28,-1
 102 629 l 1,29,30
 221 709 221 709 235.5 715 c 128,-1,31
 250 721 250 721 264 721 c 128,-1,32
 278 721 278 721 286.5 719 c 128,-1,33
 295 717 295 717 305 711.5 c 128,-1,34
 315 706 315 706 320.5 702 c 128,-1,35
 326 698 326 698 338.5 689 c 128,-1,36
 351 680 351 680 356 676 c 1,37,-1
 438 716 l 1,18,-1
EndSplineSet
Substitution2: "'smcp' Lowercase to Small Capitals in Latin lookup 3 subtable" .notdef
EndChar

StartChar: divide
Encoding: 247 247 182
Width: 600
GlyphClass: 2
Flags: W
LayerCount: 2
Fore
SplineSet
72 240 m 1,0,-1
 72 384 l 1,1,-1
 527 384 l 1,2,-1
 527 240 l 1,3,-1
 72 240 l 1,0,-1
377 547 m 2,4,-1
 377 457 l 2,5,6
 377 428 377 428 338 428 c 2,7,-1
 258 428 l 2,8,9
 219 428 219 428 219 457 c 2,10,-1
 219 547 l 2,11,12
 219 575 219 575 258 575 c 2,13,-1
 338 575 l 2,14,15
 377 575 377 575 377 547 c 2,4,-1
377 167 m 2,16,-1
 377 77 l 2,17,18
 377 48 377 48 338 48 c 2,19,-1
 258 48 l 2,20,21
 219 48 219 48 219 77 c 2,22,-1
 219 167 l 2,23,24
 219 195 219 195 258 195 c 2,25,-1
 338 195 l 2,26,27
 377 195 377 195 377 167 c 2,16,-1
EndSplineSet
EndChar

StartChar: oslash
Encoding: 248 248 183
Width: 590
GlyphClass: 2
Flags: W
LayerCount: 2
Fore
SplineSet
240 100 m 1,0,-1
 179 100 l 1,1,-1
 351 400 l 1,2,-1
 412 400 l 1,3,-1
 240 100 l 1,0,-1
151 85 m 1,4,-1
 251 85 l 1,5,-1
 157 -79 l 2,6,7
 152 -89 152 -89 148 -93 c 0,8,9
 137 -104 137 -104 114 -104 c 2,10,-1
 43 -104 l 1,11,-1
 151 85 l 1,4,-1
444 422 m 1,12,-1
 344 422 l 1,13,-1
 432 576 l 2,14,15
 437 586 437 586 441 590 c 0,16,17
 452 601 452 601 475 601 c 2,18,-1
 546 601 l 1,19,-1
 444 422 l 1,12,-1
30 250 m 128,-1,21
 30 384 30 384 92.5 449.5 c 128,-1,22
 155 515 155 515 295 515 c 128,-1,23
 435 515 435 515 497.5 449.5 c 128,-1,24
 560 384 560 384 560 250 c 128,-1,25
 560 116 560 116 497.5 50.5 c 128,-1,26
 435 -15 435 -15 295 -15 c 128,-1,27
 155 -15 155 -15 92.5 50.5 c 128,-1,20
 30 116 30 116 30 250 c 128,-1,21
245 327 m 2,28,-1
 245 131 l 1,29,-1
 276 131 l 2,30,31
 312 131 312 131 328.5 138.5 c 128,-1,32
 345 146 345 146 345 173 c 2,33,-1
 345 369 l 1,34,-1
 314 369 l 2,35,36
 278 369 278 369 261.5 361.5 c 128,-1,37
 245 354 245 354 245 327 c 2,28,-1
EndSplineSet
Substitution2: "'smcp' Lowercase to Small Capitals in Latin lookup 3 subtable" .notdef
EndChar

StartChar: ugrave
Encoding: 249 249 184
Width: 590
GlyphClass: 2
Flags: W
LayerCount: 2
Fore
SplineSet
240 500 m 1,0,-1
 240 131 l 1,1,-1
 271 131 l 2,2,3
 307 131 307 131 323.5 138.5 c 128,-1,4
 340 146 340 146 340 173 c 2,5,-1
 340 500 l 1,6,-1
 540 500 l 1,7,-1
 540 0 l 1,8,-1
 440 0 l 1,9,-1
 382 57 l 1,10,11
 322 -15 322 -15 211 -15 c 0,12,13
 122 -15 122 -15 81 23 c 128,-1,14
 40 61 40 61 40 150 c 2,15,-1
 40 500 l 1,16,-1
 240 500 l 1,0,-1
368 539 m 1,17,-1
 194 574 l 2,18,19
 178 577 178 577 168 586 c 2,20,-1
 123 625 l 1,21,22
 119 631 119 631 119 637.5 c 128,-1,23
 119 644 119 644 128 654 c 2,24,-1
 191 728 l 2,25,26
 200 739 200 739 207 739 c 128,-1,27
 214 739 214 739 220 735 c 2,28,-1
 409 596 l 1,29,-1
 368 539 l 1,17,-1
EndSplineSet
Substitution2: "'smcp' Lowercase to Small Capitals in Latin lookup 3 subtable" .notdef
EndChar

StartChar: ucircumflex
Encoding: 251 251 186
Width: 590
GlyphClass: 2
Flags: W
LayerCount: 2
Fore
SplineSet
240 500 m 1,0,-1
 240 131 l 1,1,-1
 271 131 l 2,2,3
 307 131 307 131 323.5 138.5 c 128,-1,4
 340 146 340 146 340 173 c 2,5,-1
 340 500 l 1,6,-1
 540 500 l 1,7,-1
 540 0 l 1,8,-1
 440 0 l 1,9,-1
 382 57 l 1,10,11
 322 -15 322 -15 211 -15 c 0,12,13
 122 -15 122 -15 81 23 c 128,-1,14
 40 61 40 61 40 150 c 2,15,-1
 40 500 l 1,16,-1
 240 500 l 1,0,-1
270 740 m 2,17,-1
 318 740 l 2,18,19
 325 740 325 740 334 731 c 1,20,-1
 447 586 l 1,21,-1
 387 537 l 1,22,-1
 294 600 l 1,23,-1
 201 537 l 1,24,-1
 141 586 l 1,25,-1
 254 731 l 1,26,27
 263 740 263 740 270 740 c 2,17,-1
EndSplineSet
Substitution2: "'smcp' Lowercase to Small Capitals in Latin lookup 3 subtable" .notdef
EndChar

StartChar: thorn
Encoding: 254 254 189
Width: 420
GlyphClass: 2
Flags: W
LayerCount: 2
Fore
SplineSet
-47 650 m 1,0,-1
 153 665 l 1,1,-1
 153 499 l 1,2,3
 191 515 191 515 252.5 515 c 128,-1,4
 314 515 314 515 358 492 c 128,-1,5
 402 469 402 469 425 429 c 0,6,7
 468 354 468 354 468 250 c 0,8,9
 468 109 468 109 403 47 c 128,-1,10
 338 -15 338 -15 212 -15 c 0,11,12
 193 -15 193 -15 153 -13 c 1,13,-1
 153 -150 l 1,14,-1
 -47 -165 l 1,15,-1
 -47 650 l 1,0,-1
153 332 m 1,16,-1
 153 131 l 1,17,-1
 184 131 l 2,18,19
 220 131 220 131 236.5 138.5 c 128,-1,20
 253 146 253 146 253 173 c 2,21,-1
 253 369 l 1,22,-1
 222 369 l 2,23,24
 200 369 200 369 187 367 c 128,-1,25
 174 365 174 365 164 356.5 c 128,-1,26
 154 348 154 348 153 332 c 1,16,-1
EndSplineSet
Substitution2: "'smcp' Lowercase to Small Capitals in Latin lookup 3 subtable" .notdef
EndChar

StartChar: ydieresis
Encoding: 255 255 190
Width: 520
GlyphClass: 2
Flags: W
LayerCount: 2
Fore
SplineSet
112 52 m 1,0,-1
 0 500 l 1,1,-1
 200 500 l 1,2,-1
 255 175 l 1,3,-1
 265 175 l 1,4,-1
 320 500 l 1,5,-1
 520 500 l 1,6,-1
 395 0 l 1,7,8
 367 -98 367 -98 325 -131.5 c 128,-1,9
 283 -165 283 -165 204 -165 c 2,10,-1
 10 -165 l 1,11,-1
 10 -35 l 1,12,-1
 104 -17 l 1,13,14
 176 -1 176 -1 198 19 c 0,15,16
 210 30 210 30 218 46 c 1,17,-1
 217 52 l 1,18,-1
 112 52 l 1,0,-1
87.5 569 m 128,-1,20
 71 586 71 586 71 629.5 c 128,-1,21
 71 673 71 673 87.5 690.5 c 128,-1,22
 104 708 104 708 150.5 708 c 128,-1,23
 197 708 197 708 213.5 690.5 c 128,-1,24
 230 673 230 673 230 629.5 c 128,-1,25
 230 586 230 586 214 569 c 128,-1,26
 198 552 198 552 151 552 c 128,-1,19
 104 552 104 552 87.5 569 c 128,-1,20
306.5 569 m 128,-1,28
 290 586 290 586 290 629.5 c 128,-1,29
 290 673 290 673 306.5 690.5 c 128,-1,30
 323 708 323 708 369.5 708 c 128,-1,31
 416 708 416 708 432.5 690.5 c 128,-1,32
 449 673 449 673 449 629.5 c 128,-1,33
 449 586 449 586 433 569 c 128,-1,34
 417 552 417 552 370 552 c 128,-1,27
 323 552 323 552 306.5 569 c 128,-1,28
EndSplineSet
Substitution2: "'smcp' Lowercase to Small Capitals in Latin lookup 3 subtable" .notdef
EndChar

StartChar: dotlessi
Encoding: 305 305 191
Width: 300
GlyphClass: 2
Flags: W
LayerCount: 2
Fore
SplineSet
50 0 m 1,0,-1
 50 475 l 1,1,-1
 250 500 l 1,2,-1
 250 0 l 1,3,-1
 50 0 l 1,0,-1
EndSplineSet
EndChar

StartChar: Lslash
Encoding: 321 321 192
Width: 455
GlyphClass: 2
Flags: W
LayerCount: 2
Fore
SplineSet
0 220 m 1,0,1
 -33 321 -33 321 -33 328 c 0,2,3
 -33 351 -33 351 17 367 c 2,4,-1
 319 466 l 1,5,6
 351 365 351 365 351 354 c 0,7,8
 351 334 351 334 301 318 c 2,9,-1
 0 220 l 1,0,1
450 0 m 1,10,-1
 50 0 l 1,11,-1
 50 625 l 1,12,-1
 250 625 l 1,13,-1
 250 160 l 1,14,-1
 450 160 l 1,15,-1
 450 0 l 1,10,-1
EndSplineSet
EndChar

StartChar: lslash
Encoding: 322 322 193
Width: 309
GlyphClass: 2
Flags: W
LayerCount: 2
Fore
SplineSet
0 220 m 1,0,1
 -33 321 -33 321 -33 328 c 0,2,3
 -33 351 -33 351 17 367 c 2,4,-1
 319 466 l 1,5,6
 351 365 351 365 351 354 c 0,7,8
 351 334 351 334 301 318 c 2,9,-1
 0 220 l 1,0,1
250 665 m 1,10,-1
 250 143 l 1,11,12
 282 137 282 137 299 136 c 1,13,-1
 290 -11 l 1,14,15
 162 -11 162 -11 121 4 c 0,16,17
 70 23 70 23 58 52 c 0,18,19
 50 70 50 70 50 94 c 2,20,-1
 50 650 l 1,21,-1
 250 665 l 1,10,-1
EndSplineSet
Substitution2: "'smcp' Lowercase to Small Capitals in Latin lookup 3 subtable" .notdef
EndChar

StartChar: OE
Encoding: 338 338 194
Width: 856
GlyphClass: 2
Flags: W
LayerCount: 2
Fore
SplineSet
821 0 m 1,0,-1
 441 0 l 1,1,2
 388 -15 388 -15 308.5 -15 c 128,-1,3
 229 -15 229 -15 171 5 c 128,-1,4
 113 25 113 25 80 68 c 128,-1,5
 47 111 47 111 33.5 169 c 128,-1,6
 20 227 20 227 20 312 c 0,7,8
 20 483 20 483 84 561.5 c 128,-1,9
 148 640 148 640 315 640 c 0,10,11
 388 640 388 640 441 625 c 1,12,-1
 816 625 l 1,13,-1
 791 465 l 1,14,-1
 596 465 l 1,15,-1
 596 381 l 1,16,-1
 776 381 l 1,17,-1
 776 236 l 1,18,-1
 596 236 l 1,19,-1
 596 160 l 1,20,-1
 821 160 l 1,21,-1
 821 0 l 1,0,-1
235 416 m 2,22,-1
 235 156 l 1,23,-1
 318 156 l 2,24,25
 344 156 344 156 358 158.5 c 128,-1,26
 372 161 372 161 383.5 171.5 c 128,-1,27
 395 182 395 182 396 202 c 1,28,-1
 396 469 l 1,29,-1
 312 469 l 2,30,31
 272 469 272 469 253.5 459.5 c 128,-1,32
 235 450 235 450 235 416 c 2,22,-1
EndSplineSet
EndChar

StartChar: oe
Encoding: 339 339 195
Width: 887
GlyphClass: 2
Flags: W
LayerCount: 2
Fore
SplineSet
30 250 m 128,-1,1
 30 384 30 384 92.5 449.5 c 128,-1,2
 155 515 155 515 295 515 c 128,-1,3
 435 515 435 515 497.5 449.5 c 128,-1,4
 560 384 560 384 560 250 c 128,-1,5
 560 116 560 116 497.5 50.5 c 128,-1,6
 435 -15 435 -15 295 -15 c 128,-1,7
 155 -15 155 -15 92.5 50.5 c 128,-1,0
 30 116 30 116 30 250 c 128,-1,1
245 327 m 2,8,-1
 245 131 l 1,9,-1
 276 131 l 2,10,11
 312 131 312 131 328.5 138.5 c 128,-1,12
 345 146 345 146 345 173 c 2,13,-1
 345 369 l 1,14,-1
 314 369 l 2,15,16
 278 369 278 369 261.5 361.5 c 128,-1,17
 245 354 245 354 245 327 c 2,8,-1
562 170 m 1,18,-1
 562 135 l 1,19,20
 592 132 592 132 621 132 c 0,21,22
 717 132 717 132 810 162 c 1,23,-1
 834 15 l 1,24,25
 722 -15 722 -15 612 -15 c 0,26,27
 472 -15 472 -15 409.5 50.5 c 128,-1,28
 347 116 347 116 347 250 c 128,-1,29
 347 384 347 384 409.5 449.5 c 128,-1,30
 472 515 472 515 611.5 515 c 128,-1,31
 751 515 751 515 804 477 c 128,-1,32
 857 439 857 439 857 335 c 0,33,34
 857 247 857 247 793.5 208.5 c 128,-1,35
 730 170 730 170 562 170 c 1,18,-1
562 327 m 2,36,-1
 562 286 l 1,37,-1
 603 286 l 2,38,39
 639 286 639 286 655.5 293.5 c 128,-1,40
 672 301 672 301 672 328 c 2,41,-1
 672 369 l 1,42,-1
 631 369 l 2,43,44
 595 369 595 369 578.5 361.5 c 128,-1,45
 562 354 562 354 562 327 c 2,36,-1
EndSplineSet
Substitution2: "'smcp' Lowercase to Small Capitals in Latin lookup 3 subtable" .notdef
EndChar

StartChar: Ydieresis
Encoding: 376 376 198
Width: 560
GlyphClass: 2
Flags: W
LayerCount: 2
Fore
SplineSet
221 625 m 1,0,-1
 276 405 l 1,1,-1
 283 405 l 1,2,-1
 339 625 l 1,3,-1
 560 625 l 1,4,-1
 380 170 l 1,5,-1
 380 0 l 1,6,-1
 180 0 l 1,7,-1
 180 170 l 1,8,-1
 0 625 l 1,9,-1
 221 625 l 1,0,-1
107.5 693 m 128,-1,11
 91 710 91 710 91 753.5 c 128,-1,12
 91 797 91 797 107.5 814.5 c 128,-1,13
 124 832 124 832 170.5 832 c 128,-1,14
 217 832 217 832 233.5 814.5 c 128,-1,15
 250 797 250 797 250 753.5 c 128,-1,16
 250 710 250 710 234 693 c 128,-1,17
 218 676 218 676 171 676 c 128,-1,10
 124 676 124 676 107.5 693 c 128,-1,11
326.5 693 m 128,-1,19
 310 710 310 710 310 753.5 c 128,-1,20
 310 797 310 797 326.5 814.5 c 128,-1,21
 343 832 343 832 389.5 832 c 128,-1,22
 436 832 436 832 452.5 814.5 c 128,-1,23
 469 797 469 797 469 753.5 c 128,-1,24
 469 710 469 710 453 693 c 128,-1,25
 437 676 437 676 390 676 c 128,-1,18
 343 676 343 676 326.5 693 c 128,-1,19
EndSplineSet
EndChar

StartChar: florin
Encoding: 402 402 201
Width: 479
GlyphClass: 2
Flags: W
LayerCount: 2
Fore
SplineSet
329 428 m 2,0,-1
 326 369 l 1,1,-1
 439 369 l 1,2,-1
 429 262 l 1,3,-1
 322 262 l 1,4,-1
 311 0 l 1,5,6
 303 -165 303 -165 156 -165 c 2,7,-1
 11 -165 l 1,8,-1
 11 -35 l 1,9,-1
 63 -25 l 2,10,11
 86 -21 86 -21 98 -12.5 c 128,-1,12
 110 -4 110 -4 111 15 c 2,13,-1
 121 262 l 1,14,-1
 45 262 l 1,15,-1
 45 369 l 1,16,-1
 126 369 l 1,17,-1
 129 443 l 2,18,19
 133 543 133 543 176 592 c 128,-1,20
 219 641 219 641 308 641 c 128,-1,21
 397 641 397 641 479 622 c 1,22,-1
 449 477 l 1,23,-1
 402 477 l 2,24,25
 367 477 367 477 348.5 468 c 128,-1,26
 330 459 330 459 329 428 c 2,0,-1
EndSplineSet
Substitution2: "'onum' Oldstyle Figures in Latin lookup 4 subtable" .notdef
EndChar

StartChar: circumflex
Encoding: 710 710 202
Width: 385
GlyphClass: 2
Flags: W
LayerCount: 2
Fore
SplineSet
168 740 m 2,0,-1
 216 740 l 2,1,2
 223 740 223 740 232 731 c 1,3,-1
 345 586 l 1,4,-1
 285 537 l 1,5,-1
 192 600 l 1,6,-1
 99 537 l 1,7,-1
 39 586 l 1,8,-1
 152 731 l 1,9,10
 161 740 161 740 168 740 c 2,0,-1
EndSplineSet
Substitution2: "'smcp' Lowercase to Small Capitals in Latin lookup 3 subtable" .notdef
EndChar

StartChar: caron
Encoding: 711 711 203
Width: 385
GlyphClass: 2
Flags: W
LayerCount: 2
Fore
SplineSet
216 537 m 2,0,-1
 168 537 l 2,1,2
 161 537 161 537 152 546 c 1,3,-1
 39 691 l 1,4,-1
 99 740 l 1,5,-1
 192 677 l 1,6,-1
 285 740 l 1,7,-1
 345 691 l 1,8,-1
 232 546 l 1,9,10
 223 537 223 537 216 537 c 2,0,-1
EndSplineSet
Substitution2: "'smcp' Lowercase to Small Capitals in Latin lookup 3 subtable" .notdef
EndChar

StartChar: breve
Encoding: 728 728 204
Width: 385
GlyphClass: 2
Flags: W
LayerCount: 2
Fore
SplineSet
127 704 m 1,0,1
 133 678 133 678 151.5 663.5 c 128,-1,2
 170 649 170 649 192 649 c 128,-1,3
 214 649 214 649 232.5 663.5 c 128,-1,4
 251 678 251 678 257 704 c 1,5,-1
 363 689 l 1,6,7
 347 622 347 622 299.5 586 c 128,-1,8
 252 550 252 550 192 550 c 128,-1,9
 132 550 132 550 84 586 c 128,-1,10
 36 622 36 622 21 689 c 1,11,-1
 127 704 l 1,0,1
EndSplineSet
Substitution2: "'smcp' Lowercase to Small Capitals in Latin lookup 3 subtable" .notdef
EndChar

StartChar: dotaccent
Encoding: 729 729 205
Width: 265
GlyphClass: 2
Flags: W
LayerCount: 2
Fore
SplineSet
56.5 557 m 128,-1,1
 37 577 37 577 37 631.5 c 128,-1,2
 37 686 37 686 56.5 707.5 c 128,-1,3
 76 729 76 729 132.5 729 c 128,-1,4
 189 729 189 729 208.5 707.5 c 128,-1,5
 228 686 228 686 228 631.5 c 128,-1,6
 228 577 228 577 209 557 c 128,-1,7
 190 537 190 537 133 537 c 128,-1,0
 76 537 76 537 56.5 557 c 128,-1,1
EndSplineSet
Substitution2: "'smcp' Lowercase to Small Capitals in Latin lookup 3 subtable" .notdef
EndChar

StartChar: ring
Encoding: 730 730 206
Width: 265
GlyphClass: 2
Flags: W
LayerCount: 2
Fore
SplineSet
44 555.5 m 128,-1,1
 17 584 17 584 17 642.5 c 128,-1,2
 17 701 17 701 44 729.5 c 128,-1,3
 71 758 71 758 132.5 758 c 128,-1,4
 194 758 194 758 221 729.5 c 128,-1,5
 248 701 248 701 248 642.5 c 128,-1,6
 248 584 248 584 221 555.5 c 128,-1,7
 194 527 194 527 132.5 527 c 128,-1,0
 71 527 71 527 44 555.5 c 128,-1,1
90 664 m 2,8,-1
 90 596 l 1,9,-1
 132 596 l 2,10,11
 147 596 147 596 154 597 c 0,12,13
 174 600 174 600 174 622 c 2,14,-1
 174 689 l 1,15,-1
 135 689 l 2,16,17
 105 689 105 689 97.5 682 c 128,-1,18
 90 675 90 675 90 664 c 2,8,-1
EndSplineSet
Substitution2: "'smcp' Lowercase to Small Capitals in Latin lookup 3 subtable" .notdef
EndChar

StartChar: ogonek
Encoding: 731 731 207
Width: 500
GlyphClass: 2
Flags: W
LayerCount: 2
Fore
SplineSet
300 21 m 1,0,-1
 319 0 l 1,1,-1
 265 -26 l 1,2,3
 265 -47 265 -47 271 -52.5 c 128,-1,4
 277 -58 277 -58 298 -58 c 2,5,-1
 347 -58 l 1,6,-1
 358 -146 l 1,7,8
 298 -165 298 -165 248.5 -165 c 128,-1,9
 199 -165 199 -165 170.5 -141 c 128,-1,10
 142 -117 142 -117 142 -81 c 0,11,12
 142 -15 142 -15 220 21 c 1,13,-1
 300 21 l 1,0,-1
EndSplineSet
Substitution2: "'smcp' Lowercase to Small Capitals in Latin lookup 3 subtable" .notdef
EndChar

StartChar: tilde
Encoding: 732 732 208
Width: 458
GlyphClass: 2
Flags: W
LayerCount: 2
Fore
SplineSet
372 716 m 1,0,-1
 422 635 l 1,1,2
 303 555 303 555 288.5 549 c 128,-1,3
 274 543 274 543 260 543 c 128,-1,4
 246 543 246 543 237.5 545 c 128,-1,5
 229 547 229 547 219 552.5 c 128,-1,6
 209 558 209 558 203.5 562 c 128,-1,7
 198 566 198 566 185.5 575 c 128,-1,8
 173 584 173 584 168 588 c 1,9,-1
 86 548 l 1,10,-1
 36 629 l 1,11,12
 155 709 155 709 169.5 715 c 128,-1,13
 184 721 184 721 198 721 c 128,-1,14
 212 721 212 721 220.5 719 c 128,-1,15
 229 717 229 717 239 711.5 c 128,-1,16
 249 706 249 706 254.5 702 c 128,-1,17
 260 698 260 698 272.5 689 c 128,-1,18
 285 680 285 680 290 676 c 1,19,-1
 372 716 l 1,0,-1
EndSplineSet
Substitution2: "'smcp' Lowercase to Small Capitals in Latin lookup 3 subtable" .notdef
EndChar

StartChar: hungarumlaut
Encoding: 733 733 209
Width: 599
GlyphClass: 2
Flags: W
LayerCount: 2
Fore
SplineSet
88 530 m 1,0,-1
 48 589 l 1,1,-1
 188 729 l 1,2,3
 197 740 197 740 203.5 740.5 c 128,-1,4
 210 741 210 741 222 729 c 1,5,-1
 285 655 l 2,6,7
 292 647 292 647 292 638 c 128,-1,8
 292 629 292 629 283 620 c 2,9,-1
 242 582 l 2,10,11
 233 573 233 573 209 566 c 2,12,-1
 88 530 l 1,0,-1
351 530 m 1,13,-1
 311 589 l 1,14,-1
 451 729 l 1,15,16
 460 740 460 740 466.5 740.5 c 128,-1,17
 473 741 473 741 485 729 c 1,18,-1
 548 655 l 2,19,20
 555 647 555 647 555 638 c 128,-1,21
 555 629 555 629 546 620 c 2,22,-1
 505 582 l 2,23,24
 496 573 496 573 472 566 c 2,25,-1
 351 530 l 1,13,-1
EndSplineSet
Substitution2: "'smcp' Lowercase to Small Capitals in Latin lookup 3 subtable" .notdef
EndChar

StartChar: pi
Encoding: 960 960 210
Width: 657
GlyphClass: 2
Flags: W
LayerCount: 2
Fore
SplineSet
55 500 m 1,0,-1
 477 500 l 1,1,2
 481 517 481 517 483 536 c 1,3,-1
 630 529 l 1,4,5
 630 416 630 416 612 384 c 1,6,7
 591 350 591 350 552 350 c 1,8,-1
 552 143 l 1,9,10
 584 137 584 137 601 136 c 1,11,-1
 592 -11 l 1,12,13
 464 -11 464 -11 423 4 c 0,14,15
 372 23 372 23 360 52 c 0,16,17
 352 70 352 70 352 94 c 2,18,-1
 352 350 l 1,19,-1
 345 350 l 1,20,21
 297 348 297 348 291 312 c 2,22,-1
 235 0 l 1,23,-1
 83 0 l 1,24,-1
 108 366 l 1,25,-1
 55 378 l 1,26,-1
 55 500 l 1,0,-1
EndSplineSet
EndChar

StartChar: endash
Encoding: 8211 8211 211
Width: 595
GlyphClass: 2
Flags: W
LayerCount: 2
Fore
SplineSet
25 200 m 1,0,-1
 25 308 l 2,1,2
 25 335 25 335 41.5 342.5 c 128,-1,3
 58 350 58 350 94 350 c 2,4,-1
 570 350 l 1,5,-1
 570 242 l 2,6,7
 570 215 570 215 553.5 207.5 c 128,-1,8
 537 200 537 200 501 200 c 2,9,-1
 25 200 l 1,0,-1
EndSplineSet
Position2: "'case' Case-Sensitive Forms in Latin lookup 0 per glyph data 1" dx=0 dy=70 dh=0 dv=0
EndChar

StartChar: emdash
Encoding: 8212 8212 212
Width: 854
GlyphClass: 2
Flags: W
LayerCount: 2
Fore
SplineSet
25 200 m 1,0,-1
 25 308 l 2,1,2
 25 335 25 335 41.5 342.5 c 128,-1,3
 58 350 58 350 94 350 c 2,4,-1
 829 350 l 1,5,-1
 829 242 l 2,6,7
 829 215 829 215 812.5 207.5 c 128,-1,8
 796 200 796 200 760 200 c 2,9,-1
 25 200 l 1,0,-1
EndSplineSet
Position2: "'case' Case-Sensitive Forms in Latin lookup 0 per glyph data 1" dx=0 dy=70 dh=0 dv=0
EndChar

StartChar: quoteleft
Encoding: 8216 8216 213
Width: 275
GlyphClass: 2
Flags: W
LayerCount: 2
Fore
SplineSet
221 472.5 m 128,-1,1
 234 455 234 455 234 408 c 128,-1,2
 234 361 234 361 212 337 c 128,-1,3
 190 313 190 313 125.5 313 c 128,-1,4
 61 313 61 313 39 337 c 128,-1,5
 17 361 17 361 17 420 c 2,6,-1
 17 432 l 1,7,8
 19 469 19 469 27 487.5 c 128,-1,9
 35 506 35 506 41.5 518 c 128,-1,10
 48 530 48 530 50 534 c 2,11,-1
 118 670 l 1,12,-1
 207 641 l 1,13,-1
 174 496 l 1,14,0
 208 490 208 490 221 472.5 c 128,-1,1
EndSplineSet
EndChar

StartChar: quoteright
Encoding: 8217 8217 214
Width: 275
GlyphClass: 2
Flags: W
LayerCount: 2
Fore
SplineSet
258 551 m 2,0,-1
 258 539 l 1,1,2
 255 495 255 495 233 452 c 0,3,4
 226 439 226 439 225 437 c 2,5,-1
 157 301 l 1,6,-1
 68 330 l 1,7,-1
 101 474 l 1,8,9
 66 480 66 480 53.5 497.5 c 128,-1,10
 41 515 41 515 41 562.5 c 128,-1,11
 41 610 41 610 63 634 c 128,-1,12
 85 658 85 658 149.5 658 c 128,-1,13
 214 658 214 658 236 634 c 128,-1,14
 258 610 258 610 258 551 c 2,0,-1
EndSplineSet
EndChar

StartChar: quotesinglbase
Encoding: 8218 8218 215
Width: 275
GlyphClass: 2
Flags: W
LayerCount: 2
Fore
SplineSet
258 101 m 2,0,-1
 258 89 l 1,1,2
 255 45 255 45 233 2 c 0,3,4
 226 -11 226 -11 225 -13 c 2,5,-1
 157 -149 l 1,6,-1
 68 -120 l 1,7,-1
 101 24 l 1,8,9
 66 30 66 30 53.5 47.5 c 128,-1,10
 41 65 41 65 41 112.5 c 128,-1,11
 41 160 41 160 63 184 c 128,-1,12
 85 208 85 208 149.5 208 c 128,-1,13
 214 208 214 208 236 184 c 128,-1,14
 258 160 258 160 258 101 c 2,0,-1
EndSplineSet
EndChar

StartChar: quotedblleft
Encoding: 8220 8220 216
Width: 525
GlyphClass: 2
Flags: W
LayerCount: 2
Fore
SplineSet
267 420 m 2,0,-1
 267 432 l 1,1,2
 269 469 269 469 277 487.5 c 128,-1,3
 285 506 285 506 291.5 518 c 128,-1,4
 298 530 298 530 300 534 c 2,5,-1
 368 670 l 1,6,-1
 457 641 l 1,7,-1
 424 496 l 1,8,9
 458 490 458 490 471 472.5 c 128,-1,10
 484 455 484 455 484 408 c 128,-1,11
 484 361 484 361 462 337 c 128,-1,12
 440 313 440 313 375.5 313 c 128,-1,13
 311 313 311 313 289 337 c 128,-1,14
 267 361 267 361 267 420 c 2,0,-1
221 472.5 m 128,-1,16
 234 455 234 455 234 408 c 128,-1,17
 234 361 234 361 212 337 c 128,-1,18
 190 313 190 313 125.5 313 c 128,-1,19
 61 313 61 313 39 337 c 128,-1,20
 17 361 17 361 17 420 c 2,21,-1
 17 432 l 1,22,23
 19 469 19 469 27 487.5 c 128,-1,24
 35 506 35 506 41.5 518 c 128,-1,25
 48 530 48 530 50 534 c 2,26,-1
 118 670 l 1,27,-1
 207 641 l 1,28,-1
 174 496 l 1,29,15
 208 490 208 490 221 472.5 c 128,-1,16
EndSplineSet
EndChar

StartChar: quotedblright
Encoding: 8221 8221 217
Width: 525
GlyphClass: 2
Flags: W
LayerCount: 2
Fore
SplineSet
53.5 497.5 m 128,-1,1
 41 515 41 515 41 562.5 c 128,-1,2
 41 610 41 610 63 634 c 128,-1,3
 85 658 85 658 149.5 658 c 128,-1,4
 214 658 214 658 236 634 c 128,-1,5
 258 610 258 610 258 551 c 2,6,-1
 258 539 l 1,7,8
 255 495 255 495 233 452 c 0,9,10
 226 439 226 439 225 437 c 2,11,-1
 157 301 l 1,12,-1
 68 330 l 1,13,-1
 101 474 l 1,14,0
 66 480 66 480 53.5 497.5 c 128,-1,1
303.5 497.5 m 128,-1,16
 291 515 291 515 291 562.5 c 128,-1,17
 291 610 291 610 313 634 c 128,-1,18
 335 658 335 658 399.5 658 c 128,-1,19
 464 658 464 658 486 634 c 128,-1,20
 508 610 508 610 508 551 c 2,21,-1
 508 541 l 1,22,23
 505 502 505 502 498 483 c 0,24,25
 484 450 484 450 475 437 c 1,26,-1
 407 301 l 1,27,-1
 318 330 l 1,28,-1
 351 474 l 1,29,15
 316 480 316 480 303.5 497.5 c 128,-1,16
EndSplineSet
EndChar

StartChar: quotedblbase
Encoding: 8222 8222 218
Width: 525
GlyphClass: 2
Flags: W
LayerCount: 2
Fore
SplineSet
53.5 47.5 m 128,-1,1
 41 65 41 65 41 112.5 c 128,-1,2
 41 160 41 160 63 184 c 128,-1,3
 85 208 85 208 149.5 208 c 128,-1,4
 214 208 214 208 236 184 c 128,-1,5
 258 160 258 160 258 101 c 2,6,-1
 258 89 l 1,7,8
 255 45 255 45 233 2 c 0,9,10
 226 -11 226 -11 225 -13 c 2,11,-1
 157 -149 l 1,12,-1
 68 -120 l 1,13,-1
 101 24 l 1,14,0
 66 30 66 30 53.5 47.5 c 128,-1,1
303.5 47.5 m 128,-1,16
 291 65 291 65 291 112.5 c 128,-1,17
 291 160 291 160 313 184 c 128,-1,18
 335 208 335 208 399.5 208 c 128,-1,19
 464 208 464 208 486 184 c 128,-1,20
 508 160 508 160 508 101 c 2,21,-1
 508 91 l 1,22,23
 505 52 505 52 498 33 c 0,24,25
 484 0 484 0 475 -13 c 1,26,-1
 407 -149 l 1,27,-1
 318 -120 l 1,28,-1
 351 24 l 1,29,15
 316 30 316 30 303.5 47.5 c 128,-1,16
EndSplineSet
EndChar

StartChar: dagger
Encoding: 8224 8224 219
Width: 540
GlyphClass: 2
Flags: W
LayerCount: 2
Fore
SplineSet
510 330 m 1,0,-1
 348 350 l 1,1,-1
 380 -50 l 1,2,-1
 160 -50 l 1,3,-1
 191 350 l 1,4,-1
 30 330 l 1,5,-1
 30 520 l 1,6,-1
 185 500 l 1,7,-1
 160 665 l 1,8,-1
 380 665 l 1,9,-1
 355 497 l 1,10,-1
 510 520 l 1,11,-1
 510 330 l 1,0,-1
EndSplineSet
EndChar

StartChar: daggerdbl
Encoding: 8225 8225 220
Width: 540
GlyphClass: 2
Flags: W
LayerCount: 2
Fore
SplineSet
510 330 m 1,0,-1
 351 350 l 1,1,-1
 347 307 l 1,2,-1
 351 264 l 1,3,-1
 510 285 l 1,4,-1
 510 95 l 1,5,-1
 364 116 l 1,6,-1
 380 -50 l 1,7,-1
 160 -50 l 1,8,-1
 175 116 l 1,9,-1
 30 95 l 1,10,-1
 30 285 l 1,11,-1
 189 265 l 1,12,-1
 193 307 l 1,13,-1
 189 350 l 1,14,-1
 30 330 l 1,15,-1
 30 520 l 1,16,-1
 175 499 l 1,17,-1
 160 665 l 1,18,-1
 380 665 l 1,19,-1
 364 499 l 1,20,-1
 510 520 l 1,21,-1
 510 330 l 1,0,-1
EndSplineSet
EndChar

StartChar: bullet
Encoding: 8226 8226 221
Width: 342
GlyphClass: 2
Flags: W
LayerCount: 2
Fore
SplineSet
30 249 m 128,-1,1
 30 326 30 326 59 357 c 128,-1,2
 88 388 88 388 171.5 388 c 128,-1,3
 255 388 255 388 283.5 357 c 128,-1,4
 312 326 312 326 312 249 c 128,-1,5
 312 172 312 172 283.5 142 c 128,-1,6
 255 112 255 112 171.5 112 c 128,-1,7
 88 112 88 112 59 142 c 128,-1,0
 30 172 30 172 30 249 c 128,-1,1
EndSplineSet
Position2: "'case' Case-Sensitive Forms in Latin lookup 0 per glyph data 1" dx=0 dy=70 dh=0 dv=0
EndChar

StartChar: ellipsis
Encoding: 8230 8230 222
Width: 877
GlyphClass: 2
Flags: W
LayerCount: 2
Fore
SplineSet
30 99 m 128,-1,1
 30 158 30 158 52 182 c 128,-1,2
 74 206 74 206 138.5 206 c 128,-1,3
 203 206 203 206 225 182 c 128,-1,4
 247 158 247 158 247 99 c 128,-1,5
 247 40 247 40 225 17 c 128,-1,6
 203 -6 203 -6 138.5 -6 c 128,-1,7
 74 -6 74 -6 52 17 c 128,-1,0
 30 40 30 40 30 99 c 128,-1,1
330 99 m 128,-1,9
 330 158 330 158 352 182 c 128,-1,10
 374 206 374 206 438.5 206 c 128,-1,11
 503 206 503 206 525 182 c 128,-1,12
 547 158 547 158 547 99 c 128,-1,13
 547 40 547 40 525 17 c 128,-1,14
 503 -6 503 -6 438.5 -6 c 128,-1,15
 374 -6 374 -6 352 17 c 128,-1,8
 330 40 330 40 330 99 c 128,-1,9
630 99 m 128,-1,17
 630 158 630 158 652 182 c 128,-1,18
 674 206 674 206 738.5 206 c 128,-1,19
 803 206 803 206 825 182 c 128,-1,20
 847 158 847 158 847 99 c 128,-1,21
 847 40 847 40 825 17 c 128,-1,22
 803 -6 803 -6 738.5 -6 c 128,-1,23
 674 -6 674 -6 652 17 c 128,-1,16
 630 40 630 40 630 99 c 128,-1,17
EndSplineSet
EndChar

StartChar: perthousand
Encoding: 8240 8240 223
Width: 1145
GlyphClass: 3
Flags: W
LayerCount: 2
Fore
SplineSet
472 170 m 128,-1,1
 472 264 472 264 515.5 309.5 c 128,-1,2
 559 355 559 355 657 355 c 128,-1,3
 755 355 755 355 798 309 c 1,4,5
 843 355 843 355 940.5 355 c 128,-1,6
 1038 355 1038 355 1081.5 309.5 c 128,-1,7
 1125 264 1125 264 1125 170 c 128,-1,8
 1125 76 1125 76 1081.5 30.5 c 128,-1,9
 1038 -15 1038 -15 940.5 -15 c 128,-1,10
 843 -15 843 -15 798 31 c 1,11,12
 755 -15 755 -15 657 -15 c 128,-1,13
 559 -15 559 -15 515.5 30.5 c 128,-1,0
 472 76 472 76 472 170 c 128,-1,1
20 455 m 128,-1,15
 20 549 20 549 63.5 594.5 c 128,-1,16
 107 640 107 640 205 640 c 128,-1,17
 303 640 303 640 346.5 594.5 c 128,-1,18
 390 549 390 549 390 455 c 128,-1,19
 390 361 390 361 346.5 315.5 c 128,-1,20
 303 270 303 270 205 270 c 128,-1,21
 107 270 107 270 63.5 315.5 c 128,-1,14
 20 361 20 361 20 455 c 128,-1,15
659 625 m 1,22,-1
 314 25 l 2,23,24
 304 8 304 8 296.5 4 c 128,-1,25
 289 0 289 0 265 0 c 2,26,-1
 200 0 l 1,27,-1
 545 600 l 2,28,29
 555 617 555 617 562.5 621 c 128,-1,30
 570 625 570 625 594 625 c 2,31,-1
 659 625 l 1,22,-1
630 209 m 2,32,-1
 630 102 l 1,33,-1
 652 102 l 2,34,35
 673 102 673 102 678.5 106.5 c 128,-1,36
 684 111 684 111 684 131 c 2,37,-1
 684 238 l 1,38,-1
 662 238 l 2,39,40
 641 238 641 238 635.5 233.5 c 128,-1,41
 630 229 630 229 630 209 c 2,32,-1
913 209 m 2,42,-1
 913 102 l 1,43,-1
 935 102 l 2,44,45
 956 102 956 102 961.5 106.5 c 128,-1,46
 967 111 967 111 967 131 c 2,47,-1
 967 238 l 1,48,-1
 945 238 l 2,49,50
 924 238 924 238 918.5 233.5 c 128,-1,51
 913 229 913 229 913 209 c 2,42,-1
178 494 m 2,52,-1
 178 387 l 1,53,-1
 200 387 l 2,54,55
 221 387 221 387 226.5 391.5 c 128,-1,56
 232 396 232 396 232 416 c 2,57,-1
 232 523 l 1,58,-1
 210 523 l 2,59,60
 189 523 189 523 183.5 518.5 c 128,-1,61
 178 514 178 514 178 494 c 2,52,-1
EndSplineSet
Substitution2: "'onum' Oldstyle Figures in Latin lookup 4 subtable" .notdef
Ligature2: "'frac' Diagonal Fractions in Latin lookup 1 subtable" zero slash zero zero
Ligature2: "'frac' Diagonal Fractions in Latin lookup 1 subtable" zero fraction zero zero
EndChar

StartChar: guilsinglleft
Encoding: 8249 8249 224
Width: 325
GlyphClass: 2
Flags: W
LayerCount: 2
Fore
SplineSet
25 300 m 1,0,-1
 219 475 l 1,1,-1
 300 424 l 1,2,-1
 200 250 l 1,3,-1
 300 76 l 1,4,-1
 219 25 l 1,5,-1
 25 200 l 1,6,-1
 25 300 l 1,0,-1
EndSplineSet
Position2: "'case' Case-Sensitive Forms in Latin lookup 0 per glyph data 1" dx=0 dy=70 dh=0 dv=0
EndChar

StartChar: guilsinglright
Encoding: 8250 8250 225
Width: 325
GlyphClass: 2
Flags: W
LayerCount: 2
Fore
SplineSet
106 475 m 1,0,-1
 300 300 l 1,1,-1
 300 200 l 1,2,-1
 106 25 l 1,3,-1
 25 76 l 1,4,-1
 125 250 l 1,5,-1
 25 424 l 1,6,-1
 106 475 l 1,0,-1
EndSplineSet
Position2: "'case' Case-Sensitive Forms in Latin lookup 0 per glyph data 1" dx=0 dy=70 dh=0 dv=0
EndChar

StartChar: fraction
Encoding: 8260 8260 226
Width: 503
GlyphClass: 2
Flags: W
LayerCount: 2
Fore
SplineSet
433 665 m 1,0,-1
 164 -15 l 2,1,2
 159 -25 159 -25 155 -29 c 0,3,4
 144 -40 144 -40 121 -40 c 2,5,-1
 70 -40 l 1,6,-1
 339 640 l 2,7,8
 344 650 344 650 348 654 c 0,9,10
 359 665 359 665 382 665 c 2,11,-1
 433 665 l 1,0,-1
EndSplineSet
EndChar

StartChar: Euro
Encoding: 8364 8364 227
Width: 563
GlyphClass: 2
Flags: W
LayerCount: 2
Fore
SplineSet
439 206 m 1,0,-1
 279 206 l 1,1,-1
 277 153 l 1,2,3
 316 145 316 145 356 145 c 0,4,5
 436 145 436 145 503 169 c 1,6,-1
 512 11 l 1,7,8
 448 -15 448 -15 345 -15 c 0,9,10
 201 -15 201 -15 138.5 35 c 128,-1,11
 76 85 76 85 64 206 c 1,12,-1
 15 206 l 1,13,-1
 22 288 l 1,14,-1
 446 288 l 1,15,-1
 439 206 l 1,0,-1
453 338 m 1,16,-1
 29 338 l 1,17,-1
 36 420 l 1,18,-1
 78 420 l 1,19,20
 97 539 97 539 164.5 589.5 c 128,-1,21
 232 640 232 640 375 640 c 0,22,23
 447 640 447 640 523 621 c 1,24,-1
 495 475 l 1,25,-1
 360 475 l 2,26,27
 340 475 340 475 327.5 472.5 c 128,-1,28
 315 470 315 470 304.5 458.5 c 128,-1,29
 294 447 294 447 293 426 c 1,30,-1
 293 420 l 1,31,-1
 460 420 l 1,32,-1
 453 338 l 1,16,-1
EndSplineSet
Substitution2: "'onum' Oldstyle Figures in Latin lookup 4 subtable" .notdef
EndChar

StartChar: trademark
Encoding: 8482 8482 228
Width: 807
GlyphClass: 2
Flags: W
LayerCount: 2
Fore
SplineSet
461 343 m 1,0,-1
 323 343 l 1,1,-1
 348 732 l 1,2,-1
 523 732 l 1,3,-1
 554 584 l 1,4,-1
 561 584 l 1,5,-1
 592 732 l 1,6,-1
 767 732 l 1,7,-1
 792 343 l 1,8,-1
 654 343 l 1,9,-1
 646 491 l 1,10,-1
 640 491 l 1,11,-1
 605 343 l 1,12,-1
 510 343 l 1,13,-1
 474 491 l 1,14,-1
 468 491 l 1,15,-1
 461 343 l 1,0,-1
326 617 m 1,16,-1
 240 617 l 1,17,-1
 240 343 l 1,18,-1
 100 343 l 1,19,-1
 100 617 l 1,20,-1
 15 617 l 1,21,-1
 15 732 l 1,22,-1
 326 732 l 1,23,-1
 326 617 l 1,16,-1
EndSplineSet
EndChar

StartChar: Omega
Encoding: 8486 8486 229
Width: 703
GlyphClass: 2
Flags: W
LayerCount: 2
Fore
SplineSet
303 250 m 1,0,-1
 288 0 l 1,1,-1
 15 0 l 1,2,-1
 15 143 l 1,3,-1
 165 152 l 1,4,-1
 171 166 l 1,5,6
 92 194 92 194 60.5 245 c 128,-1,7
 29 296 29 296 29 365 c 128,-1,8
 29 434 29 434 43 478.5 c 128,-1,9
 57 523 57 523 91 562 c 0,10,11
 160 640 160 640 353 640 c 0,12,13
 573 640 573 640 640 531 c 0,14,15
 677 470 677 470 677 382.5 c 128,-1,16
 677 295 677 295 644.5 243.5 c 128,-1,17
 612 192 612 192 532 164 c 1,18,-1
 538 152 l 1,19,-1
 688 143 l 1,20,-1
 688 0 l 1,21,-1
 415 0 l 1,22,-1
 400 250 l 1,23,24
 425 250 425 250 438 252 c 128,-1,25
 451 254 451 254 462 264 c 128,-1,26
 473 274 473 274 474 293 c 1,27,-1
 474 480 l 1,28,-1
 303 480 l 2,29,30
 264 480 264 480 246.5 471 c 128,-1,31
 229 462 229 462 229 430 c 2,32,-1
 229 300 l 2,33,34
 229 268 229 268 246.5 259 c 128,-1,35
 264 250 264 250 303 250 c 1,0,-1
EndSplineSet
EndChar

StartChar: partialdiff
Encoding: 8706 8706 230
Width: 590
GlyphClass: 2
Flags: W
LayerCount: 2
Fore
SplineSet
333 455 m 1,0,-1
 367 454 l 1,1,-1
 370 481 l 1,2,-1
 211 522 l 1,3,-1
 211 625 l 1,4,-1
 364 625 l 1,5,6
 448 589 448 589 500.5 506 c 128,-1,7
 553 423 553 423 553 319 c 0,8,9
 553 176 553 176 486 84 c 0,10,11
 452 38 452 38 393.5 11.5 c 128,-1,12
 335 -15 335 -15 258 -15 c 0,13,14
 144 -15 144 -15 91 33.5 c 128,-1,15
 38 82 38 82 38 179 c 0,16,17
 38 455 38 455 333 455 c 1,0,-1
252 279 m 2,18,-1
 232 131 l 1,19,-1
 261 131 l 2,20,21
 283 131 283 131 295.5 133 c 128,-1,22
 308 135 308 135 319.5 145 c 128,-1,23
 331 155 331 155 333 173 c 2,24,-1
 353 321 l 1,25,-1
 323 321 l 2,26,27
 289 321 289 321 272 313.5 c 128,-1,28
 255 306 255 306 252 279 c 2,18,-1
EndSplineSet
EndChar

StartChar: Delta
Encoding: 8710 8710 231
Width: 703
GlyphClass: 2
Flags: W
LayerCount: 2
Fore
SplineSet
250 625 m 1,0,-1
 453 625 l 1,1,-1
 673 52 l 1,2,-1
 654 0 l 1,3,-1
 49 0 l 1,4,-1
 30 52 l 1,5,-1
 250 625 l 1,0,-1
219 150 m 1,6,-1
 384 150 l 2,7,8
 414 150 414 150 414 172 c 0,9,10
 414 178 414 178 411 187 c 2,11,-1
 327 445 l 1,12,-1
 317 445 l 1,13,-1
 219 150 l 1,6,-1
EndSplineSet
EndChar

StartChar: product
Encoding: 8719 8719 232
Width: 800
GlyphClass: 2
Flags: W
LayerCount: 2
Fore
SplineSet
53 625 m 1,0,-1
 599 625 l 1,1,2
 603 642 603 642 605 661 c 1,3,-1
 752 654 l 1,4,5
 752 541 752 541 734 510 c 0,6,7
 713 475 713 475 674 475 c 1,8,-1
 674 -150 l 1,9,-1
 474 -150 l 1,10,-1
 474 475 l 1,11,-1
 410 475 l 1,12,13
 380 474 380 474 365.5 464 c 128,-1,14
 351 454 351 454 349 425 c 2,15,-1
 300 -150 l 1,16,-1
 123 -150 l 1,17,-1
 140 484 l 1,18,-1
 53 503 l 1,19,-1
 53 625 l 1,0,-1
EndSplineSet
EndChar

StartChar: summation
Encoding: 8721 8721 233
Width: 654
GlyphClass: 2
Flags: W
LayerCount: 2
Fore
SplineSet
598 0 m 1,0,-1
 576 -150 l 1,1,-1
 62 -150 l 1,2,-1
 43 -98 l 1,3,-1
 254 211 l 1,4,-1
 72 573 l 1,5,-1
 91 625 l 1,6,-1
 598 625 l 1,7,-1
 580 500 l 1,8,-1
 396 475 l 2,9,10
 352 469 352 469 352 448 c 0,11,12
 352 438 352 438 358 425 c 2,13,-1
 453 247 l 1,14,-1
 286 14 l 1,15,-1
 294 0 l 1,16,-1
 598 0 l 1,0,-1
EndSplineSet
EndChar

StartChar: minus
Encoding: 8722 8722 234
Width: 600
GlyphClass: 2
Flags: W
LayerCount: 2
Fore
SplineSet
72 240 m 1,0,-1
 72 384 l 1,1,-1
 527 384 l 1,2,-1
 527 240 l 1,3,-1
 72 240 l 1,0,-1
EndSplineSet
EndChar

StartChar: radical
Encoding: 8730 8730 235
Width: 544
GlyphClass: 2
Flags: W
LayerCount: 2
Fore
SplineSet
514 552 m 1,0,-1
 375 0 l 1,1,-1
 162 0 l 1,2,-1
 0 500 l 1,3,-1
 207 500 l 1,4,-1
 298 180 l 1,5,-1
 308 180 l 1,6,-1
 410 650 l 1,7,-1
 607 650 l 1,8,-1
 594 552 l 1,9,-1
 514 552 l 1,0,-1
EndSplineSet
EndChar

StartChar: infinity
Encoding: 8734 8734 236
Width: 905
GlyphClass: 2
Flags: W
LayerCount: 2
Fore
SplineSet
603 -15 m 0,0,1
 526 -15 526 -15 486 4 c 0,2,3
 470 12 470 12 470 17 c 1,4,-1
 492 79 l 1,5,-1
 483 84 l 1,6,7
 445 31 445 31 402.5 8 c 128,-1,8
 360 -15 360 -15 302 -15 c 0,9,10
 169 -15 169 -15 109.5 50.5 c 128,-1,11
 50 116 50 116 50 250 c 128,-1,12
 50 384 50 384 108 449.5 c 128,-1,13
 166 515 166 515 295 515 c 0,14,15
 375 515 375 515 418 496 c 0,16,17
 434 488 434 488 434 483 c 1,18,-1
 411 421 l 1,19,-1
 420 416 l 1,20,21
 460 469 460 469 505 492 c 128,-1,22
 550 515 550 515 610 515 c 0,23,24
 739 515 739 515 797 449.5 c 128,-1,25
 855 384 855 384 855 250 c 128,-1,26
 855 116 855 116 795.5 50.5 c 128,-1,27
 736 -15 736 -15 603 -15 c 0,0,1
662 193 m 2,28,-1
 662 349 l 1,29,30
 627 349 627 349 606.5 340.5 c 128,-1,31
 586 332 586 332 576 307 c 2,32,-1
 520 151 l 1,33,-1
 593 151 l 2,34,35
 629 151 629 151 645.5 158.5 c 128,-1,36
 662 166 662 166 662 193 c 2,28,-1
243 307 m 2,37,-1
 243 151 l 1,38,39
 278 151 278 151 298.5 159.5 c 128,-1,40
 319 168 319 168 329 193 c 2,41,-1
 385 349 l 1,42,-1
 312 349 l 2,43,44
 276 349 276 349 259.5 341.5 c 128,-1,45
 243 334 243 334 243 307 c 2,37,-1
EndSplineSet
EndChar

StartChar: integral
Encoding: 8747 8747 237
Width: 373
GlyphClass: 2
Flags: W
LayerCount: 2
Fore
SplineSet
281 429 m 2,0,-1
 255 -41 l 2,1,2
 253 -78 253 -78 223.5 -103 c 128,-1,3
 194 -128 194 -128 148 -139 c 0,4,5
 67 -158 67 -158 -19 -158 c 1,6,-1
 -25 -41 l 1,7,8
 64 -22 64 -22 77 6 c 0,9,10
 83 19 83 19 84 45 c 2,11,-1
 109 515 l 2,12,13
 111 552 111 552 139 577 c 128,-1,14
 167 602 167 602 212 613 c 0,15,16
 291 632 291 632 379 632 c 1,17,-1
 385 515 l 1,18,19
 317 499 317 499 300 483 c 128,-1,20
 283 467 283 467 281 429 c 2,0,-1
EndSplineSet
EndChar

StartChar: approxequal
Encoding: 8776 8776 238
Width: 600
GlyphClass: 2
Flags: W
LayerCount: 2
Fore
SplineSet
72 121 m 1,0,-1
 72 265 l 1,1,2
 115 227 115 227 163.5 227 c 128,-1,3
 212 227 212 227 299.5 264.5 c 128,-1,4
 387 302 387 302 435 302 c 128,-1,5
 483 302 483 302 527 265 c 1,6,-1
 527 121 l 1,7,8
 483 158 483 158 435 158 c 128,-1,9
 387 158 387 158 299.5 120.5 c 128,-1,10
 212 83 212 83 163.5 83 c 128,-1,11
 115 83 115 83 72 121 c 1,0,-1
72 359 m 1,12,-1
 72 503 l 1,13,14
 115 465 115 465 163.5 465 c 128,-1,15
 212 465 212 465 299.5 502.5 c 128,-1,16
 387 540 387 540 435 540 c 128,-1,17
 483 540 483 540 527 503 c 1,18,-1
 527 359 l 1,19,20
 483 396 483 396 435 396 c 128,-1,21
 387 396 387 396 299.5 358.5 c 128,-1,22
 212 321 212 321 163.5 321 c 128,-1,23
 115 321 115 321 72 359 c 1,12,-1
EndSplineSet
EndChar

StartChar: lessequal
Encoding: 8804 8804 240
Width: 600
GlyphClass: 2
Flags: W
LayerCount: 2
Fore
SplineSet
432 587 m 1,0,-1
 499 453 l 1,1,-1
 274 364 l 1,2,-1
 274 359 l 1,3,-1
 499 271 l 1,4,-1
 432 137 l 1,5,-1
 107 282 l 1,6,-1
 107 442 l 1,7,-1
 432 587 l 1,0,-1
107 -15 m 1,8,-1
 107 105 l 1,9,-1
 493 105 l 1,10,-1
 493 -15 l 1,11,-1
 107 -15 l 1,8,-1
EndSplineSet
EndChar

StartChar: greaterequal
Encoding: 8805 8805 241
Width: 600
GlyphClass: 2
Flags: W
LayerCount: 2
Fore
SplineSet
101 453 m 1,0,-1
 168 587 l 1,1,-1
 493 442 l 1,2,-1
 493 282 l 1,3,-1
 168 137 l 1,4,-1
 101 271 l 1,5,-1
 326 359 l 1,6,-1
 326 364 l 1,7,-1
 101 453 l 1,0,-1
493 105 m 1,8,-1
 493 -15 l 1,9,-1
 107 -15 l 1,10,-1
 107 105 l 1,11,-1
 493 105 l 1,8,-1
EndSplineSet
EndChar

StartChar: lozenge
Encoding: 9674 9674 242
Width: 700
GlyphClass: 2
Flags: W
LayerCount: 2
Fore
SplineSet
452 -150 m 1,0,-1
 249 -150 l 1,1,-1
 51 237 l 1,2,-1
 249 625 l 1,3,-1
 452 625 l 1,4,-1
 649 237 l 1,5,-1
 452 -150 l 1,0,-1
242 238 m 1,6,-1
 343 40 l 1,7,-1
 358 40 l 1,8,-1
 457 236 l 1,9,-1
 358 431 l 1,10,-1
 343 431 l 1,11,-1
 242 238 l 1,6,-1
EndSplineSet
EndChar

StartChar: fi
Encoding: 64257 64257 243
Width: 620
GlyphClass: 3
Flags: W
LayerCount: 2
Fore
SplineSet
370 0 m 1,0,-1
 370 370 l 1,1,-1
 270 370 l 1,2,-1
 270 0 l 1,3,-1
 70 0 l 1,4,-1
 70 370 l 1,5,-1
 20 370 l 1,6,-1
 20 500 l 1,7,-1
 70 500 l 1,8,-1
 77 560 l 2,9,10
 91 675 91 675 253 675 c 0,11,12
 329 675 329 675 414 650 c 1,13,-1
 383 533 l 1,14,-1
 270 542 l 1,15,-1
 270 500 l 1,16,-1
 404 500 l 1,17,-1
 570 525 l 1,18,-1
 570 0 l 1,19,-1
 370 0 l 1,0,-1
EndSplineSet
Ligature2: "'liga' Standard Ligatures in Latin lookup 2 subtable" f i
EndChar

StartChar: fl
Encoding: 64258 64258 244
Width: 642
GlyphClass: 3
Flags: W
LayerCount: 2
Fore
SplineSet
270 542 m 1,0,-1
 270 500 l 1,1,-1
 330 500 l 1,2,-1
 330 370 l 1,3,-1
 270 370 l 1,4,-1
 270 0 l 1,5,-1
 70 0 l 1,6,-1
 70 370 l 1,7,-1
 20 370 l 1,8,-1
 20 500 l 1,9,-1
 70 500 l 1,10,-1
 77 560 l 2,11,12
 91 675 91 675 253 675 c 0,13,14
 329 675 329 675 414 650 c 1,15,-1
 583 665 l 1,16,-1
 583 143 l 1,17,18
 614 137 614 137 632 136 c 1,19,-1
 623 -11 l 1,20,21
 495 -11 495 -11 454 4 c 0,22,23
 403 23 403 23 391 52 c 0,24,25
 383 70 383 70 383 94 c 2,26,-1
 383 533 l 1,27,-1
 270 542 l 1,0,-1
EndSplineSet
Ligature2: "'liga' Standard Ligatures in Latin lookup 2 subtable" f l
EndChar
